<svg width="20" height="20" viewBox="0 0 20 20" fill="none" xmlns="http://www.w3.org/2000/svg">
<g clip-path="url(#clip0_204_2)">
<path fill-rule="evenodd" clip-rule="evenodd" d="M14.8954 5.10464C15.0396 5.2489 15.1207 5.44456 15.1207 5.64857C15.1207 5.85259 15.0396 6.04824 14.8954 6.1925L6.1925 14.8954C6.04824 15.0396 5.85259 15.1207 5.64857 15.1207C5.44456 15.1207 5.2489 15.0396 5.10465 14.8954C4.96039 14.7511 4.87934 14.5554 4.87934 14.3514C4.87934 14.1474 4.96039 13.9518 5.10465 13.8075L13.8075 5.10465C13.9518 4.96039 14.1474 4.87934 14.3514 4.87934C14.5554 4.87934 14.7511 4.96039 14.8954 5.10464Z" fill="black"/>
<path fill-rule="evenodd" clip-rule="evenodd" d="M4.01679 15.9832C7.32115 19.2876 12.6788 19.2876 15.9832 15.9832C19.2876 12.6788 19.2876 7.32115 15.9832 4.01679C12.6788 0.712424 7.32115 0.712424 4.01679 4.01679C0.712425 7.32115 0.712424 12.6788 4.01679 15.9832ZM2.92893 17.0711C6.83434 20.9765 13.1657 20.9765 17.0711 17.0711C20.9765 13.1657 20.9765 6.83434 17.0711 2.92893C13.1657 -0.976473 6.83434 -0.976473 2.92893 2.92893C-0.976472 6.83434 -0.976472 13.1657 2.92893 17.0711Z" fill="black"/>
</g>
<defs>
<clipPath id="clip0_204_2">
<rect width="20" height="20" fill="white"/>
</clipPath>
</defs>
</svg>
