<svg width="21" height="15" viewBox="0 0 21 15" xmlns="http://www.w3.org/2000/svg">
<path d="M10.1538 10.0003C11.6266 10.0003 12.8206 8.8064 12.8206 7.33359C12.8206 5.86079 11.6266 4.66685 10.1538 4.66685C8.68105 4.66685 7.4871 5.86079 7.4871 7.33359C7.4871 8.8064 8.68105 10.0003 10.1538 10.0003Z"/>
<path d="M20.1141 7.10692C19.33 5.07863 17.9687 3.32456 16.1985 2.0615C14.4284 0.798446 12.3269 0.081771 10.1538 5.34058e-05C7.9808 0.081771 5.87932 0.798446 4.10914 2.0615C2.33897 3.32456 0.977694 5.07863 0.193564 7.10692C0.140608 7.2534 0.140608 7.41379 0.193564 7.56027C0.977694 9.58856 2.33897 11.3426 4.10914 12.6057C5.87932 13.8687 7.9808 14.5854 10.1538 14.6671C12.3269 14.5854 14.4284 13.8687 16.1985 12.6057C17.9687 11.3426 19.33 9.58856 20.1141 7.56027C20.1671 7.41379 20.1671 7.2534 20.1141 7.10692ZM10.1538 11.6671C9.29677 11.6671 8.45894 11.4129 7.74631 10.9367C7.03367 10.4606 6.47824 9.78377 6.15026 8.99194C5.82227 8.2001 5.73645 7.32879 5.90366 6.48818C6.07086 5.64757 6.48359 4.87542 7.08963 4.26938C7.69567 3.66333 8.46782 3.25061 9.30843 3.0834C10.149 2.9162 11.0204 3.00201 11.8122 3.33C12.604 3.65799 13.2808 4.21342 13.757 4.92606C14.2331 5.63869 14.4873 6.47652 14.4873 7.33359C14.4855 8.48236 14.0284 9.58357 13.2161 10.3959C12.4038 11.2082 11.3026 11.6653 10.1538 11.6671Z"/>
</svg>
