<svg width="20" height="14" viewBox="0 0 20 14" fill="none" xmlns="http://www.w3.org/2000/svg">
<path fill-rule="evenodd" clip-rule="evenodd" d="M0.375999 11.8816C0.375949 11.7821 0.415374 11.6866 0.485623 11.6161C0.555872 11.5456 0.651209 11.5059 0.750718 11.5056H2.34409C2.96575 11.5056 3.70506 11.06 3.99512 10.5106L8.42444 2.12219C9.29462 0.474156 10.7097 0.472 11.5857 2.11825L16.0517 10.5119C16.3437 11.0608 17.0836 11.5056 17.7063 11.5056H19.2522C19.3517 11.5058 19.4472 11.5456 19.5175 11.616C19.5878 11.6865 19.6273 11.782 19.6273 11.8816V12.7074C19.6273 12.915 19.4585 13.0833 19.2516 13.0833H16.9557C16.1271 13.0833 15.1406 12.4908 14.7513 11.7583L10.7918 4.3075C10.3545 3.48456 9.64544 3.48512 9.20866 4.3075L5.25147 11.7583C4.86287 12.49 3.87644 13.0833 3.04759 13.0833H0.751656C0.652015 13.0831 0.556495 13.0435 0.486064 12.973C0.415634 12.9025 0.376049 12.807 0.375999 12.7073V11.8816Z" fill="black"/>
</svg>
