<svg width="20" height="13" viewBox="0 0 20 13" fill="none" xmlns="http://www.w3.org/2000/svg">
<path fill-rule="evenodd" clip-rule="evenodd" d="M19.6285 3.3C19.6283 3.20049 19.5886 3.10515 19.5181 3.03492C19.4476 2.96469 19.3521 2.92532 19.2526 2.92547H14.4731C14.2654 2.92547 13.9845 2.80106 13.8456 2.64759L12.5583 1.22625C10.8901 -0.615937 8.65572 -0.29775 7.56766 1.93688L3.93616 9.39534C3.66437 9.95362 2.94109 10.4062 2.31972 10.4062H0.752405C0.653097 10.4063 0.557872 10.4458 0.48766 10.516C0.417447 10.5862 0.377993 10.6815 0.377968 10.7808V11.7192C0.378029 11.7685 0.387796 11.8172 0.40671 11.8627C0.425624 11.9082 0.453315 11.9495 0.488201 11.9843C0.523086 12.0191 0.564482 12.0467 0.610025 12.0654C0.655567 12.0842 0.704363 12.0938 0.753624 12.0938H3.06925C3.89753 12.0938 4.87 11.4942 5.24181 10.7538L9.33353 2.60559C9.70516 1.86553 10.4804 1.74047 11.0654 2.32678L12.6764 3.94106C12.9692 4.2345 13.5428 4.47234 13.9558 4.47234H19.2531C19.3525 4.47232 19.4478 4.43289 19.5182 4.3627C19.5886 4.29251 19.6282 4.19729 19.6285 4.09791V3.3Z" fill="black"/>
</svg>
