<svg width="20" height="14" viewBox="0 0 20 14" fill="none" xmlns="http://www.w3.org/2000/svg">
<path fill-rule="evenodd" clip-rule="evenodd" d="M0.377969 4.3C0.378193 4.20049 0.417917 4.10515 0.488411 4.03492C0.558905 3.96469 0.6544 3.92532 0.753907 3.92547H5.53338C5.74094 3.92547 6.02838 3.80847 6.1765 3.66278L7.82191 2.04531C9.59444 0.303062 11.8459 0.734031 12.8501 3.00606L16.1075 10.3767C16.3588 10.9453 17.0654 11.4062 17.6868 11.4062H19.2541C19.3534 11.4063 19.4486 11.4458 19.5188 11.516C19.589 11.5862 19.6285 11.6815 19.6285 11.7808V12.7192C19.6284 12.7685 19.6187 12.8172 19.5998 12.8627C19.5808 12.9082 19.5532 12.9495 19.5183 12.9843C19.4834 13.0191 19.442 13.0467 19.3964 13.0654C19.3509 13.0842 19.3021 13.0938 19.2528 13.0937H16.9372C16.1089 13.0937 15.1532 12.4854 14.8021 11.7347L11.0104 3.62472C10.6594 2.87406 9.87513 2.71403 9.25853 3.26706L7.3585 4.97134C7.04997 5.248 6.46366 5.47234 6.05069 5.47234H0.75325C0.653864 5.47232 0.558543 5.43289 0.488178 5.3627C0.417814 5.29251 0.378148 5.19729 0.377875 5.09791V4.29991L0.377969 4.3Z" fill="black"/>
</svg>
