<svg width="21" height="12" viewBox="0 0 21 12" xmlns="http://www.w3.org/2000/svg">
<path d="M10.8627 11.8564L19.8622 6.71382C20.083 6.58766 20.2362 6.39149 20.2883 6.16846C20.3403 5.94544 20.2868 5.71383 20.1397 5.52459C19.9925 5.33534 19.7636 5.20397 19.5034 5.15937C19.2432 5.11476 18.973 5.16058 18.7522 5.28674L11.3076 9.54119V0.85766C11.3078 0.702451 11.2587 0.550128 11.1657 0.416948C11.0727 0.283769 10.9393 0.174732 10.7796 0.101475C10.62 0.0282192 10.4402 -0.00650651 10.2593 0.00100435C10.0784 0.00851522 9.90335 0.0579806 9.75272 0.144122L0.75321 5.28674C0.64389 5.34921 0.549996 5.42952 0.476888 5.5231C0.40378 5.61667 0.352889 5.72167 0.327122 5.8321C0.301356 5.94253 0.301217 6.05623 0.326714 6.1667C0.352211 6.27718 0.402845 6.38227 0.475725 6.47597C0.548604 6.56967 0.642303 6.65016 0.751469 6.71282C0.860636 6.77549 0.983134 6.81911 1.11197 6.84119C1.2408 6.86328 1.37345 6.8634 1.50234 6.84154C1.63123 6.81969 1.75383 6.77629 1.86315 6.71382L9.30774 2.46473V11.1429C9.30774 11.3702 9.4131 11.5882 9.60062 11.749C9.78815 11.9097 10.0425 12 10.3077 12C10.5052 12.0002 10.6983 11.9502 10.8627 11.8564Z"/>
</svg>
