<svg width="21" height="12" viewBox="0 0 21 12" xmlns="http://www.w3.org/2000/svg">
<path d="M14.6513 12C16.5072 12 18.2191 10.2711 20.2049 6.38222C20.2623 6.27647 20.2964 6.16107 20.3053 6.04281C20.3143 5.92454 20.2977 5.80581 20.2567 5.6936C20.2158 5.58139 20.1511 5.47797 20.0667 5.38942C19.9822 5.30087 19.8796 5.22898 19.765 5.17799C19.6503 5.12699 19.5258 5.09792 19.399 5.09249C19.2721 5.08706 19.1453 5.10537 19.0261 5.14635C18.9069 5.18733 18.7977 5.25015 18.7049 5.33111C18.6121 5.41207 18.5376 5.50954 18.4858 5.61778C16.362 9.77778 15.0965 10.2222 14.6513 10.2222C13.512 10.2222 12.2025 7.66667 11.1572 5.61778L11.1565 5.61635C9.68059 2.72799 8.28661 0 5.94414 0C4.08819 0 2.37628 1.73222 0.390569 5.61778C0.289152 5.82959 0.280479 6.07001 0.366401 6.2877C0.452323 6.5054 0.62603 6.68312 0.850429 6.78291C1.07483 6.88269 1.33214 6.89665 1.56741 6.82178C1.80268 6.74692 1.99726 6.58917 2.10962 6.38222C4.23343 2.22222 5.4989 1.77778 5.94414 1.77778C7.08343 1.77778 8.39295 4.33333 9.43819 6.38222L9.43891 6.38364C10.9148 9.272 12.3088 12 14.6513 12Z"/>
</svg>
