<svg width="21" height="12" viewBox="0 0 21 12" fill="none" xmlns="http://www.w3.org/2000/svg">
<path d="M20.0103 11.7071C20.2007 11.5196 20.3077 11.2652 20.3077 11V6C20.3077 5.73478 20.2007 5.48043 20.0103 5.29289C19.8199 5.10536 19.5616 5 19.2923 5C19.023 5 18.7647 5.10536 18.5743 5.29289C18.3839 5.48043 18.2769 5.73478 18.2769 6V10H11.1692V1C11.1692 0.734784 11.0623 0.48043 10.8718 0.292893C10.6814 0.105357 10.4231 0 10.1538 0H1.01538C0.746088 0 0.487821 0.105357 0.297399 0.292893C0.106978 0.48043 0 0.734784 0 1V6C0 6.26522 0.106978 6.51957 0.297399 6.70711C0.487821 6.89464 0.746088 7 1.01538 7C1.28468 7 1.54295 6.89464 1.73337 6.70711C1.92379 6.51957 2.03077 6.26522 2.03077 6V2H9.13846V11C9.13846 11.2652 9.24544 11.5196 9.43586 11.7071C9.62628 11.8946 9.88455 12 10.1538 12H19.2923C19.5616 12 19.8199 11.8946 20.0103 11.7071Z" fill="black"/>
</svg>
