<svg width="21" height="12" viewBox="0 0 21 12" fill="none" xmlns="http://www.w3.org/2000/svg">
<path d="M15.0763 11.6914L20.0762 6.54884C20.1602 6.46231 20.2235 6.36244 20.2626 6.25493C20.3016 6.14743 20.3155 6.03439 20.3035 5.92226C20.2916 5.81014 20.254 5.70114 20.1929 5.60147C20.1318 5.50181 20.0484 5.41343 19.9474 5.3414C19.8465 5.26936 19.7299 5.21507 19.6045 5.18163C19.4791 5.14819 19.3472 5.13626 19.2164 5.1465C19.0856 5.15675 18.9584 5.18898 18.8421 5.24136C18.7259 5.29373 18.6227 5.36522 18.5387 5.45175L14.3963 9.71261L7.14029 0.381996C7.05396 0.270896 6.93855 0.178614 6.80326 0.112503C6.66796 0.0463925 6.51653 0.00828101 6.36101 0.00120515C6.2055 -0.00587071 6.0502 0.0182849 5.9075 0.0717472C5.7648 0.125209 5.63865 0.2065 5.53908 0.309142L0.539228 5.45175C0.369494 5.6265 0.287703 5.85188 0.311848 6.07832C0.323803 6.19045 0.361406 6.29945 0.42251 6.39912C0.483615 6.49878 0.567023 6.58715 0.667974 6.65919C0.768925 6.73123 0.885441 6.78551 1.01087 6.81895C1.1363 6.85239 1.26818 6.86433 1.39899 6.85408C1.5298 6.84384 1.65698 6.81161 1.77326 6.75923C1.88954 6.70686 1.99264 6.63537 2.07668 6.54884L6.22531 2.28905L13.4751 11.6197C13.5614 11.7306 13.6768 11.8228 13.812 11.8888C13.9472 11.9548 14.0985 11.9929 14.2538 12H14.3076C14.4543 12 14.5992 11.9724 14.732 11.9191C14.8649 11.8658 14.9824 11.7881 15.0763 11.6914Z" fill="black"/>
</svg>
