<svg width="21" height="19" viewBox="0 0 21 19" xmlns="http://www.w3.org/2000/svg">
<path d="M2.98031 13.6737L3.93367 12.727C2.88978 11.7897 2.0696 10.6301 1.5336 9.3336C2.88697 5.9535 6.62041 3.33343 10.1538 3.33343C11.0631 3.34543 11.9642 3.50762 12.8206 3.81344L13.854 2.77341C12.6824 2.27828 11.4257 2.01562 10.1538 2.00006C7.9808 2.08177 5.87932 2.79845 4.10914 4.06151C2.33897 5.32456 0.977694 7.07863 0.193564 9.10693C0.140608 9.2534 0.140608 9.41379 0.193564 9.56027C0.785746 11.1317 1.74056 12.541 2.98031 13.6737Z"/>
<path d="M7.4871 9.15359C7.53347 8.51472 7.80824 7.91387 8.26118 7.46093C8.71412 7.00799 9.31496 6.73322 9.95384 6.68686L11.1605 5.47349C10.4844 5.29545 9.77333 5.29776 9.09832 5.4802C8.42332 5.66263 7.80792 6.01882 7.3135 6.51325C6.81907 7.00767 6.46288 7.62307 6.28044 8.29807C6.09801 8.97308 6.09569 9.68412 6.27374 10.3603L7.4871 9.15359ZM20.1141 9.10693C19.3497 7.11567 18.0195 5.3915 16.2874 4.14678L19.4874 0.940027L18.5474 0L0.820249 17.7272L1.76028 18.6672L5.16037 15.2671C6.67633 16.1565 8.39649 16.6388 10.1538 16.6671C12.3269 16.5854 14.4284 15.8687 16.1985 14.6057C17.9687 13.3426 19.33 11.5886 20.1141 9.56027C20.1671 9.41379 20.1671 9.2534 20.1141 9.10693ZM12.8206 9.3336C12.8178 9.80035 12.6925 10.2582 12.4573 10.6613C12.2221 11.0645 11.8852 11.3989 11.4803 11.631C11.0754 11.8632 10.6166 11.985 10.1498 11.9843C9.68309 11.9836 9.22469 11.8604 8.82048 11.627L12.4472 8.00023C12.6869 8.40406 12.8157 8.86402 12.8206 9.3336ZM10.1538 15.3338C8.75518 15.3093 7.38303 14.948 6.15373 14.2804L7.84711 12.587C8.61736 13.1215 9.55085 13.3684 10.4846 13.2847C11.4184 13.201 12.2931 12.792 12.956 12.1291C13.6189 11.4661 14.0279 10.5915 14.1116 9.65769C14.1953 8.72394 13.9484 7.79044 13.4139 7.0202L15.3273 5.10681C16.8571 6.15683 18.0534 7.62383 18.7741 9.3336C17.4207 12.7137 13.6873 15.3338 10.1538 15.3338Z"/>
</svg>
