<?xml version="1.0" encoding="utf-8"?>
<!-- Generator: Adobe Illustrator 17.0.0, SVG Export Plug-In . SVG Version: 6.00 Build 0)  -->
<!DOCTYPE svg PUBLIC "-//W3C//DTD SVG 1.1//EN" "http://www.w3.org/Graphics/SVG/1.1/DTD/svg11.dtd">
<svg version="1.1" id="BACKGROUND" xmlns="http://www.w3.org/2000/svg" xmlns:xlink="http://www.w3.org/1999/xlink" x="0px" y="0px"
	 width="524px" height="561.615px" viewBox="-146.5 42.885 524 561.615" enable-background="new -146.5 42.885 524 561.615"
	 xml:space="preserve">
<g>
	<g>
		
			<linearGradient id="SVGID_1_" gradientUnits="userSpaceOnUse" x1="-404.4048" y1="78.3222" x2="1128.2279" y2="1120.7589" gradientTransform="matrix(1 0 0 1 0.28 -342.89)">
			<stop  offset="0" style="stop-color:#51299F"/>
			<stop  offset="1" style="stop-color:#001270"/>
		</linearGradient>
		<rect x="-386.5" y="-303.5" fill="url(#SVGID_1_)" width="1494" height="1118"/>
	</g>
	<g>
		<g>
			
				<linearGradient id="SVGID_2_" gradientUnits="userSpaceOnUse" x1="700.7061" y1="544.5873" x2="618.2101" y2="316.599" gradientTransform="matrix(1 0 0 1 0.28 -342.89)">
				<stop  offset="0" style="stop-color:#FFC431"/>
				<stop  offset="1" style="stop-color:#FF8300"/>
			</linearGradient>
			<path fill="url(#SVGID_2_)" d="M629.614-75.509c-44.161,0-79.96,35.799-79.96,79.96s35.799,79.96,79.96,79.96
				c44.16,0,79.96-35.799,79.96-79.96C709.574-39.709,673.774-75.509,629.614-75.509z M629.614,36.777
				c-17.853,0-32.326-14.473-32.326-32.325c0-17.853,14.473-32.325,32.326-32.325c17.853,0,32.325,14.473,32.325,32.325
				S647.467,36.777,629.614,36.777z"/>
			
				<linearGradient id="SVGID_3_" gradientUnits="userSpaceOnUse" x1="51.3275" y1="61.5742" x2="253.3272" y2="226.0742" gradientTransform="matrix(1 0 0 1 0.28 -342.89)">
				<stop  offset="0" style="stop-color:#FFC431"/>
				<stop  offset="1" style="stop-color:#FF8300"/>
			</linearGradient>
			<rect x="192.016" y="-154.485" fill="url(#SVGID_3_)" width="61.855" height="25.396"/>
			
				<linearGradient id="SVGID_4_" gradientUnits="userSpaceOnUse" x1="430.2132" y1="530.9547" x2="48.2124" y2="12.9539" gradientTransform="matrix(1 0 0 1 0.28 -342.89)">
				<stop  offset="0" style="stop-color:#51299F"/>
				<stop  offset="1" style="stop-color:#001270"/>
			</linearGradient>
			<path fill="url(#SVGID_4_)" d="M516.78,11.987L309.753,219.015c-19.16,19.16-50.224,19.16-69.383,0L33.342,11.987
				c-19.16-19.16-19.16-50.224,0-69.383L240.37-264.423c19.16-19.16,50.224-19.16,69.383,0L516.78-57.396
				C535.94-38.236,535.94-7.172,516.78,11.987z"/>
			
				<linearGradient id="SVGID_5_" gradientUnits="userSpaceOnUse" x1="500.9306" y1="660.8572" x2="38.9317" y2="1176.8569" gradientTransform="matrix(1 0 0 1 0.28 -342.89)">
				<stop  offset="0" style="stop-color:#51299F"/>
				<stop  offset="1" style="stop-color:#001270"/>
			</linearGradient>
			<path fill="url(#SVGID_5_)" d="M550.83,567.212L343.802,774.239c-19.16,19.16-50.224,19.16-69.383,0L67.392,567.212
				c-19.16-19.16-19.16-50.224,0-69.383l207.027-207.027c19.16-19.16,50.223-19.16,69.383,0L550.83,497.829
				C569.989,516.988,569.989,548.052,550.83,567.212z"/>
			
				<linearGradient id="SVGID_6_" gradientUnits="userSpaceOnUse" x1="1015.1116" y1="486.2724" x2="553.1126" y2="1002.2719" gradientTransform="matrix(1 0 0 1 0.28 -342.89)">
				<stop  offset="0" style="stop-color:#51299F"/>
				<stop  offset="1" style="stop-color:#001270"/>
			</linearGradient>
			<path fill="url(#SVGID_6_)" d="M1065.011,392.627L857.983,599.655c-19.16,19.16-50.223,19.16-69.383,0L581.573,392.627
				c-19.16-19.16-19.16-50.224,0-69.383L788.6,116.216c19.16-19.16,50.224-19.16,69.383,0l207.028,207.027
				C1084.17,342.404,1084.17,373.467,1065.011,392.627z"/>
			
				<linearGradient id="SVGID_7_" gradientUnits="userSpaceOnUse" x1="-167.2444" y1="42.7613" x2="247.8661" y2="325.1032" gradientTransform="matrix(0.7071 -0.7071 0.7071 0.7071 -156.1568 -11.3103)">
				<stop  offset="0" style="stop-color:#E001FF"/>
				<stop  offset="1" style="stop-color:#3239FF"/>
			</linearGradient>
			<path fill="url(#SVGID_7_)" d="M243.58,125.04L36.553,332.067c-19.16,19.16-50.224,19.16-69.383,0L-239.858,125.04
				c-19.16-19.16-19.16-50.224,0-69.383L-32.83-151.371c19.16-19.16,50.223-19.16,69.383,0L243.58,55.657
				C262.74,74.816,262.74,105.88,243.58,125.04z"/>
			
				<linearGradient id="SVGID_8_" gradientUnits="userSpaceOnUse" x1="-308.07" y1="318.0959" x2="107.0404" y2="600.4379" gradientTransform="matrix(0.7071 -0.7071 0.7071 0.7071 -156.1568 -11.3103)">
				<stop  offset="0" style="stop-color:#FF2F7F"/>
				<stop  offset="0.1584" style="stop-color:#FF3879"/>
				<stop  offset="0.4112" style="stop-color:#FF4F6A"/>
				<stop  offset="0.7249" style="stop-color:#FF7450"/>
				<stop  offset="1" style="stop-color:#FF9B36"/>
			</linearGradient>
			<path fill="url(#SVGID_8_)" d="M338.692,419.307L131.664,626.334c-19.16,19.16-50.224,19.16-69.383,0l-207.027-207.027
				c-19.16-19.16-19.16-50.224,0-69.383L62.281,142.896c19.16-19.16,50.223-19.16,69.383,0l207.027,207.027
				C357.851,369.083,357.851,400.147,338.692,419.307z"/>
			
				<linearGradient id="SVGID_9_" gradientUnits="userSpaceOnUse" x1="-429.8167" y1="170.7886" x2="-14.7062" y2="453.1306" gradientTransform="matrix(0.7071 -0.7071 0.7071 0.7071 -156.1568 -11.3103)">
				<stop  offset="0" style="stop-color:#FF2F7F"/>
				<stop  offset="0.1584" style="stop-color:#FF3879"/>
				<stop  offset="0.4112" style="stop-color:#FF4F6A"/>
				<stop  offset="0.7249" style="stop-color:#FF7450"/>
				<stop  offset="1" style="stop-color:#FF9B36"/>
			</linearGradient>
			<path fill="url(#SVGID_9_)" d="M148.443,401.232L-58.584,608.26c-19.16,19.16-50.224,19.16-69.383,0l-207.027-207.028
				c-19.16-19.16-19.16-50.223,0-69.383l207.027-207.027c19.16-19.16,50.224-19.16,69.383,0l207.027,207.027
				C167.603,351.009,167.603,382.072,148.443,401.232z"/>
			
				<linearGradient id="SVGID_10_" gradientUnits="userSpaceOnUse" x1="-255.5715" y1="608.3309" x2="15.3734" y2="792.617" gradientTransform="matrix(0.7071 -0.7071 0.7071 0.7071 -156.1568 -11.3103)">
				<stop  offset="0" style="stop-color:#FFD531"/>
				<stop  offset="1" style="stop-color:#FF8300"/>
			</linearGradient>
			<path fill="url(#SVGID_10_)" d="M411.642,591.628L276.514,726.756c-12.506,12.506-32.781,12.506-45.287,0L96.1,591.628
				c-12.506-12.506-12.506-32.781,0-45.287l135.128-135.128c12.506-12.506,32.781-12.506,45.287,0l135.128,135.128
				C424.148,558.847,424.148,579.122,411.642,591.628z"/>
			
				<linearGradient id="SVGID_11_" gradientUnits="userSpaceOnUse" x1="-227.4199" y1="140.7082" x2="43.525" y2="324.9943" gradientTransform="matrix(0.7071 -0.7071 0.7071 0.7071 -156.1568 -11.3103)">
				<stop  offset="0" style="stop-color:#3239FF"/>
				<stop  offset="1" style="stop-color:#68C5FF"/>
			</linearGradient>
			<path fill="url(#SVGID_11_)" d="M100.892,241.066L-34.236,376.194c-12.506,12.506-32.781,12.506-45.287,0L-214.65,241.066
				c-12.506-12.506-12.506-32.781,0-45.287L-79.522,60.651c12.506-12.506,32.781-12.506,45.287,0l135.128,135.128
				C113.398,208.284,113.398,228.56,100.892,241.066z"/>
			
				<linearGradient id="SVGID_12_" gradientUnits="userSpaceOnUse" x1="288.4402" y1="483.4556" x2="919.2103" y2="483.4556" gradientTransform="matrix(-0.1646 -0.8354 0.8354 0.1646 224.8277 381.9963)">
				<stop  offset="0" style="stop-color:#FF2F7F"/>
				<stop  offset="0.1584" style="stop-color:#FF3879"/>
				<stop  offset="0.4112" style="stop-color:#FF4F6A"/>
				<stop  offset="0.7249" style="stop-color:#FF7450"/>
				<stop  offset="1" style="stop-color:#FF9B36"/>
			</linearGradient>
			<path fill="url(#SVGID_12_)" d="M733.605-166.778L405.402,161.425c-21.225,21.225-55.638,21.225-76.863,0l-3.51-3.51
				c-21.225-21.225-21.225-55.637,0-76.863L653.232-247.15c21.225-21.225,55.638-21.225,76.862,0l3.51,3.51
				C754.83-222.415,754.83-188.003,733.605-166.778z"/>
			
				<linearGradient id="SVGID_13_" gradientUnits="userSpaceOnUse" x1="583.9553" y1="101.8983" x2="648.4517" y2="497.8769" gradientTransform="matrix(1 0 0 1 0.28 -342.89)">
				<stop  offset="0" style="stop-color:#FF2F7F"/>
				<stop  offset="0.1584" style="stop-color:#FF3879"/>
				<stop  offset="0.4112" style="stop-color:#FF4F6A"/>
				<stop  offset="0.7249" style="stop-color:#FF7450"/>
				<stop  offset="1" style="stop-color:#FF9B36"/>
			</linearGradient>
			<path fill="url(#SVGID_13_)" d="M817.601-186.38L489.398,141.823c-21.225,21.225-55.638,21.225-76.862,0l-3.51-3.51
				c-21.225-21.225-21.225-55.637,0-76.863l328.203-328.203c21.225-21.225,55.638-21.225,76.862,0l3.51,3.51
				C838.826-242.018,838.826-207.605,817.601-186.38z"/>
			
				<linearGradient id="SVGID_14_" gradientUnits="userSpaceOnUse" x1="381.812" y1="539.6332" x2="410.3351" y2="239.3898" gradientTransform="matrix(1 0 0 1 0.28 -342.89)">
				<stop  offset="0" style="stop-color:#E001FF"/>
				<stop  offset="1" style="stop-color:#3239FF"/>
			</linearGradient>
			<path fill="url(#SVGID_14_)" d="M539.269-156.37L328.5,54.399c-13.63,13.63-35.73,13.63-49.36,0l-2.254-2.254
				c-13.63-13.63-13.63-35.73,0-49.36l210.769-210.769c13.63-13.63,35.73-13.63,49.36,0l2.254,2.254
				C552.9-192.1,552.9-170.001,539.269-156.37z"/>
			
				<linearGradient id="SVGID_15_" gradientUnits="userSpaceOnUse" x1="-168.827" y1="-288.5417" x2="356.1906" y2="-288.5417" gradientTransform="matrix(0.1646 0.8354 -0.8354 -0.1646 3.9742 478.6374)">
				<stop  offset="0" style="stop-color:#E001FF"/>
				<stop  offset="1" style="stop-color:#3239FF"/>
			</linearGradient>
			<path fill="url(#SVGID_15_)" d="M90.405,707.533l273.177-273.177c17.667-17.667,46.309-17.667,63.976,0l2.922,2.922
				c17.666,17.666,17.666,46.309,0,63.976L157.302,774.431c-17.666,17.666-46.309,17.666-63.976,0l-2.922-2.922
				C72.738,753.843,72.738,725.2,90.405,707.533z"/>
		</g>
		<g>
			<g opacity="0.28">
				<g>
					<g>
						<g>
							<defs>
								<circle id="SVGID_16_" cx="117.788" cy="511.551" r="73.292"/>
							</defs>
							<clipPath id="SVGID_17_">
								<use xlink:href="#SVGID_16_"  overflow="visible"/>
							</clipPath>
							<g clip-path="url(#SVGID_17_)">
								
									<rect x="108.248" y="230.495" transform="matrix(0.7071 0.7071 -0.7071 0.7071 320.7964 42.0076)" fill="#FFFFFF" width="2.886" height="355.488"/>
								
									<rect x="108.247" y="244.345" transform="matrix(0.7071 0.7071 -0.7071 0.7071 330.5897 46.0645)" fill="#FFFFFF" width="2.886" height="355.488"/>
								
									<rect x="108.266" y="258.208" transform="matrix(0.7071 0.7071 -0.7071 0.7071 340.3968 50.1111)" fill="#FFFFFF" width="2.886" height="355.487"/>
								
									<rect x="108.256" y="272.052" transform="matrix(0.7071 0.7071 -0.7071 0.7071 350.1832 54.1728)" fill="#FFFFFF" width="2.886" height="355.487"/>
								
									<rect x="108.256" y="285.902" transform="matrix(0.7071 0.7071 -0.7071 0.7071 359.977 58.2296)" fill="#FFFFFF" width="2.886" height="355.487"/>
								
									<rect x="108.245" y="299.745" transform="matrix(0.7071 0.7071 -0.7071 0.7071 369.7627 62.2921)" fill="#FFFFFF" width="2.886" height="355.488"/>
								
									<rect x="108.245" y="313.595" transform="matrix(0.7071 0.7071 -0.7071 0.7071 379.5556 66.3484)" fill="#FFFFFF" width="2.886" height="355.488"/>
								
									<rect x="108.244" y="327.445" transform="matrix(0.7071 0.7071 -0.7071 0.7071 389.3493 70.4057)" fill="#FFFFFF" width="2.886" height="355.488"/>
								
									<rect x="108.245" y="341.295" transform="matrix(0.7071 0.7071 -0.7071 0.7071 399.1422 74.4618)" fill="#FFFFFF" width="2.886" height="355.487"/>
								
									<rect x="108.244" y="355.145" transform="matrix(0.7071 0.7071 -0.7071 0.7071 408.9355 78.5188)" fill="#FFFFFF" width="2.886" height="355.487"/>
								
									<rect x="108.243" y="368.995" transform="matrix(0.7071 0.7071 -0.7071 0.7071 418.7289 82.5766)" fill="#FFFFFF" width="2.886" height="355.488"/>
								
									<rect x="108.255" y="382.852" transform="matrix(0.7071 0.7071 -0.7071 0.7071 428.5312 86.6266)" fill="#FFFFFF" width="2.886" height="355.488"/>
								
									<rect x="108.254" y="396.704" transform="matrix(0.7071 0.7071 -0.7071 0.7071 438.3248 90.6841)" fill="#FFFFFF" width="2.886" height="355.487"/>
								
									<rect x="108.242" y="410.544" transform="matrix(0.7071 0.7071 -0.7071 0.7071 448.1084 94.7466)" fill="#FFFFFF" width="2.886" height="355.488"/>
								
									<rect x="108.254" y="424.402" transform="matrix(0.7071 0.7071 -0.7071 0.7071 457.9109 98.7968)" fill="#FFFFFF" width="2.886" height="355.487"/>
								
									<rect x="108.241" y="438.245" transform="matrix(0.7071 0.7071 -0.7071 0.7071 467.6953 102.8606)" fill="#FFFFFF" width="2.886" height="355.487"/>
								
									<rect x="108.24" y="452.094" transform="matrix(0.7071 0.7071 -0.7071 0.7071 477.4879 106.9174)" fill="#FFFFFF" width="2.886" height="355.488"/>
							</g>
						</g>
					</g>
				</g>
			</g>
			<g opacity="0.2">
				<g>
					<g>
						<g>
							<defs>
								<circle id="SVGID_18_" cx="750" cy="150.451" r="73.292"/>
							</defs>
							<clipPath id="SVGID_19_">
								<use xlink:href="#SVGID_18_"  overflow="visible"/>
							</clipPath>
							<g clip-path="url(#SVGID_19_)">
								
									<rect x="740.451" y="-130.57" transform="matrix(0.7071 0.7071 -0.7071 0.7071 250.6525 -510.7815)" fill="#FFFFFF" width="2.886" height="355.487"/>
								
									<rect x="740.45" y="-116.72" transform="matrix(0.7071 0.7071 -0.7071 0.7071 260.4456 -506.7244)" fill="#FFFFFF" width="2.886" height="355.487"/>
								
									<rect x="740.464" y="-102.881" transform="matrix(0.7071 0.7071 -0.7071 0.7071 270.2351 -502.6804)" fill="#FFFFFF" width="2.886" height="355.488"/>
								
									<rect x="740.464" y="-89.031" transform="matrix(0.7071 0.7071 -0.7071 0.7071 280.0286 -498.6244)" fill="#FFFFFF" width="2.886" height="355.487"/>
								
									<rect x="740.463" y="-75.181" transform="matrix(0.7071 0.7071 -0.7071 0.7071 289.822 -494.5668)" fill="#FFFFFF" width="2.886" height="355.487"/>
								
									<rect x="740.448" y="-61.32" transform="matrix(0.7071 0.7071 -0.7071 0.7071 299.6187 -490.4966)" fill="#FFFFFF" width="2.886" height="355.488"/>
								
									<rect x="740.464" y="-47.481" transform="matrix(0.7071 0.7071 -0.7071 0.7071 309.4088 -486.4542)" fill="#FFFFFF" width="2.886" height="355.487"/>
								
									<rect x="740.448" y="-33.62" transform="matrix(0.7071 0.7071 -0.7071 0.7071 319.2052 -482.3831)" fill="#FFFFFF" width="2.886" height="355.487"/>
								
									<rect x="740.447" y="-19.771" transform="matrix(0.7071 0.7071 -0.7071 0.7071 328.9982 -478.3259)" fill="#FFFFFF" width="2.886" height="355.488"/>
								
									<rect x="740.447" y="-5.921" transform="matrix(0.7071 0.7071 -0.7071 0.7071 338.7913 -474.2695)" fill="#FFFFFF" width="2.886" height="355.488"/>
								
									<rect x="740.446" y="7.929" transform="matrix(0.7071 0.7071 -0.7071 0.7071 348.5848 -470.212)" fill="#FFFFFF" width="2.886" height="355.488"/>
								
									<rect x="740.478" y="21.76" transform="matrix(0.7071 0.7071 -0.7071 0.7071 358.374 -466.1844)" fill="#FFFFFF" width="2.886" height="355.487"/>
								
									<rect x="740.479" y="35.611" transform="matrix(0.7071 0.7071 -0.7071 0.7071 368.1683 -462.1277)" fill="#FFFFFF" width="2.886" height="355.487"/>
								
									<rect x="740.445" y="49.48" transform="matrix(0.7071 0.7071 -0.7071 0.7071 377.9646 -458.0417)" fill="#FFFFFF" width="2.886" height="355.487"/>
								
									<rect x="740.444" y="63.33" transform="matrix(0.7071 0.7071 -0.7071 0.7071 387.7581 -453.985)" fill="#FFFFFF" width="2.886" height="355.487"/>
								
									<rect x="740.443" y="77.179" transform="matrix(0.7071 0.7071 -0.7071 0.7071 397.551 -449.9277)" fill="#FFFFFF" width="2.886" height="355.488"/>
								
									<rect x="740.443" y="91.029" transform="matrix(0.7071 0.7071 -0.7071 0.7071 407.3442 -445.8706)" fill="#FFFFFF" width="2.886" height="355.488"/>
							</g>
						</g>
					</g>
				</g>
			</g>
			<path fill="#536BE6" d="M438.378,454.333c-25.221,0-45.667,20.446-45.667,45.667s20.446,45.667,45.667,45.667
				s45.667-20.446,45.667-45.667S463.599,454.333,438.378,454.333z M438.378,522.248c-12.287,0-22.248-9.961-22.248-22.248
				s9.96-22.248,22.248-22.248c12.287,0,22.248,9.961,22.248,22.248S450.665,522.248,438.378,522.248z"/>
			<g>
				<g>
					<g>
						<path fill="#FFFFFF" d="M133.891,77.561c0-1.362,1.107-2.461,2.47-2.461c1.356,0,2.464,1.099,2.464,2.461
							c0,1.363-1.107,2.457-2.464,2.457C134.998,80.018,133.891,78.924,133.891,77.561z"/>
					</g>
					<g>
						<path fill="#FFFFFF" d="M112.863,77.561c0-1.362,1.1-2.461,2.463-2.461c1.361,0,2.462,1.099,2.462,2.461
							c0,1.363-1.101,2.457-2.462,2.457C113.963,80.018,112.863,78.924,112.863,77.561z"/>
					</g>
					<g>
						<path fill="#FFFFFF" d="M133.891,61.833c0-1.357,1.107-2.462,2.47-2.462c1.356,0,2.464,1.104,2.464,2.462
							c0,1.364-1.107,2.462-2.464,2.462C134.998,64.295,133.891,63.197,133.891,61.833z"/>
					</g>
					<g>
						<path fill="#FFFFFF" d="M112.863,61.833c0-1.357,1.1-2.462,2.463-2.462c1.361,0,2.462,1.104,2.462,2.462
							c0,1.364-1.101,2.462-2.462,2.462C113.963,64.295,112.863,63.197,112.863,61.833z"/>
					</g>
					<g>
						<path fill="#FFFFFF" d="M133.891,45.347c0-1.358,1.107-2.462,2.47-2.462c1.356,0,2.464,1.104,2.464,2.462
							c0,1.359-1.107,2.462-2.464,2.462C134.998,47.809,133.891,46.706,133.891,45.347z"/>
					</g>
					<g>
						<path fill="#FFFFFF" d="M112.863,45.347c0-1.358,1.1-2.462,2.463-2.462c1.361,0,2.462,1.104,2.462,2.462
							c0,1.359-1.101,2.462-2.462,2.462C113.963,47.809,112.863,46.706,112.863,45.347z"/>
					</g>
					<g>
						<path fill="#FFFFFF" d="M93.536,77.561c0-1.362,1.101-2.461,2.464-2.461c1.364,0,2.461,1.099,2.461,2.461
							c0,1.363-1.097,2.457-2.461,2.457C94.637,80.018,93.536,78.924,93.536,77.561z"/>
					</g>
					<g>
						<path fill="#FFFFFF" d="M72.506,77.561c0-1.362,1.101-2.461,2.462-2.461c1.356,0,2.466,1.099,2.466,2.461
							c0,1.363-1.109,2.457-2.466,2.457C73.606,80.018,72.506,78.924,72.506,77.561z"/>
					</g>
					<g>
						<path fill="#FFFFFF" d="M93.536,61.833c0-1.357,1.101-2.462,2.464-2.462c1.364,0,2.461,1.104,2.461,2.462
							c0,1.364-1.097,2.462-2.461,2.462C94.637,64.295,93.536,63.197,93.536,61.833z"/>
					</g>
					<g>
						<path fill="#FFFFFF" d="M72.506,61.833c0-1.357,1.101-2.462,2.462-2.462c1.356,0,2.466,1.104,2.466,2.462
							c0,1.364-1.109,2.462-2.466,2.462C73.606,64.295,72.506,63.197,72.506,61.833z"/>
					</g>
					<g>
						<path fill="#FFFFFF" d="M93.536,45.347c0-1.358,1.101-2.462,2.464-2.462c1.364,0,2.461,1.104,2.461,2.462
							c0,1.359-1.097,2.462-2.461,2.462C94.637,47.809,93.536,46.706,93.536,45.347z"/>
					</g>
					<g>
						<path fill="#FFFFFF" d="M72.506,45.347c0-1.358,1.101-2.462,2.462-2.462c1.356,0,2.466,1.104,2.466,2.462
							c0,1.359-1.109,2.462-2.466,2.462C73.606,47.809,72.506,46.706,72.506,45.347z"/>
					</g>
				</g>
				<g>
					<circle fill="#FFFFFF" cx="84.79" cy="411.5" r="3.5"/>
					<circle fill="#FFFFFF" cx="98.461" cy="397.829" r="3.5"/>
					<circle fill="#FFFFFF" cx="112.132" cy="384.159" r="3.5"/>
				</g>
				<g>
					<g>
						<path fill="#FFFFFF" d="M540.501,134.061c0-1.362,1.107-2.461,2.47-2.461c1.356,0,2.464,1.099,2.464,2.461
							c0,1.363-1.107,2.457-2.464,2.457C541.609,136.518,540.501,135.424,540.501,134.061z"/>
					</g>
					<g>
						<path fill="#FFFFFF" d="M519.474,134.061c0-1.362,1.1-2.461,2.463-2.461c1.361,0,2.462,1.099,2.462,2.461
							c0,1.363-1.101,2.457-2.462,2.457C520.574,136.518,519.474,135.424,519.474,134.061z"/>
					</g>
					<g>
						<path fill="#FFFFFF" d="M540.501,118.333c0-1.357,1.107-2.462,2.47-2.462c1.356,0,2.464,1.104,2.464,2.462
							c0,1.364-1.107,2.462-2.464,2.462C541.609,120.795,540.501,119.697,540.501,118.333z"/>
					</g>
					<g>
						<path fill="#FFFFFF" d="M519.474,118.333c0-1.357,1.1-2.462,2.463-2.462c1.361,0,2.462,1.104,2.462,2.462
							c0,1.364-1.101,2.462-2.462,2.462C520.574,120.795,519.474,119.697,519.474,118.333z"/>
					</g>
					<g>
						<path fill="#FFFFFF" d="M540.501,101.847c0-1.358,1.107-2.462,2.47-2.462c1.356,0,2.464,1.104,2.464,2.462
							c0,1.359-1.107,2.462-2.464,2.462C541.609,104.309,540.501,103.206,540.501,101.847z"/>
					</g>
					<g>
						<path fill="#FFFFFF" d="M519.474,101.847c0-1.358,1.1-2.462,2.463-2.462c1.361,0,2.462,1.104,2.462,2.462
							c0,1.359-1.101,2.462-2.462,2.462C520.574,104.309,519.474,103.206,519.474,101.847z"/>
					</g>
					<g>
						<path fill="#FFFFFF" d="M500.147,134.061c0-1.362,1.1-2.461,2.464-2.461c1.364,0,2.461,1.099,2.461,2.461
							c0,1.363-1.097,2.457-2.461,2.457C501.247,136.518,500.147,135.424,500.147,134.061z"/>
					</g>
					<g>
						<path fill="#FFFFFF" d="M479.117,134.061c0-1.362,1.101-2.461,2.462-2.461c1.356,0,2.466,1.099,2.466,2.461
							c0,1.363-1.109,2.457-2.466,2.457C480.217,136.518,479.117,135.424,479.117,134.061z"/>
					</g>
					<g>
						<path fill="#FFFFFF" d="M500.147,118.333c0-1.357,1.1-2.462,2.464-2.462c1.364,0,2.461,1.104,2.461,2.462
							c0,1.364-1.097,2.462-2.461,2.462C501.247,120.795,500.147,119.697,500.147,118.333z"/>
					</g>
					<g>
						<path fill="#FFFFFF" d="M479.117,118.333c0-1.357,1.101-2.462,2.462-2.462c1.356,0,2.466,1.104,2.466,2.462
							c0,1.364-1.109,2.462-2.466,2.462C480.217,120.795,479.117,119.697,479.117,118.333z"/>
					</g>
					<g>
						<path fill="#FFFFFF" d="M500.147,101.847c0-1.358,1.1-2.462,2.464-2.462c1.364,0,2.461,1.104,2.461,2.462
							c0,1.359-1.097,2.462-2.461,2.462C501.247,104.309,500.147,103.206,500.147,101.847z"/>
					</g>
					<g>
						<path fill="#FFFFFF" d="M479.117,101.847c0-1.358,1.101-2.462,2.462-2.462c1.356,0,2.466,1.104,2.466,2.462
							c0,1.359-1.109,2.462-2.466,2.462C480.217,104.309,479.117,103.206,479.117,101.847z"/>
					</g>
				</g>
				<path fill="none" stroke="#68C5FF" stroke-width="2.3256" stroke-miterlimit="10" d="M673.196,542.756l-64.134-64.134
					c-5.903-5.904-5.903-15.475,0-21.378l0,0c5.904-5.903,15.475-5.904,21.378,0l64.134,64.134c5.903,5.904,5.903,15.475,0,21.378
					l0,0C688.671,548.66,679.1,548.659,673.196,542.756z"/>
				<path fill="none" stroke="#FF2F7F" stroke-width="2.3256" stroke-miterlimit="10" d="M636.098,575.699l-64.134-64.134
					c-5.904-5.903-5.904-15.474,0-21.378l0,0c5.904-5.904,15.475-5.904,21.378,0l64.134,64.134c5.903,5.904,5.903,15.475,0,21.378
					l0,0C651.573,581.603,642.002,581.603,636.098,575.699z"/>
				<path fill="#536BE6" d="M82.993,222.898c-25.221,0-45.667,20.446-45.667,45.667s20.446,45.667,45.667,45.667
					s45.667-20.446,45.667-45.667C128.659,243.344,108.214,222.898,82.993,222.898z M82.993,290.812
					c-12.287,0-22.248-9.961-22.248-22.248s9.961-22.248,22.248-22.248s22.248,9.961,22.248,22.248
					C105.24,280.852,95.28,290.812,82.993,290.812z"/>
				<path fill="#536BE6" d="M145.413,295.662c-5.128,0-9.285,4.157-9.285,9.285s4.157,9.285,9.285,9.285
					c5.128,0,9.285-4.157,9.285-9.285S150.541,295.662,145.413,295.662z M145.413,309.47c-2.498,0-4.523-2.025-4.523-4.523
					s2.025-4.523,4.523-4.523c2.498,0,4.523,2.025,4.523,4.523S147.911,309.47,145.413,309.47z"/>
				<path fill="#536BE6" d="M365.093,78.322c-7.865,0-14.241,6.376-14.241,14.241s6.376,14.241,14.241,14.241
					s14.241-6.376,14.241-14.241S372.958,78.322,365.093,78.322z M365.093,99.5c-3.832,0-6.938-3.106-6.938-6.938
					s3.106-6.938,6.938-6.938s6.938,3.106,6.938,6.938C372.03,96.394,368.924,99.5,365.093,99.5z"/>
				<path fill="#536BE6" d="M250.987,485.759c-7.865,0-14.241,6.376-14.241,14.241s6.376,14.241,14.241,14.241
					s14.241-6.376,14.241-14.241S258.852,485.759,250.987,485.759z M250.987,506.938c-3.832,0-6.938-3.106-6.938-6.938
					s3.106-6.938,6.938-6.938s6.938,3.106,6.938,6.938S254.818,506.938,250.987,506.938z"/>
				<path fill="#536BE6" d="M191.08-47.715c-25.221,0-45.667,20.446-45.667,45.667s20.446,45.667,45.667,45.667
					c25.221,0,45.667-20.446,45.667-45.667C236.746-27.27,216.301-47.715,191.08-47.715z M191.08,20.199
					c-12.287,0-22.248-9.96-22.248-22.248c0-12.287,9.961-22.248,22.248-22.248c12.287,0,22.248,9.961,22.248,22.248
					S203.367,20.199,191.08,20.199z"/>
				<g>
					<circle fill="#FFFFFF" cx="293.634" cy="199.193" r="2.376"/>
					<circle fill="#FFFFFF" cx="302.914" cy="189.913" r="2.376"/>
					<circle fill="#FFFFFF" cx="312.194" cy="180.632" r="2.376"/>
				</g>
				<g>
					<circle fill="#FFFFFF" cx="424.065" cy="335.167" r="2.376"/>
					<circle fill="#FFFFFF" cx="414.784" cy="325.887" r="2.376"/>
					<circle fill="#FFFFFF" cx="405.504" cy="316.607" r="2.376"/>
				</g>
				<path fill="#FFFFFF" d="M174.239,158.059h-4.965c-1.709,0-3.095-1.386-3.095-3.095V150c0-1.709-1.386-3.095-3.095-3.095h-2.854
					c-1.709,0-3.095,1.386-3.095,3.095v4.964c0,1.709-1.385,3.095-3.095,3.095h-4.964c-1.709,0-3.095,1.386-3.095,3.095v2.854
					c0,1.709,1.386,3.095,3.095,3.095h4.964c1.709,0,3.095,1.385,3.095,3.095v4.965c0,1.709,1.386,3.095,3.095,3.095h2.854
					c1.709,0,3.095-1.385,3.095-3.095v-4.965c0-1.709,1.385-3.095,3.095-3.095h4.965c1.709,0,3.095-1.386,3.095-3.095v-2.854
					C177.333,159.444,175.948,158.059,174.239,158.059z"/>
				<path fill="#FFFFFF" d="M370.765,442.149H365.8c-1.709,0-3.095-1.385-3.095-3.095v-4.965c0-1.709-1.386-3.095-3.095-3.095
					h-2.854c-1.709,0-3.095,1.385-3.095,3.095v4.965c0,1.709-1.385,3.095-3.095,3.095h-4.965c-1.709,0-3.095,1.386-3.095,3.095
					v2.854c0,1.709,1.386,3.095,3.095,3.095h4.965c1.709,0,3.095,1.385,3.095,3.095v4.964c0,1.709,1.386,3.095,3.095,3.095h2.854
					c1.709,0,3.095-1.386,3.095-3.095v-4.964c0-1.709,1.385-3.095,3.095-3.095h4.965c1.709,0,3.095-1.386,3.095-3.095v-2.854
					C373.86,443.535,372.474,442.149,370.765,442.149z"/>
				<path fill="#FFFFFF" d="M555.326,36.878h-3.22c-1.109,0-2.007-0.899-2.007-2.007v-3.22c0-1.109-0.899-2.007-2.007-2.007h-1.851
					c-1.109,0-2.007,0.899-2.007,2.007v3.22c0,1.109-0.899,2.007-2.007,2.007h-3.22c-1.109,0-2.007,0.899-2.007,2.007v1.851
					c0,1.109,0.899,2.007,2.007,2.007h3.22c1.109,0,2.007,0.899,2.007,2.007v3.22c0,1.109,0.899,2.007,2.007,2.007h1.851
					c1.109,0,2.007-0.899,2.007-2.007v-3.22c0-1.109,0.899-2.007,2.007-2.007h3.22c1.109,0,2.007-0.899,2.007-2.007v-1.851
					C557.333,37.777,556.435,36.878,555.326,36.878z"/>
			</g>
		</g>
	</g>
</g>
</svg>
