<?xml version="1.0" encoding="utf-8"?>
<!-- Generator: Adobe Illustrator 17.0.0, SVG Export Plug-In . SVG Version: 6.00 Build 0)  -->
<!DOCTYPE svg PUBLIC "-//W3C//DTD SVG 1.1//EN" "http://www.w3.org/Graphics/SVG/1.1/DTD/svg11.dtd">
<svg version="1.1" id="Calque_1" xmlns="http://www.w3.org/2000/svg" xmlns:xlink="http://www.w3.org/1999/xlink" x="0px" y="0px"
	 width="225px" height="108.594px" viewBox="0 0 225 108.594" enable-background="new 0 0 225 108.594" xml:space="preserve">
<path fill="#FFFFFF" stroke="#FFFFFF" stroke-width="5.6693" stroke-miterlimit="10" d="M89.294,16.9
	c0,1.15-0.369,2.093-1.108,2.832c-1.231,1.396-1.888,2.135-1.969,2.216c-0.492,0.821-0.985,2.954-1.477,6.401
	c-2.053,16.743-3.078,33.282-3.078,49.612c0,9.192,1.642,14.364,4.925,15.512v3.324c-0.985,2.05-2.504,3.077-4.556,3.077
	c-4.185,0-7.346-3.651-9.478-10.956c-1.561-5.17-2.34-10.587-2.34-16.249c0-12.392,0.328-22.732,0.985-31.023
	c-2.456,9.602-4.954,19.247-7.491,28.93C59.124,85.513,54.704,92.98,50.447,92.98c-4.83,0-9.086-4.389-12.768-13.172
	c-3.44-7.959-7.654-21.337-12.648-40.133c-0.492,5.583-0.737,11.285-0.737,17.112c0,12.064,0.318,20.805,0.953,26.222
	c0.08,0.985,0.535,2.566,1.368,4.74c0.833,2.175,1.25,3.878,1.25,5.109c0,2.708-2.258,4.062-6.77,4.062
	c-5.336,0-8.002-7.18-8.002-21.544c0-5.827,0.326-14.527,0.984-26.098c0.656-11.572,0.985-20.231,0.985-25.977
	c0-0.655-0.329-1.353-0.985-2.092c-0.658-0.739-0.984-1.435-0.984-2.093c0-4.595,4.103-6.894,12.31-6.894
	c1.887,0,4.143,1.191,6.771,3.57c0.247,2.545,0.656,6.401,1.231,11.572c0.82,7.223,2.75,16.784,5.786,28.683
	c4.021,15.348,7.51,23.021,10.465,23.021c0.655,0,1.518-1.271,2.585-3.816c2.05-4.925,4.062-11.86,6.032-20.805
	c1.477-7.141,2.956-14.28,4.433-21.421c0.655-3.364,1.847-8.206,3.569-14.527c1.724-4.677,5.335-7.017,10.834-7.017
	c1.969,0,4.349,0.453,7.141,1.355C87.612,13.988,89.294,15.342,89.294,16.9z"/>
<path fill="#FFFFFF" stroke="#FFFFFF" stroke-width="5.6693" stroke-miterlimit="10" d="M150.25,23.47
	c0,6.43-1.02,15.053-3.057,25.872c-1.49,7.606-4.274,16.935-8.35,27.989c-5.41,14.426-10.075,21.638-13.994,21.638
	c-3.921,0-6.979-0.588-9.173-1.764c-4.783-2.587-8.938-12.701-12.466-30.341c-1.96-11.916-3.96-23.832-5.998-35.75
	c-0.158-0.862-0.511-2.077-1.058-3.646c-0.393-0.391-0.764-0.823-1.117-1.293c-0.353-0.47-0.529-1.058-0.529-1.764
	c0-1.567,0.979-2.979,2.94-4.234c1.724-1.176,3.449-1.764,5.175-1.764c1.959,0,3.723,0.726,5.292,2.175
	c1.567,1.452,2.352,3.157,2.352,5.116c0,1.411-0.099,3.568-0.294,6.468c-0.197,2.901-0.294,5.057-0.294,6.468
	c0,6.43,0.979,14.152,2.94,23.167c3.605,16.778,6.545,25.166,8.82,25.166c1.488,0,2.94-1.215,4.351-3.645
	c3.684-6.192,7.016-15.601,9.996-28.224c2.899-12.072,4.351-22.03,4.351-29.871c0-1.803-0.57-3.155-1.705-4.057
	c-1.138-0.9-1.705-1.429-1.705-1.588c0-0.862,0.979-1.999,2.94-3.41c1.959-1.411,3.41-2.117,4.351-2.117
	c1.647,0,3.096,1.117,4.351,3.352C149.621,19.647,150.25,21.667,150.25,23.47z"/>
<g>
	<path fill="#FFFFFF" stroke="#FFFFFF" stroke-width="5.6693" stroke-miterlimit="10" d="M217.453,74.457
		c0,3.81-2.89,8.292-8.663,13.454c-5.162,4.791-9.8,7.803-13.917,9.03s-8.016,1.844-11.703,1.844
		c-9.708,0-17.297-3.071-22.764-9.214c-5.469-6.147-8.202-14.071-8.202-23.778c0-9.46,2.518-20.026,7.557-31.702
		c6.02-14.011,13.024-21.013,21.013-21.013c4.423,0,9.767,1.721,16.035,5.16c6.635,3.81,10.505,7.62,11.611,11.428
		c0.983,3.318,1.475,7.067,1.475,11.244c0,3.81-0.801,8.108-2.397,12.903c-1.965,6.147-4.423,9.214-7.372,9.214
		c-2.091,0-4.054-0.61-5.898-1.833c-2.212-1.344-3.318-2.993-3.318-4.951c0-0.121,0.553-1.528,1.659-4.216
		c0.613-1.223,0.922-4.584,0.922-10.085c0-4.521-0.184-7.456-0.553-8.802c-0.737-3.79-2.46-5.686-5.162-5.686
		c-6.022,0-10.689,5.207-14.007,15.62c-2.46,7.717-3.687,15.493-3.687,23.332c0,13.11,4.175,19.659,12.534,19.659
		c3.318,0,7.125-1.719,11.428-5.158c3.931-3.196,6.696-6.451,8.294-9.769c1.964-3.931,4.361-5.9,7.188-5.9
		c1.844,0,3.624,1.078,5.346,3.228C216.591,70.616,217.453,72.613,217.453,74.457z"/>
</g>
<g>
</g>
<g>
</g>
<g>
</g>
<g>
</g>
<g>
</g>
<g>
</g>
</svg>
