<?xml version="1.0" encoding="utf-8"?>
<!-- Generator: Adobe Illustrator 17.0.0, SVG Export Plug-In . SVG Version: 6.00 Build 0)  -->
<!DOCTYPE svg PUBLIC "-//W3C//DTD SVG 1.1//EN" "http://www.w3.org/Graphics/SVG/1.1/DTD/svg11.dtd">
<svg version="1.1" id="Calque_2" xmlns="http://www.w3.org/2000/svg" xmlns:xlink="http://www.w3.org/1999/xlink" x="0px" y="0px"
	 width="72px" height="49.125px" viewBox="0 0 72 49.125" enable-background="new 0 0 72 49.125" xml:space="preserve">
<path d="M47.617,38.945c2.251-4.994,4.361-10.05,6.596-15.049c1.228-2.746,2.354-5.535,3.595-8.275
	c0.592-1.309,1.006-2.709,1.677-3.983c0.625-1.185,1.347-2.745,1.579-4.074c0.164-0.942,0.345-2.056-0.429-2.815
	c-0.457-0.448-1.118-0.671-1.732-0.783c-0.484-0.088-1.539-0.072-1.676-0.703c-0.113-0.519-0.117-1.222,0.102-1.712
	c0.162-0.363,1.435-0.161,1.744-0.161c1.685,0,3.371,0,5.056,0c1.556,0,3.111-0.001,4.667-0.002c0.679-0.001,1.215-0.14,1.324,0.679
	c0.08,0.6,0.13,1.421-0.552,1.676c-0.508,0.19-1.096,0.287-1.622,0.44c-0.623,0.181-1.128,0.592-1.669,0.938
	c-1.045,0.668-1.655,2.322-2.141,3.392c-4.416,9.715-8.41,19.617-12.72,29.381c-1.043,2.363-2.105,4.72-3.097,7.107
	c-0.377,0.908-0.841,2.546-1.743,3.06c-1.343,0.766-1.845-1.142-2.261-1.971c-1.173-2.334-2.181-4.866-3.184-7.277
	c-1.097-2.636-2.358-5.235-3.372-7.903c-0.439-1.156-1.012-2.267-1.473-3.417c-0.088-0.219-0.457-1.387-0.708-1.347
	c-0.434,0.068-0.793,1.503-0.952,1.857c-1.203,2.681-2.518,5.337-3.797,7.985c-1.278,2.647-2.52,5.312-3.782,7.966
	c-0.578,1.215-1.055,2.589-1.799,3.711c-0.262,0.395-0.97,0.635-1.428,0.487c-0.637-0.206-0.934-1.122-1.173-1.668
	c-2.206-5.043-3.837-10.337-6.067-15.374c-1.089-2.461-2.012-5.029-2.976-7.543c-0.93-2.425-1.943-4.819-2.875-7.244
	c-0.967-2.517-1.946-5.048-2.997-7.53C7.25,7.653,6.87,6.356,6.058,5.398C5.082,4.245,4.104,4.059,2.694,3.8
	c-0.616-0.113-0.733-0.932-0.67-1.49c0.036-0.319,0.137-0.629,0.271-0.92c0.354,0,0.707,0,1.061,0c1.717,0,3.433,0,5.15,0
	c1.585,0,3.169,0,4.754-0.001c0.792,0,1.585-0.001,2.377-0.002c0.789-0.001,0.985,0.232,0.983,1.077
	c-0.001,0.193,0.041,1.322-0.345,1.323c-0.607,0-1.263,0.131-1.847,0.288c-1.288,0.344-1.926,1.235-1.619,2.537
	c0.656,2.777,2.022,5.397,3.11,8.026c1.086,2.623,2.22,5.242,3.227,7.895c0.958,2.523,2.169,4.943,3.111,7.473
	c1.124,3.019,2.423,6.069,3.788,8.987c1.351-2.369,2.356-4.944,3.555-7.394c1.237-2.529,2.314-5.135,3.551-7.664
	c0.346-0.708,0.432-1.024,0.078-1.741c-0.335-0.678-0.658-1.355-0.953-2.052c-0.619-1.463-1.246-2.922-1.875-4.38
	c-1.092-2.53-1.999-5.167-3.251-7.622c-0.598-1.172-1.13-2.261-2.022-3.228c-0.394-0.428-0.887-0.737-1.453-0.883
	c-0.862-0.222-1.359-0.243-1.429-1.267c-0.023-0.345,0.033-0.69,0.15-1.014c0.188-0.518,0.454-0.344,0.941-0.344
	c0.792,0,1.584,0,2.376,0c1.721,0,3.441,0,5.162,0c0.795,0,1.59,0,2.386,0c0.398,0,0.795,0,1.193,0
	c0.094,0.267,0.196,0.535,0.262,0.81c0.1,0.416-0.008,0.788-0.132,1.187C34.4,3.993,33.41,3.933,32.909,4.324
	c-0.964,0.754-0.245,2.4,0.135,3.292c0.568,1.332,1.163,2.659,1.689,4.007c0.37,0.949,0.842,1.848,1.203,2.803
	c0.189,0.501,0.454,0.963,0.674,1.451c0.164,0.364,0.238,0.857,0.591,1.098c1.306-2.547,2.58-5.112,3.844-7.681
	c0.523-1.062,1.031-2.175,1.244-3.327c0.285-1.546-0.726-1.955-1.989-2.316c-0.387-0.11-0.403-1.252-0.345-1.548
	c0.056-0.284,0.031-0.713,0.366-0.713c0.309,0,0.618,0,0.927,0c1.674,0,3.349,0,5.023,0c0.773,0,1.546-0.001,2.318-0.001
	c0.401,0,1.644-0.225,1.91,0.14c0.284,0.389,0.319,1.386,0.141,1.824c-0.215,0.528-1.04,0.649-1.557,0.785
	c-2.647,0.694-3.932,3.825-5.053,6.012c-1.276,2.49-2.509,5.002-3.787,7.494c-0.301,0.588-0.562,1.216-0.9,1.784
	c-0.367,0.617-0.444,0.823-0.142,1.494c0.642,1.424,1.295,2.829,1.907,4.265c0.532,1.249,1.121,2.489,1.71,3.713
	c0.631,1.313,1.129,2.692,1.767,3.996c0.567,1.158,1.195,2.318,1.658,3.522C46.414,36.862,47.041,39.042,47.617,38.945
	C47.793,38.553,47.39,38.983,47.617,38.945z"/>
</svg>
