<?xml version="1.0" encoding="utf-8"?>
<!-- Generator: Adobe Illustrator 17.0.0, SVG Export Plug-In . SVG Version: 6.00 Build 0)  -->
<!DOCTYPE svg PUBLIC "-//W3C//DTD SVG 1.1//EN" "http://www.w3.org/Graphics/SVG/1.1/DTD/svg11.dtd">
<svg version="1.1" xmlns="http://www.w3.org/2000/svg" xmlns:xlink="http://www.w3.org/1999/xlink" x="0px" y="0px"
	 width="164.25px" height="28px" viewBox="0 0 164.25 28" enable-background="new 0 0 164.25 28" xml:space="preserve">
<g id="Calque_1" display="none">
	<g display="inline">
		<path fill="#FFFFFF" d="M-4.998,63.88c0-32.865,0-65.729,0-98.617c58.36,0,116.731,0,175.146,0c0,32.857,0,65.737,0,98.617
			C111.789,63.88,53.402,63.88-4.998,63.88z M21.34,16.493c0.316,0.644,0.495,0.991,0.66,1.345c1.13,2.429,2.23,4.873,3.409,7.278
			c0.22,0.447,0.755,1.017,1.151,1.022c0.391,0.005,0.81-0.615,1.175-1.001c0.156-0.164,0.206-0.429,0.303-0.648
			c2.649-5.998,5.31-11.99,7.939-17.997c0.6-1.37,1.397-2.404,3.015-2.57c0.272-0.028,0.512-0.363,0.766-0.557
			c-0.298-0.168-0.593-0.475-0.895-0.481c-1.999-0.043-3.999-0.041-5.998-0.001c-0.309,0.006-0.613,0.287-0.919,0.441
			c0.28,0.202,0.536,0.527,0.843,0.585c1.668,0.318,1.946,0.739,1.31,2.249c-2.017,4.79-4.045,9.575-6.075,14.359
			c-0.149,0.35-0.339,0.682-0.535,1.071c-0.192-0.148-0.319-0.197-0.363-0.287c-1.292-2.617-2.591-5.231-3.837-7.87
			c-0.141-0.3-0.098-0.807,0.063-1.11c1.314-2.47,2.644-4.933,4.052-7.351c0.265-0.454,0.902-0.687,1.355-1.037
			c0.247-0.191,0.469-0.413,0.702-0.621c-0.272-0.151-0.54-0.425-0.816-0.433c-1.519-0.043-3.04-0.045-4.558-0.001
			c-0.331,0.01-0.656,0.263-0.983,0.403c0.306,0.229,0.585,0.593,0.924,0.662c1.064,0.219,1.193,0.79,0.774,1.652
			c-0.437,0.899-0.88,1.795-1.33,2.687c-0.418,0.829-0.847,1.651-1.396,2.717c-1.006-2.063-1.855-3.823-2.723-5.574
			c-0.4-0.807-0.385-1.362,0.689-1.52c0.232-0.034,0.422-0.359,0.631-0.55c-0.225-0.16-0.448-0.454-0.676-0.459
			c-1.839-0.039-3.679-0.036-5.518-0.008c-0.226,0.003-0.45,0.228-0.674,0.35c0.175,0.223,0.319,0.481,0.53,0.661
			c0.463,0.396,1.15,0.652,1.411,1.144c1.5,2.824,2.91,5.696,4.328,8.564c0.147,0.298,0.299,0.748,0.179,0.999
			c-1.112,2.334-2.283,4.641-3.483,7.049c-0.218-0.239-0.358-0.335-0.419-0.468c-2.398-5.234-4.789-10.472-7.181-15.709
			c-0.42-0.919-0.198-1.465,0.877-1.527c0.239-0.014,0.519,0.025,0.705-0.086c0.198-0.117,0.366-0.369,0.423-0.594
			c0.021-0.083-0.31-0.369-0.482-0.37C8.068,2.88,5.443,2.888,2.818,2.888C2.761,3.035,2.703,3.182,2.646,3.329
			c0.345,0.212,0.672,0.56,1.04,0.61c0.937,0.128,1.487,0.59,1.874,1.446c2.852,6.302,5.719,12.598,8.634,18.871
			c0.342,0.735,1.004,1.322,1.517,1.978c0.559-0.63,1.262-1.183,1.651-1.905C18.703,21.836,19.935,19.284,21.34,16.493z
			 M158.039,26.079c0,0.002,0,0.004,0,0.006c1.24,0,2.48,0.024,3.718-0.021c0.237-0.009,0.463-0.294,0.695-0.451
			c-0.201-0.197-0.388-0.55-0.604-0.568c-1.665-0.136-2.363-1.215-2.891-2.634c-2.258-6.071-4.559-12.127-6.885-18.173
			c-0.177-0.46-0.671-0.799-1.018-1.194c-0.385,0.36-0.79,0.701-1.145,1.088c-0.154,0.168-0.206,0.429-0.3,0.65
			c-2.435,5.7-4.878,11.396-7.299,17.102c-0.662,1.56-1.377,3.008-3.361,3.169c-0.181,0.015-0.46,0.352-0.465,0.545
			c-0.004,0.161,0.326,0.471,0.512,0.474c2.279,0.033,4.558,0.032,6.837-0.002c0.183-0.003,0.362-0.319,0.543-0.49
			c-0.177-0.182-0.325-0.421-0.538-0.529c-0.199-0.101-0.471-0.051-0.707-0.09c-1.4-0.229-1.741-0.762-1.25-2.064
			c0.55-1.459,1.096-2.925,1.764-4.331c0.195-0.41,0.792-0.868,1.223-0.886c2.196-0.092,4.398-0.069,6.597-0.022
			c0.307,0.007,0.773,0.307,0.882,0.583c0.688,1.748,1.311,3.522,1.922,5.299c0.244,0.712-0.079,1.163-0.806,1.311
			c-0.352,0.071-0.732,0.05-1.059,0.176c-0.283,0.109-0.509,0.365-0.76,0.557c0.266,0.166,0.527,0.464,0.8,0.476
			C155.638,26.109,156.839,26.079,158.039,26.079z M111.387,17.877c0,1.638,0.004,3.276-0.001,4.914
			c-0.006,1.774-0.014,1.759-1.754,2.232c-0.241,0.066-0.421,0.361-0.629,0.55c0.223,0.17,0.445,0.489,0.668,0.488
			c3.314-0.007,6.64,0.108,9.937-0.147c2.814-0.218,5.004-1.713,5.95-4.511c1.609-4.756-0.081-11.406-7.915-11.555
			c-2.516-0.048-5.034-0.022-7.55,0.019c-0.362,0.006-0.719,0.285-1.078,0.437c0.343,0.237,0.677,0.66,1.03,0.676
			c1.036,0.046,1.387,0.495,1.356,1.504C111.346,14.28,111.386,16.079,111.387,17.877z M52.845,17.532
			c0-1.794,0.039-3.184-0.013-4.571c-0.039-1.041,0.136-1.813,1.371-1.969c0.244-0.031,0.439-0.44,0.657-0.674
			c-0.277-0.155-0.551-0.436-0.832-0.443c-1.759-0.044-3.519-0.052-5.278-0.01c-0.366,0.009-0.726,0.278-1.088,0.427
			c0.338,0.24,0.658,0.65,1.019,0.689c1.06,0.115,1.419,0.626,1.407,1.661c-0.038,3.439-0.043,6.88,0.008,10.318
			c0.018,1.218-0.418,1.875-1.65,2.05c-0.289,0.041-0.531,0.417-0.794,0.639c0.282,0.149,0.562,0.421,0.846,0.426
			c1.839,0.034,3.679,0.027,5.518-0.015c0.288-0.007,0.571-0.262,0.856-0.402c-0.215-0.233-0.406-0.496-0.651-0.692
			c-0.415-0.333-1.215-0.6-1.238-0.938c-0.125-1.797-0.059-3.607-0.059-5.749c0.71,0.435,1.168,0.645,1.535,0.961
			c0.358,0.309,0.66,0.702,0.923,1.1c1.201,1.811,3.138,3.111,3.717,5.363c0.042,0.161,0.441,0.319,0.678,0.326
			c1.199,0.036,2.4,0.044,3.598,0.006c0.254-0.008,0.502-0.246,0.752-0.378c-0.206-0.237-0.372-0.535-0.626-0.699
			c-0.656-0.423-1.507-0.648-2.001-1.201c-1.652-1.846-3.164-3.817-4.769-5.706c-0.556-0.655-0.504-1.186,0.035-1.785
			c0.669-0.743,1.314-1.507,1.961-2.268c1.244-1.463,2.388-3.059,4.609-3.095c0.168-0.003,0.33-0.426,0.494-0.654
			c-0.212-0.129-0.422-0.366-0.636-0.371c-1.679-0.036-3.359-0.045-5.038-0.013c-0.249,0.005-0.566,0.22-0.706,0.433
			c-0.066,0.101,0.161,0.555,0.346,0.631c1.146,0.473,0.766,1.188,0.252,1.798c-1.081,1.281-2.207,2.528-3.381,3.724
			C54.28,16.848,53.689,17.045,52.845,17.532z M97.721,17c0-1.733-0.048-3.29,0.038-4.839c0.019-0.334,0.475-0.852,0.81-0.928
			c2.94-0.666,4.494,0.027,6.05,2.544c0.119,0.193,0.415,0.276,0.629,0.41c0.112-0.259,0.335-0.526,0.315-0.775
			c-0.067-0.834-0.292-1.659-0.32-2.492c-0.031-0.917-0.448-1.102-1.285-1.091c-3.355,0.043-6.712,0.001-10.067,0.039
			c-0.438,0.005-0.873,0.289-1.309,0.444c0.387,0.236,0.752,0.617,1.165,0.679c0.825,0.123,1.196,0.474,1.192,1.32
			c-0.018,3.676-0.015,7.351-0.006,11.027c0.002,0.964-0.474,1.442-1.391,1.649c-0.351,0.079-0.648,0.4-0.97,0.61
			c0.387,0.16,0.773,0.455,1.161,0.458c2.876,0.022,5.753-0.029,8.629-0.026c3.226,0.003,3.236,0.019,3.59-3.153
			c0.033-0.295-0.166-0.616-0.257-0.926c-0.245,0.196-0.622,0.344-0.715,0.596c-0.615,1.678-1.833,2.319-3.547,2.24
			c-0.797-0.037-1.623,0.11-2.388-0.052c-0.478-0.101-1.212-0.598-1.238-0.958c-0.127-1.816-0.058-3.646-0.058-5.515
			c0.437-0.036,0.749-0.087,1.06-0.084c1.285,0.011,2.77-0.346,3.026,1.624c0.018,0.138,0.347,0.236,0.531,0.352
			c0.12-0.217,0.337-0.432,0.342-0.653c0.03-1.194,0.027-2.389-0.012-3.583c-0.01-0.304-0.194-0.602-0.298-0.902
			c-0.224,0.232-0.556,0.426-0.65,0.702c-0.237,0.689-0.503,1.276-1.354,1.28C99.563,17.004,98.732,17,97.721,17z M81.956,19.671
			c1.729-0.201,3.355-0.177,4.848-0.612c2.313-0.675,3.527-2.964,3.244-5.512c-0.217-1.952-1.622-3.196-4.059-3.585
			c-0.315-0.05-0.635-0.097-0.953-0.099c-2.438-0.011-4.876-0.025-7.313,0.005c-0.288,0.004-0.572,0.272-0.858,0.418
			c0.258,0.23,0.511,0.65,0.776,0.657c1.314,0.038,1.544,0.776,1.529,1.904c-0.045,3.357-0.055,6.716,0.006,10.072
			c0.022,1.189-0.27,1.918-1.564,2.066c-0.284,0.033-0.526,0.432-0.787,0.662c0.327,0.142,0.651,0.398,0.981,0.406
			c1.837,0.043,3.677,0.05,5.514,0.008c0.356-0.008,0.706-0.286,1.058-0.439c-0.312-0.229-0.617-0.468-0.937-0.685
			c-0.489-0.331-1.375-0.605-1.416-0.978C81.859,22.472,81.956,20.957,81.956,19.671z M70.331,26.099
			c0.959,0,1.919,0.033,2.875-0.02c0.292-0.016,0.572-0.264,0.858-0.406c-0.254-0.227-0.489-0.624-0.764-0.653
			c-1.262-0.136-1.653-0.799-1.632-2.019c0.057-3.396,0.05-6.794,0.002-10.19c-0.016-1.105,0.281-1.744,1.486-1.838
			c0.316-0.025,0.601-0.437,0.9-0.672c-0.318-0.152-0.633-0.429-0.954-0.436c-1.877-0.042-3.756-0.042-5.633,0
			c-0.318,0.007-0.63,0.284-0.945,0.436c0.297,0.235,0.582,0.651,0.894,0.673c1.181,0.085,1.544,0.661,1.526,1.8
			c-0.053,3.356-0.016,6.713-0.019,10.07c-0.002,1.661-0.084,1.73-1.728,2.172c-0.263,0.071-0.454,0.408-0.679,0.622
			c0.272,0.154,0.538,0.424,0.817,0.44C68.331,26.132,69.332,26.099,70.331,26.099z M132.939,26.103c0-0.002,0-0.004,0-0.007
			c0.958,0,1.919,0.039,2.873-0.022c0.319-0.02,0.622-0.295,0.933-0.454c-0.274-0.213-0.531-0.579-0.825-0.611
			c-1.204-0.131-1.609-0.77-1.595-1.932c0.04-3.354,0.05-6.709-0.006-10.062c-0.02-1.225,0.228-2.02,1.647-2.057
			c0.259-0.007,0.508-0.44,0.761-0.677c-0.286-0.145-0.569-0.408-0.857-0.414c-1.916-0.039-3.833-0.043-5.749-0.003
			c-0.318,0.007-0.63,0.288-0.944,0.443c0.301,0.232,0.591,0.645,0.906,0.665c1.184,0.074,1.547,0.648,1.528,1.786
			c-0.054,3.273-0.02,6.548-0.021,9.823c-0.001,1.922-0.006,1.908-1.812,2.447c-0.24,0.072-0.41,0.376-0.612,0.572
			c0.26,0.168,0.513,0.465,0.782,0.481C130.941,26.138,131.941,26.103,132.939,26.103z M41.093,9.848c0-0.002,0-0.003,0-0.005
			c-0.879,0-1.761-0.043-2.635,0.02c-0.372,0.027-0.727,0.275-1.09,0.423c0.334,0.246,0.649,0.67,1.004,0.705
			c1.075,0.107,1.412,0.644,1.402,1.665c-0.035,3.476-0.044,6.952,0,10.428c0.015,1.187-0.455,1.771-1.623,1.927
			c-0.287,0.038-0.528,0.419-0.79,0.642c0.282,0.149,0.561,0.422,0.846,0.427c1.917,0.038,3.835,0.041,5.751-0.001
			c0.32-0.007,0.633-0.292,0.949-0.448c-0.269-0.216-0.52-0.586-0.812-0.622c-1.2-0.145-1.596-0.78-1.578-1.948
			c0.049-3.236,0.02-6.472,0.017-9.709c-0.002-1.842,0-1.827,1.767-2.412c0.238-0.079,0.398-0.394,0.594-0.6
			c-0.228-0.164-0.45-0.458-0.686-0.47C43.172,9.818,42.132,9.848,41.093,9.848z"/>
		<path d="M21.34,16.493c-1.405,2.791-2.637,5.343-3.978,7.836c-0.389,0.722-1.092,1.275-1.651,1.905
			c-0.514-0.656-1.176-1.242-1.517-1.978C11.279,17.983,8.412,11.687,5.56,5.385C5.173,4.529,4.623,4.067,3.686,3.939
			c-0.368-0.05-0.694-0.398-1.04-0.61c0.057-0.147,0.114-0.294,0.171-0.441c2.625,0,5.25-0.007,7.875,0.017
			c0.172,0.002,0.504,0.287,0.482,0.37C11.119,3.5,10.95,3.751,10.753,3.869c-0.186,0.111-0.466,0.072-0.705,0.086
			C8.974,4.017,8.752,4.563,9.171,5.482c2.392,5.237,4.783,10.475,7.181,15.709c0.061,0.132,0.201,0.229,0.419,0.468
			c1.201-2.408,2.372-4.714,3.483-7.049c0.12-0.251-0.032-0.701-0.179-0.999c-1.417-2.867-2.827-5.74-4.328-8.564
			c-0.261-0.491-0.948-0.747-1.411-1.144c-0.211-0.181-0.355-0.439-0.53-0.661c0.225-0.122,0.448-0.347,0.674-0.35
			C16.32,2.864,18.16,2.861,19.999,2.9c0.228,0.005,0.451,0.299,0.676,0.459c-0.209,0.191-0.399,0.516-0.631,0.55
			c-1.074,0.157-1.089,0.713-0.689,1.52c0.867,1.751,1.716,3.511,2.723,5.574c0.548-1.066,0.978-1.888,1.396-2.717
			c0.45-0.893,0.893-1.789,1.33-2.687c0.419-0.862,0.29-1.434-0.774-1.652c-0.339-0.07-0.618-0.433-0.924-0.662
			c0.328-0.141,0.652-0.394,0.983-0.403c1.518-0.044,3.04-0.042,4.558,0.001c0.276,0.008,0.544,0.282,0.816,0.433
			c-0.233,0.208-0.455,0.431-0.702,0.621c-0.453,0.35-1.091,0.583-1.355,1.037c-1.408,2.417-2.738,4.88-4.052,7.351
			c-0.161,0.303-0.205,0.81-0.063,1.11c1.246,2.639,2.546,5.252,3.837,7.87c0.044,0.09,0.171,0.139,0.363,0.287
			c0.195-0.389,0.386-0.721,0.535-1.071c2.029-4.785,4.058-9.569,6.075-14.359c0.636-1.51,0.358-1.931-1.31-2.249
			c-0.307-0.059-0.563-0.383-0.843-0.585c0.306-0.154,0.61-0.434,0.919-0.441c1.999-0.041,3.999-0.042,5.998,0.001
			c0.302,0.007,0.597,0.313,0.895,0.481c-0.255,0.193-0.495,0.529-0.766,0.557c-1.618,0.166-2.415,1.2-3.015,2.57
			c-2.629,6.007-5.289,11.999-7.939,17.997c-0.097,0.219-0.147,0.484-0.303,0.648c-0.365,0.386-0.784,1.006-1.175,1.001
			c-0.396-0.005-0.931-0.575-1.151-1.022c-1.18-2.405-2.279-4.849-3.409-7.278C21.835,17.484,21.656,17.136,21.34,16.493z"/>
		<path d="M158.039,26.079c-1.2,0-2.401,0.03-3.598-0.023c-0.273-0.012-0.534-0.31-0.8-0.476c0.251-0.191,0.477-0.448,0.76-0.557
			c0.327-0.126,0.708-0.105,1.059-0.176c0.727-0.148,1.05-0.599,0.806-1.311c-0.61-1.777-1.234-3.551-1.922-5.299
			c-0.109-0.276-0.575-0.576-0.882-0.583c-2.199-0.047-4.401-0.07-6.597,0.022c-0.43,0.018-1.028,0.476-1.223,0.886
			c-0.668,1.406-1.214,2.872-1.764,4.331c-0.491,1.302-0.15,1.835,1.25,2.064c0.236,0.039,0.508-0.011,0.707,0.09
			c0.214,0.109,0.362,0.347,0.538,0.529c-0.181,0.171-0.359,0.487-0.543,0.49c-2.279,0.034-4.558,0.035-6.837,0.002
			c-0.186-0.003-0.516-0.313-0.512-0.474c0.005-0.193,0.284-0.53,0.465-0.545c1.984-0.16,2.699-1.608,3.361-3.169
			c2.421-5.706,4.864-11.402,7.299-17.102c0.094-0.221,0.147-0.482,0.3-0.65c0.355-0.387,0.76-0.728,1.145-1.088
			c0.347,0.395,0.841,0.734,1.018,1.194c2.326,6.046,4.627,12.102,6.885,18.173c0.528,1.419,1.226,2.498,2.891,2.634
			c0.215,0.018,0.403,0.37,0.604,0.568c-0.231,0.158-0.458,0.443-0.695,0.451c-1.238,0.046-2.478,0.021-3.718,0.021
			C158.039,26.083,158.039,26.081,158.039,26.079z M153.546,15.948c-1.106-3.025-2.148-5.875-3.19-8.725
			c-0.106,0.01-0.211,0.02-0.317,0.029c-1.116,2.839-2.232,5.677-3.419,8.696C148.979,15.948,151.137,15.948,153.546,15.948z"/>
		<path d="M111.386,17.877c-0.001-1.798-0.04-3.597,0.015-5.393c0.031-1.009-0.32-1.458-1.356-1.504
			c-0.353-0.016-0.687-0.439-1.03-0.676c0.359-0.152,0.716-0.431,1.078-0.437c2.516-0.041,5.034-0.067,7.55-0.019
			c7.834,0.149,9.524,6.799,7.915,11.555c-0.946,2.798-3.137,4.293-5.95,4.511c-3.297,0.256-6.623,0.14-9.937,0.147
			c-0.222,0.001-0.445-0.318-0.668-0.488c0.208-0.189,0.387-0.484,0.629-0.55c1.739-0.473,1.747-0.458,1.754-2.232
			C111.391,21.154,111.387,19.516,111.386,17.877z M114.156,17.923c0,1.756,0.036,3.513-0.013,5.267
			c-0.033,1.172,0.557,1.73,1.626,1.766c1.07,0.036,2.157,0.019,3.214-0.132c2.103-0.3,3.4-1.585,3.718-3.66
			c0.21-1.367,0.268-2.786,0.172-4.166c-0.293-4.231-2.894-6.375-7.123-6.051c-1.114,0.086-1.66,0.51-1.615,1.707
			C114.203,14.41,114.153,16.167,114.156,17.923z"/>
		<path d="M52.845,17.532c0.843-0.487,1.435-0.684,1.823-1.08c1.174-1.196,2.3-2.443,3.381-3.724
			c0.514-0.609,0.894-1.324-0.252-1.798c-0.184-0.076-0.412-0.531-0.346-0.631c0.14-0.213,0.457-0.429,0.706-0.433
			c1.679-0.032,3.359-0.023,5.038,0.013c0.215,0.005,0.424,0.242,0.636,0.371c-0.165,0.228-0.326,0.651-0.494,0.654
			c-2.221,0.036-3.365,1.632-4.609,3.095c-0.647,0.762-1.293,1.526-1.961,2.268c-0.539,0.599-0.592,1.13-0.035,1.785
			c1.605,1.889,3.117,3.86,4.769,5.706c0.495,0.553,1.345,0.777,2.001,1.201c0.253,0.163,0.42,0.462,0.626,0.699
			c-0.25,0.132-0.498,0.37-0.752,0.378c-1.198,0.038-2.399,0.03-3.598-0.006c-0.237-0.007-0.637-0.165-0.678-0.326
			c-0.58-2.252-2.516-3.552-3.717-5.363c-0.264-0.398-0.565-0.791-0.923-1.1c-0.367-0.316-0.826-0.526-1.535-0.961
			c0,2.143-0.066,3.953,0.059,5.749c0.023,0.338,0.824,0.604,1.238,0.938c0.244,0.196,0.435,0.459,0.651,0.692
			c-0.285,0.14-0.568,0.396-0.856,0.402c-1.839,0.042-3.679,0.049-5.518,0.015c-0.285-0.005-0.564-0.278-0.846-0.426
			c0.264-0.222,0.505-0.598,0.794-0.639c1.232-0.175,1.668-0.831,1.65-2.05c-0.051-3.439-0.046-6.879-0.008-10.318
			c0.011-1.036-0.347-1.547-1.407-1.661c-0.36-0.039-0.68-0.449-1.019-0.689c0.363-0.149,0.722-0.418,1.088-0.427
			c1.759-0.042,3.519-0.034,5.278,0.01c0.281,0.007,0.555,0.288,0.832,0.443c-0.218,0.235-0.414,0.644-0.657,0.674
			c-1.235,0.156-1.41,0.928-1.371,1.969C52.884,14.349,52.845,15.739,52.845,17.532z"/>
		<path d="M97.721,17c1.011,0,1.842,0.003,2.674-0.001c0.851-0.004,1.117-0.592,1.354-1.28c0.095-0.276,0.427-0.471,0.65-0.702
			c0.104,0.301,0.288,0.599,0.298,0.902c0.039,1.193,0.041,2.389,0.012,3.583c-0.005,0.22-0.223,0.435-0.342,0.653
			c-0.184-0.116-0.513-0.214-0.531-0.352c-0.256-1.97-1.741-1.613-3.026-1.624c-0.312-0.003-0.624,0.048-1.06,0.084
			c0,1.869-0.069,3.699,0.058,5.515c0.025,0.361,0.76,0.857,1.238,0.958c0.765,0.162,1.59,0.015,2.388,0.052
			c1.714,0.08,2.932-0.561,3.547-2.24c0.092-0.252,0.469-0.4,0.715-0.596c0.091,0.309,0.29,0.63,0.257,0.926
			c-0.354,3.172-0.364,3.157-3.59,3.153c-2.876-0.003-5.753,0.049-8.629,0.026c-0.388-0.003-0.774-0.298-1.161-0.458
			c0.322-0.21,0.619-0.531,0.97-0.61c0.917-0.207,1.393-0.686,1.391-1.649c-0.009-3.676-0.012-7.351,0.006-11.027
			c0.004-0.846-0.367-1.197-1.192-1.32c-0.413-0.062-0.778-0.442-1.165-0.679c0.436-0.155,0.871-0.439,1.309-0.444
			c3.355-0.038,6.712,0.004,10.067-0.039c0.836-0.011,1.254,0.174,1.285,1.091c0.028,0.833,0.254,1.658,0.32,2.492
			c0.02,0.248-0.203,0.516-0.315,0.775c-0.214-0.134-0.51-0.217-0.629-0.41c-1.555-2.517-3.11-3.21-6.05-2.544
			c-0.335,0.076-0.791,0.594-0.81,0.928C97.673,13.71,97.721,15.267,97.721,17z"/>
		<path d="M81.956,19.671c0,1.286-0.097,2.801,0.068,4.287c0.041,0.373,0.927,0.646,1.416,0.978c0.32,0.217,0.625,0.456,0.937,0.685
			c-0.353,0.153-0.702,0.431-1.058,0.439c-1.837,0.042-3.677,0.035-5.514-0.008c-0.33-0.008-0.654-0.264-0.981-0.406
			c0.261-0.23,0.503-0.629,0.787-0.662c1.294-0.148,1.585-0.876,1.564-2.066c-0.061-3.357-0.051-6.715-0.006-10.072
			c0.015-1.128-0.214-1.866-1.529-1.904c-0.265-0.008-0.518-0.427-0.776-0.657c0.286-0.146,0.57-0.414,0.858-0.418
			c2.437-0.031,4.876-0.016,7.313-0.005c0.318,0.001,0.638,0.048,0.953,0.099c2.437,0.389,3.842,1.633,4.059,3.585
			c0.283,2.549-0.931,4.838-3.244,5.512C85.311,19.494,83.684,19.47,81.956,19.671z M81.923,14.836c-0.001,0-0.003,0-0.004,0
			c0,0.837-0.037,1.677,0.019,2.511c0.021,0.308,0.181,0.747,0.416,0.878c1.822,1.014,4.284-0.13,4.697-2.163
			c0.11-0.542,0.143-1.109,0.138-1.663c-0.024-2.658-1.201-3.686-3.84-3.447c-0.953,0.086-1.48,0.467-1.435,1.493
			C81.951,13.24,81.923,14.039,81.923,14.836z"/>
		<path d="M70.331,26.099c-0.999,0-1.999,0.033-2.995-0.021c-0.28-0.015-0.545-0.286-0.817-0.44
			c0.224-0.214,0.416-0.551,0.679-0.622c1.644-0.442,1.726-0.511,1.728-2.172c0.004-3.357-0.034-6.714,0.019-10.07
			c0.018-1.139-0.345-1.715-1.526-1.8c-0.313-0.023-0.597-0.438-0.894-0.673c0.315-0.152,0.627-0.429,0.945-0.436
			c1.877-0.042,3.756-0.042,5.633,0c0.321,0.007,0.636,0.284,0.954,0.436c-0.299,0.234-0.585,0.647-0.9,0.672
			c-1.205,0.094-1.501,0.733-1.486,1.838c0.048,3.396,0.055,6.794-0.002,10.19c-0.02,1.219,0.371,1.883,1.632,2.019
			c0.275,0.03,0.511,0.426,0.764,0.653c-0.286,0.142-0.565,0.39-0.858,0.406C72.25,26.131,71.29,26.099,70.331,26.099z"/>
		<path d="M132.939,26.103c-0.998,0-1.998,0.035-2.993-0.023c-0.269-0.016-0.522-0.313-0.782-0.481
			c0.202-0.196,0.373-0.5,0.612-0.572c1.806-0.539,1.811-0.525,1.812-2.447c0.001-3.274-0.033-6.549,0.021-9.823
			c0.019-1.138-0.344-1.712-1.528-1.786c-0.314-0.02-0.604-0.432-0.906-0.665c0.315-0.154,0.627-0.436,0.944-0.443
			c1.916-0.04,3.833-0.036,5.749,0.003c0.288,0.006,0.572,0.27,0.857,0.414c-0.253,0.237-0.501,0.67-0.761,0.677
			c-1.419,0.037-1.668,0.832-1.647,2.057c0.056,3.353,0.046,6.708,0.006,10.062c-0.014,1.162,0.391,1.801,1.595,1.932
			c0.294,0.032,0.551,0.399,0.825,0.611c-0.31,0.159-0.613,0.433-0.933,0.454c-0.954,0.061-1.915,0.022-2.873,0.022
			C132.939,26.099,132.939,26.101,132.939,26.103z"/>
		<path d="M41.093,9.848c1.039,0,2.079-0.03,3.115,0.022c0.236,0.012,0.458,0.306,0.686,0.47c-0.196,0.206-0.356,0.522-0.594,0.6
			c-1.768,0.585-1.769,0.57-1.767,2.412c0.003,3.236,0.032,6.473-0.017,9.709c-0.018,1.167,0.378,1.803,1.578,1.948
			c0.291,0.035,0.542,0.405,0.812,0.622c-0.316,0.156-0.63,0.441-0.949,0.448c-1.916,0.043-3.834,0.04-5.751,0.001
			c-0.285-0.006-0.564-0.278-0.846-0.427c0.262-0.223,0.503-0.603,0.79-0.642c1.168-0.157,1.638-0.74,1.623-1.927
			c-0.044-3.475-0.035-6.952,0-10.428c0.01-1.021-0.327-1.558-1.402-1.665c-0.354-0.035-0.67-0.459-1.004-0.705
			c0.363-0.148,0.719-0.396,1.09-0.423c0.874-0.063,1.756-0.02,2.635-0.02C41.093,9.845,41.093,9.846,41.093,9.848z"/>
		<path fill="#FFFFFF" d="M153.546,15.948c-2.409,0-4.567,0-6.926,0c1.187-3.019,2.303-5.857,3.419-8.696
			c0.106-0.01,0.211-0.02,0.317-0.029C151.398,10.072,152.44,12.922,153.546,15.948z"/>
		<path fill="#FFFFFF" d="M114.155,17.923c-0.001-1.756,0.048-3.514-0.019-5.267c-0.045-1.198,0.501-1.622,1.615-1.707
			c4.229-0.325,6.83,1.82,7.123,6.051c0.096,1.38,0.038,2.799-0.172,4.166c-0.319,2.075-1.616,3.36-3.718,3.66
			c-1.057,0.151-2.144,0.168-3.214,0.132c-1.069-0.036-1.658-0.594-1.626-1.766C114.192,21.436,114.156,19.679,114.155,17.923z"/>
		<path fill="#FFFFFF" d="M81.923,14.836c0-0.797,0.028-1.596-0.007-2.392c-0.045-1.026,0.482-1.407,1.435-1.493
			c2.639-0.238,3.815,0.79,3.84,3.447c0.005,0.555-0.028,1.121-0.138,1.663c-0.413,2.033-2.875,3.177-4.697,2.163
			c-0.235-0.131-0.395-0.57-0.416-0.878c-0.057-0.834-0.019-1.673-0.019-2.511C81.92,14.836,81.921,14.836,81.923,14.836z"/>
	</g>
</g>
<g id="Calque_2">
	<path d="M20.822,15.475c-1.405,2.791-2.637,5.343-3.978,7.836c-0.389,0.722-1.092,1.275-1.651,1.905
		c-0.514-0.656-1.176-1.242-1.517-1.978C10.761,16.965,7.894,10.67,5.042,4.368C4.655,3.512,4.105,3.05,3.168,2.922
		c-0.368-0.05-0.694-0.398-1.04-0.61C2.185,2.165,2.242,2.017,2.299,1.87c2.625,0,5.25-0.007,7.875,0.017
		c0.172,0.002,0.504,0.287,0.482,0.37c-0.057,0.225-0.225,0.476-0.423,0.594C10.048,2.962,9.769,2.924,9.53,2.938
		C8.455,3,8.234,3.546,8.653,4.465c2.392,5.237,4.783,10.475,7.181,15.709c0.061,0.132,0.201,0.229,0.419,0.468
		c1.201-2.408,2.372-4.714,3.483-7.049c0.12-0.251-0.032-0.701-0.179-0.999c-1.417-2.867-2.827-5.74-4.328-8.564
		c-0.261-0.491-0.948-0.747-1.411-1.144c-0.211-0.181-0.355-0.439-0.53-0.661c0.225-0.122,0.448-0.347,0.674-0.35
		c1.839-0.028,3.679-0.031,5.518,0.008c0.228,0.005,0.451,0.299,0.676,0.459c-0.209,0.191-0.399,0.516-0.631,0.55
		c-1.074,0.157-1.089,0.713-0.689,1.52c0.867,1.751,1.716,3.511,2.723,5.574c0.548-1.066,0.978-1.888,1.396-2.717
		c0.45-0.893,0.893-1.789,1.33-2.687c0.419-0.862,0.29-1.434-0.774-1.652c-0.339-0.07-0.618-0.433-0.924-0.662
		c0.328-0.141,0.652-0.394,0.983-0.403c1.518-0.044,3.04-0.042,4.558,0.001c0.276,0.008,0.544,0.282,0.816,0.433
		c-0.233,0.208-0.455,0.431-0.702,0.621c-0.453,0.35-1.091,0.583-1.355,1.037c-1.408,2.417-2.738,4.88-4.052,7.351
		c-0.161,0.303-0.205,0.81-0.063,1.11c1.246,2.639,2.546,5.252,3.837,7.87c0.044,0.09,0.171,0.139,0.363,0.287
		c0.195-0.389,0.386-0.721,0.535-1.071c2.029-4.785,4.058-9.569,6.075-14.359c0.636-1.51,0.358-1.931-1.31-2.249
		c-0.307-0.059-0.563-0.383-0.843-0.585c0.306-0.154,0.61-0.434,0.919-0.441c1.999-0.041,3.999-0.042,5.998,0.001
		c0.302,0.007,0.597,0.313,0.895,0.481c-0.255,0.193-0.495,0.529-0.766,0.557c-1.618,0.166-2.415,1.2-3.015,2.57
		c-2.629,6.007-5.289,11.999-7.939,17.997c-0.097,0.219-0.147,0.484-0.303,0.648c-0.365,0.386-0.784,1.006-1.175,1.001
		c-0.396-0.005-0.931-0.575-1.151-1.022c-1.18-2.405-2.279-4.849-3.409-7.278C21.317,16.467,21.138,16.119,20.822,15.475z"/>
	<path d="M157.52,25.061c-1.2,0-2.401,0.03-3.598-0.023c-0.273-0.012-0.534-0.31-0.8-0.476c0.251-0.191,0.477-0.448,0.76-0.557
		c0.327-0.126,0.708-0.105,1.059-0.176c0.727-0.148,1.05-0.599,0.806-1.311c-0.61-1.777-1.234-3.551-1.922-5.299
		c-0.109-0.276-0.575-0.576-0.882-0.583c-2.199-0.047-4.401-0.07-6.597,0.022c-0.43,0.018-1.028,0.476-1.223,0.886
		c-0.668,1.406-1.214,2.872-1.764,4.331c-0.491,1.302-0.15,1.835,1.25,2.064c0.236,0.039,0.508-0.011,0.707,0.09
		c0.214,0.109,0.362,0.347,0.538,0.529c-0.181,0.171-0.359,0.487-0.543,0.49c-2.279,0.034-4.558,0.035-6.837,0.002
		c-0.186-0.003-0.516-0.313-0.512-0.474c0.005-0.193,0.284-0.53,0.465-0.545c1.984-0.16,2.699-1.608,3.361-3.169
		c2.421-5.706,4.864-11.402,7.299-17.102c0.094-0.221,0.147-0.482,0.3-0.65c0.355-0.387,0.76-0.728,1.145-1.088
		c0.347,0.395,0.841,0.734,1.018,1.194c2.326,6.046,4.627,12.102,6.885,18.173c0.528,1.419,1.226,2.498,2.891,2.634
		c0.215,0.018,0.403,0.37,0.604,0.568c-0.231,0.158-0.458,0.443-0.695,0.451c-1.238,0.046-2.478,0.021-3.718,0.021
		C157.52,25.065,157.52,25.063,157.52,25.061z M153.028,14.93c-1.106-3.025-2.148-5.875-3.19-8.725
		c-0.106,0.01-0.211,0.02-0.317,0.029c-1.116,2.839-2.232,5.677-3.419,8.696C148.461,14.93,150.619,14.93,153.028,14.93z"/>
	<path d="M110.868,16.86c-0.001-1.798-0.04-3.597,0.015-5.393c0.031-1.009-0.32-1.458-1.356-1.504
		c-0.353-0.016-0.687-0.439-1.03-0.676c0.359-0.152,0.716-0.431,1.078-0.437c2.516-0.041,5.034-0.067,7.55-0.019
		c7.834,0.149,9.524,6.799,7.915,11.555c-0.946,2.798-3.137,4.293-5.95,4.511c-3.297,0.256-6.623,0.14-9.937,0.147
		c-0.222,0.001-0.445-0.318-0.668-0.488c0.208-0.189,0.387-0.484,0.629-0.55c1.739-0.473,1.747-0.458,1.754-2.232
		C110.873,20.136,110.869,18.498,110.868,16.86z M113.638,16.906c0,1.756,0.036,3.513-0.013,5.267
		c-0.033,1.172,0.557,1.73,1.626,1.766c1.07,0.036,2.157,0.019,3.214-0.132c2.103-0.3,3.4-1.585,3.718-3.66
		c0.21-1.367,0.268-2.786,0.172-4.166c-0.293-4.231-2.894-6.375-7.123-6.051c-1.114,0.086-1.66,0.51-1.615,1.707
		C113.684,13.392,113.635,15.15,113.638,16.906z"/>
	<path d="M52.327,16.515c0.843-0.487,1.435-0.684,1.823-1.08c1.174-1.196,2.3-2.443,3.381-3.724
		c0.514-0.609,0.894-1.324-0.252-1.798c-0.184-0.076-0.412-0.531-0.346-0.631c0.14-0.213,0.457-0.429,0.706-0.433
		c1.679-0.032,3.359-0.023,5.038,0.013c0.215,0.005,0.424,0.242,0.636,0.371c-0.165,0.228-0.326,0.651-0.494,0.654
		c-2.221,0.036-3.365,1.632-4.609,3.095c-0.647,0.762-1.293,1.526-1.961,2.268c-0.539,0.599-0.592,1.13-0.035,1.785
		c1.605,1.889,3.117,3.86,4.769,5.706c0.495,0.553,1.345,0.777,2.001,1.201c0.253,0.163,0.42,0.462,0.626,0.699
		c-0.25,0.132-0.498,0.37-0.752,0.378c-1.198,0.038-2.399,0.03-3.598-0.006c-0.237-0.007-0.637-0.165-0.678-0.326
		c-0.58-2.252-2.516-3.552-3.717-5.363c-0.264-0.398-0.565-0.791-0.923-1.1c-0.367-0.316-0.826-0.526-1.535-0.961
		c0,2.143-0.066,3.953,0.059,5.749c0.023,0.338,0.824,0.604,1.238,0.938c0.244,0.196,0.435,0.459,0.651,0.692
		c-0.285,0.14-0.568,0.396-0.856,0.402c-1.839,0.042-3.679,0.049-5.518,0.015c-0.285-0.005-0.564-0.278-0.846-0.426
		c0.264-0.222,0.505-0.598,0.794-0.639c1.232-0.175,1.668-0.831,1.65-2.05c-0.051-3.439-0.046-6.879-0.008-10.318
		c0.011-1.036-0.347-1.547-1.407-1.661c-0.36-0.039-0.68-0.449-1.019-0.689c0.363-0.149,0.722-0.418,1.088-0.427
		c1.759-0.042,3.519-0.034,5.278,0.01c0.281,0.007,0.555,0.288,0.832,0.443c-0.218,0.235-0.414,0.644-0.657,0.674
		c-1.235,0.156-1.41,0.928-1.371,1.969C52.366,13.331,52.327,14.721,52.327,16.515z"/>
	<path d="M97.203,15.983c1.011,0,1.842,0.003,2.674-0.001c0.851-0.004,1.117-0.592,1.354-1.28c0.095-0.276,0.427-0.471,0.65-0.702
		c0.104,0.301,0.288,0.599,0.298,0.902c0.039,1.193,0.041,2.389,0.012,3.583c-0.005,0.22-0.223,0.435-0.342,0.653
		c-0.184-0.116-0.513-0.214-0.531-0.352c-0.256-1.97-1.741-1.613-3.026-1.624c-0.312-0.003-0.624,0.048-1.06,0.084
		c0,1.869-0.069,3.699,0.058,5.515c0.025,0.361,0.76,0.857,1.238,0.958c0.765,0.162,1.59,0.015,2.388,0.052
		c1.714,0.08,2.932-0.561,3.547-2.24c0.092-0.252,0.469-0.4,0.715-0.596c0.091,0.309,0.29,0.63,0.257,0.926
		c-0.354,3.172-0.364,3.157-3.59,3.153c-2.876-0.003-5.753,0.049-8.629,0.026c-0.388-0.003-0.774-0.298-1.161-0.458
		c0.322-0.21,0.619-0.531,0.97-0.61c0.917-0.207,1.393-0.686,1.391-1.649c-0.009-3.676-0.012-7.351,0.006-11.027
		c0.004-0.846-0.367-1.197-1.192-1.32c-0.413-0.062-0.778-0.442-1.165-0.679c0.436-0.155,0.871-0.439,1.309-0.444
		c3.355-0.038,6.712,0.004,10.067-0.039c0.836-0.011,1.254,0.174,1.285,1.091c0.028,0.833,0.254,1.658,0.32,2.492
		c0.02,0.248-0.203,0.516-0.315,0.775c-0.214-0.134-0.51-0.217-0.629-0.41c-1.555-2.517-3.11-3.21-6.05-2.544
		c-0.335,0.076-0.791,0.594-0.81,0.928C97.155,12.693,97.203,14.249,97.203,15.983z"/>
	<path d="M81.437,18.654c0,1.286-0.097,2.801,0.068,4.287c0.041,0.373,0.927,0.646,1.416,0.978c0.32,0.217,0.625,0.456,0.937,0.685
		c-0.353,0.153-0.702,0.431-1.058,0.439c-1.837,0.042-3.677,0.035-5.514-0.008c-0.33-0.008-0.654-0.264-0.981-0.406
		c0.261-0.23,0.503-0.629,0.787-0.662c1.294-0.148,1.585-0.876,1.564-2.066c-0.061-3.357-0.051-6.715-0.006-10.072
		c0.015-1.128-0.214-1.866-1.529-1.904c-0.265-0.008-0.518-0.427-0.776-0.657c0.286-0.146,0.57-0.414,0.858-0.418
		c2.437-0.031,4.876-0.016,7.313-0.005c0.318,0.001,0.638,0.048,0.953,0.099c2.437,0.389,3.842,1.633,4.059,3.585
		c0.283,2.549-0.931,4.838-3.244,5.512C84.793,18.477,83.166,18.453,81.437,18.654z M81.404,13.819c-0.001,0-0.003,0-0.004,0
		c0,0.837-0.037,1.677,0.019,2.511c0.021,0.308,0.181,0.747,0.416,0.878c1.822,1.014,4.284-0.13,4.697-2.163
		c0.11-0.542,0.143-1.109,0.138-1.663c-0.024-2.658-1.201-3.686-3.84-3.447c-0.953,0.086-1.48,0.467-1.435,1.493
		C81.433,12.223,81.404,13.021,81.404,13.819z"/>
	<path d="M69.813,25.081c-0.999,0-1.999,0.033-2.995-0.021c-0.28-0.015-0.545-0.286-0.817-0.44c0.224-0.214,0.416-0.551,0.679-0.622
		c1.644-0.442,1.726-0.511,1.728-2.172c0.004-3.357-0.034-6.714,0.019-10.07c0.018-1.139-0.345-1.715-1.526-1.8
		c-0.313-0.023-0.597-0.438-0.894-0.673c0.315-0.152,0.627-0.429,0.945-0.436c1.877-0.042,3.756-0.042,5.633,0
		c0.321,0.007,0.636,0.284,0.954,0.436c-0.299,0.234-0.585,0.647-0.9,0.672c-1.205,0.094-1.501,0.733-1.486,1.838
		c0.048,3.396,0.055,6.794-0.002,10.19c-0.02,1.219,0.371,1.883,1.632,2.019c0.275,0.03,0.511,0.426,0.764,0.653
		c-0.286,0.142-0.565,0.39-0.858,0.406C71.732,25.114,70.771,25.081,69.813,25.081z"/>
	<path d="M132.421,25.086c-0.998,0-1.998,0.035-2.993-0.023c-0.269-0.016-0.522-0.313-0.782-0.481
		c0.202-0.196,0.373-0.5,0.612-0.572c1.806-0.539,1.811-0.525,1.812-2.447c0.001-3.274-0.033-6.549,0.021-9.823
		c0.019-1.138-0.344-1.712-1.528-1.786c-0.314-0.02-0.604-0.432-0.906-0.665c0.315-0.154,0.627-0.436,0.944-0.443
		c1.916-0.04,3.833-0.036,5.749,0.003c0.288,0.006,0.572,0.27,0.857,0.414c-0.253,0.237-0.501,0.67-0.761,0.677
		c-1.419,0.037-1.668,0.832-1.647,2.057c0.056,3.353,0.046,6.708,0.006,10.062c-0.014,1.162,0.391,1.801,1.595,1.932
		c0.294,0.032,0.551,0.399,0.825,0.611c-0.31,0.159-0.613,0.433-0.933,0.454c-0.954,0.061-1.915,0.022-2.873,0.022
		C132.421,25.081,132.421,25.083,132.421,25.086z"/>
	<path d="M40.575,8.83c1.039,0,2.079-0.03,3.115,0.022c0.236,0.012,0.458,0.306,0.686,0.47c-0.196,0.206-0.356,0.522-0.594,0.6
		c-1.768,0.585-1.769,0.57-1.767,2.412c0.003,3.236,0.032,6.473-0.017,9.709c-0.018,1.167,0.378,1.803,1.578,1.948
		c0.291,0.035,0.542,0.405,0.812,0.622c-0.316,0.156-0.63,0.441-0.949,0.448c-1.916,0.043-3.834,0.04-5.751,0.001
		c-0.285-0.006-0.564-0.278-0.846-0.427c0.262-0.223,0.503-0.603,0.79-0.642c1.168-0.157,1.638-0.74,1.623-1.927
		c-0.044-3.475-0.035-6.952,0-10.428c0.01-1.021-0.327-1.558-1.402-1.665c-0.354-0.035-0.67-0.459-1.004-0.705
		c0.363-0.148,0.719-0.396,1.09-0.423c0.874-0.063,1.756-0.02,2.635-0.02C40.575,8.827,40.575,8.829,40.575,8.83z"/>
</g>
</svg>
