<?xml version="1.0" encoding="UTF-8" standalone="no"?>
<!DOCTYPE svg PUBLIC "-//W3C//DTD SVG 1.1//EN"
 "http://www.w3.org/Graphics/SVG/1.1/DTD/svg11.dtd">
<!-- Generated by graphviz version 3.0.0 (20220226.1711)
 -->
<!-- Title: dependencies Pages: 1 -->
<svg width="2125pt" height="247pt"
 viewBox="0.00 0.00 2125.00 246.80" xmlns="http://www.w3.org/2000/svg" xmlns:xlink="http://www.w3.org/1999/xlink">
<g id="graph0" class="graph" transform="scale(1 1) rotate(0) translate(4 242.8)">
<title>dependencies</title>
<polygon fill="white" stroke="transparent" points="-4,4 -4,-242.8 2121,-242.8 2121,4 -4,4"/>
<text text-anchor="middle" x="1058.5" y="-8.2" font-family="sans-serif" font-size="14.00">dependencies</text>
<g id="clust1" class="cluster">
<title>cluster_AppModule</title>
<polygon fill="none" stroke="black" stroke-dasharray="1,5" points="8,-32.8 8,-230.8 2109,-230.8 2109,-32.8 8,-32.8"/>
</g>
<g id="clust2" class="cluster">
<title>cluster_AppModule_declarations</title>
<polygon fill="none" stroke="black" points="424,-40.8 424,-92.8 2101,-92.8 2101,-40.8 424,-40.8"/>
</g>
<g id="clust14" class="cluster">
<title>cluster_AppModule_imports</title>
<polygon fill="none" stroke="black" points="16,-40.8 16,-92.8 416,-92.8 416,-40.8 16,-40.8"/>
</g>
<g id="clust16" class="cluster">
<title>cluster_AppModule_bootstrap</title>
<polygon fill="none" stroke="black" points="930,-170.8 930,-222.8 1054,-222.8 1054,-170.8 930,-170.8"/>
</g>
<!-- AppComponent -->
<g id="node1" class="node">
<title>AppComponent</title>
<polygon fill="#ffffb3" stroke="black" points="2092.94,-84.8 1987.06,-84.8 1987.06,-48.8 2092.94,-48.8 2092.94,-84.8"/>
<text text-anchor="middle" x="2040" y="-62.6" font-family="Times,serif" font-size="14.00">AppComponent</text>
</g>
<!-- AppModule -->
<g id="node12" class="node">
<title>AppModule</title>
<polygon fill="#8dd3c7" stroke="black" points="1033.66,-149.8 1030.66,-153.8 1009.66,-153.8 1006.66,-149.8 950.34,-149.8 950.34,-113.8 1033.66,-113.8 1033.66,-149.8"/>
<text text-anchor="middle" x="992" y="-127.6" font-family="Times,serif" font-size="14.00">AppModule</text>
</g>
<!-- AppComponent&#45;&gt;AppModule -->
<g id="edge1" class="edge">
<title>AppComponent&#45;&gt;AppModule</title>
<path fill="none" stroke="black" d="M2040,-84.89C2040,-107.93 2040,-144.8 2040,-144.8 2040,-144.8 1043.73,-144.8 1043.73,-144.8"/>
<polygon fill="black" stroke="black" points="1043.73,-141.3 1033.73,-144.8 1043.73,-148.3 1043.73,-141.3"/>
</g>
<!-- AudioElementComponent -->
<g id="node2" class="node">
<title>AudioElementComponent</title>
<polygon fill="#ffffb3" stroke="black" points="1969.48,-84.8 1806.52,-84.8 1806.52,-48.8 1969.48,-48.8 1969.48,-84.8"/>
<text text-anchor="middle" x="1888" y="-62.6" font-family="Times,serif" font-size="14.00">AudioElementComponent</text>
</g>
<!-- AudioElementComponent&#45;&gt;AppModule -->
<g id="edge2" class="edge">
<title>AudioElementComponent&#45;&gt;AppModule</title>
<path fill="none" stroke="black" d="M1888,-84.84C1888,-106.46 1888,-139.8 1888,-139.8 1888,-139.8 1043.72,-139.8 1043.72,-139.8"/>
<polygon fill="black" stroke="black" points="1043.72,-136.3 1033.72,-139.8 1043.72,-143.3 1043.72,-136.3"/>
</g>
<!-- BottomSheetComponent -->
<g id="node3" class="node">
<title>BottomSheetComponent</title>
<polygon fill="#ffffb3" stroke="black" points="1788.44,-84.8 1633.56,-84.8 1633.56,-48.8 1788.44,-48.8 1788.44,-84.8"/>
<text text-anchor="middle" x="1711" y="-62.6" font-family="Times,serif" font-size="14.00">BottomSheetComponent</text>
</g>
<!-- BottomSheetComponent&#45;&gt;AppModule -->
<g id="edge3" class="edge">
<title>BottomSheetComponent&#45;&gt;AppModule</title>
<path fill="none" stroke="black" d="M1711,-85.02C1711,-105.17 1711,-134.8 1711,-134.8 1711,-134.8 1043.76,-134.8 1043.76,-134.8"/>
<polygon fill="black" stroke="black" points="1043.76,-131.3 1033.76,-134.8 1043.76,-138.3 1043.76,-131.3"/>
</g>
<!-- PreferenceComponent -->
<g id="node4" class="node">
<title>PreferenceComponent</title>
<polygon fill="#ffffb3" stroke="black" points="1615.67,-84.8 1474.33,-84.8 1474.33,-48.8 1615.67,-48.8 1615.67,-84.8"/>
<text text-anchor="middle" x="1545" y="-62.6" font-family="Times,serif" font-size="14.00">PreferenceComponent</text>
</g>
<!-- PreferenceComponent&#45;&gt;AppModule -->
<g id="edge4" class="edge">
<title>PreferenceComponent&#45;&gt;AppModule</title>
<path fill="none" stroke="black" d="M1545,-85.02C1545,-103.63 1545,-129.8 1545,-129.8 1545,-129.8 1044.02,-129.8 1044.02,-129.8"/>
<polygon fill="black" stroke="black" points="1044.02,-126.3 1034.02,-129.8 1044.02,-133.3 1044.02,-126.3"/>
</g>
<!-- RadioPlayerComponent -->
<g id="node5" class="node">
<title>RadioPlayerComponent</title>
<polygon fill="#ffffb3" stroke="black" points="1456.04,-84.8 1305.96,-84.8 1305.96,-48.8 1456.04,-48.8 1456.04,-84.8"/>
<text text-anchor="middle" x="1381" y="-62.6" font-family="Times,serif" font-size="14.00">RadioPlayerComponent</text>
</g>
<!-- RadioPlayerComponent&#45;&gt;AppModule -->
<g id="edge5" class="edge">
<title>RadioPlayerComponent&#45;&gt;AppModule</title>
<path fill="none" stroke="black" d="M1381,-84.83C1381,-101.86 1381,-124.8 1381,-124.8 1381,-124.8 1044,-124.8 1044,-124.8"/>
<polygon fill="black" stroke="black" points="1044,-121.3 1034,-124.8 1044,-128.3 1044,-121.3"/>
</g>
<!-- RssFluxComponent -->
<g id="node6" class="node">
<title>RssFluxComponent</title>
<polygon fill="#ffffb3" stroke="black" points="1287.74,-84.8 1160.26,-84.8 1160.26,-48.8 1287.74,-48.8 1287.74,-84.8"/>
<text text-anchor="middle" x="1224" y="-62.6" font-family="Times,serif" font-size="14.00">RssFluxComponent</text>
</g>
<!-- RssFluxComponent&#45;&gt;AppModule -->
<g id="edge6" class="edge">
<title>RssFluxComponent&#45;&gt;AppModule</title>
<path fill="none" stroke="black" d="M1224,-85.04C1224,-100.37 1224,-119.8 1224,-119.8 1224,-119.8 1043.74,-119.8 1043.74,-119.8"/>
<polygon fill="black" stroke="black" points="1043.74,-116.3 1033.74,-119.8 1043.74,-123.3 1043.74,-116.3"/>
</g>
<!-- SearchListComponent -->
<g id="node7" class="node">
<title>SearchListComponent</title>
<polygon fill="#ffffb3" stroke="black" points="1142.7,-84.8 1001.3,-84.8 1001.3,-48.8 1142.7,-48.8 1142.7,-84.8"/>
<text text-anchor="middle" x="1072" y="-62.6" font-family="Times,serif" font-size="14.00">SearchListComponent</text>
</g>
<!-- SearchListComponent&#45;&gt;AppModule -->
<g id="edge7" class="edge">
<title>SearchListComponent&#45;&gt;AppModule</title>
<path fill="none" stroke="black" d="M1017.62,-84.91C1017.62,-84.91 1017.62,-103.79 1017.62,-103.79"/>
<polygon fill="black" stroke="black" points="1014.12,-103.79 1017.62,-113.79 1021.12,-103.79 1014.12,-103.79"/>
</g>
<!-- StarRatingComponent -->
<g id="node8" class="node">
<title>StarRatingComponent</title>
<polygon fill="#ffffb3" stroke="black" points="983.71,-84.8 842.29,-84.8 842.29,-48.8 983.71,-48.8 983.71,-84.8"/>
<text text-anchor="middle" x="913" y="-62.6" font-family="Times,serif" font-size="14.00">StarRatingComponent</text>
</g>
<!-- StarRatingComponent&#45;&gt;AppModule -->
<g id="edge8" class="edge">
<title>StarRatingComponent&#45;&gt;AppModule</title>
<path fill="none" stroke="black" d="M966.89,-84.91C966.89,-84.91 966.89,-103.79 966.89,-103.79"/>
<polygon fill="black" stroke="black" points="963.39,-103.79 966.89,-113.79 970.39,-103.79 963.39,-103.79"/>
</g>
<!-- TableComponent -->
<g id="node9" class="node">
<title>TableComponent</title>
<polygon fill="#ffffb3" stroke="black" points="824.7,-84.8 711.3,-84.8 711.3,-48.8 824.7,-48.8 824.7,-84.8"/>
<text text-anchor="middle" x="768" y="-62.6" font-family="Times,serif" font-size="14.00">TableComponent</text>
</g>
<!-- TableComponent&#45;&gt;AppModule -->
<g id="edge9" class="edge">
<title>TableComponent&#45;&gt;AppModule</title>
<path fill="none" stroke="black" d="M768,-85.04C768,-100.37 768,-119.8 768,-119.8 768,-119.8 940.13,-119.8 940.13,-119.8"/>
<polygon fill="black" stroke="black" points="940.13,-123.3 950.13,-119.8 940.13,-116.3 940.13,-123.3"/>
</g>
<!-- ToolbarComponent -->
<g id="node10" class="node">
<title>ToolbarComponent</title>
<polygon fill="#ffffb3" stroke="black" points="693.65,-84.8 568.35,-84.8 568.35,-48.8 693.65,-48.8 693.65,-84.8"/>
<text text-anchor="middle" x="631" y="-62.6" font-family="Times,serif" font-size="14.00">ToolbarComponent</text>
</g>
<!-- ToolbarComponent&#45;&gt;AppModule -->
<g id="edge10" class="edge">
<title>ToolbarComponent&#45;&gt;AppModule</title>
<path fill="none" stroke="black" d="M631,-84.83C631,-101.86 631,-124.8 631,-124.8 631,-124.8 940.24,-124.8 940.24,-124.8"/>
<polygon fill="black" stroke="black" points="940.24,-128.3 950.24,-124.8 940.24,-121.3 940.24,-128.3"/>
</g>
<!-- WatchComponent -->
<g id="node11" class="node">
<title>WatchComponent</title>
<polygon fill="#ffffb3" stroke="black" points="549.86,-84.8 432.14,-84.8 432.14,-48.8 549.86,-48.8 549.86,-84.8"/>
<text text-anchor="middle" x="491" y="-62.6" font-family="Times,serif" font-size="14.00">WatchComponent</text>
</g>
<!-- WatchComponent&#45;&gt;AppModule -->
<g id="edge11" class="edge">
<title>WatchComponent&#45;&gt;AppModule</title>
<path fill="none" stroke="black" d="M491,-85.02C491,-103.63 491,-129.8 491,-129.8 491,-129.8 940.15,-129.8 940.15,-129.8"/>
<polygon fill="black" stroke="black" points="940.15,-133.3 950.15,-129.8 940.15,-126.3 940.15,-133.3"/>
</g>
<!-- AppComponent  -->
<g id="node16" class="node">
<title>AppComponent </title>
<polygon fill="#80b1d3" stroke="black" points="1046.44,-214.8 937.56,-214.8 937.56,-178.8 1046.44,-178.8 1046.44,-214.8"/>
<text text-anchor="middle" x="992" y="-192.6" font-family="Times,serif" font-size="14.00">AppComponent </text>
</g>
<!-- AppModule&#45;&gt;AppComponent  -->
<g id="edge15" class="edge">
<title>AppModule&#45;&gt;AppComponent </title>
<path fill="none" stroke="black" stroke-dasharray="1,5" d="M992,-149.91C992,-149.91 992,-168.79 992,-168.79"/>
<polygon fill="black" stroke="black" points="988.5,-168.79 992,-178.79 995.5,-168.79 988.5,-168.79"/>
</g>
<!-- AppRoutingModule -->
<g id="node13" class="node">
<title>AppRoutingModule</title>
<polygon fill="#8dd3c7" stroke="black" points="408.28,-84.8 405.28,-88.8 384.28,-88.8 381.28,-84.8 279.72,-84.8 279.72,-48.8 408.28,-48.8 408.28,-84.8"/>
<text text-anchor="middle" x="344" y="-62.6" font-family="Times,serif" font-size="14.00">AppRoutingModule</text>
</g>
<!-- AppRoutingModule&#45;&gt;AppModule -->
<g id="edge12" class="edge">
<title>AppRoutingModule&#45;&gt;AppModule</title>
<path fill="none" stroke="black" d="M344,-85.02C344,-105.17 344,-134.8 344,-134.8 344,-134.8 939.98,-134.8 939.98,-134.8"/>
<polygon fill="black" stroke="black" points="939.98,-138.3 949.98,-134.8 939.98,-131.3 939.98,-138.3"/>
</g>
<!-- GraphQLModule -->
<g id="node14" class="node">
<title>GraphQLModule</title>
<polygon fill="#8dd3c7" stroke="black" points="261.7,-84.8 258.7,-88.8 237.7,-88.8 234.7,-84.8 148.3,-84.8 148.3,-48.8 261.7,-48.8 261.7,-84.8"/>
<text text-anchor="middle" x="205" y="-62.6" font-family="Times,serif" font-size="14.00">GraphQLModule</text>
</g>
<!-- GraphQLModule&#45;&gt;AppModule -->
<g id="edge13" class="edge">
<title>GraphQLModule&#45;&gt;AppModule</title>
<path fill="none" stroke="black" d="M205,-84.84C205,-106.46 205,-139.8 205,-139.8 205,-139.8 940.24,-139.8 940.24,-139.8"/>
<polygon fill="black" stroke="black" points="940.24,-143.3 950.24,-139.8 940.24,-136.3 940.24,-143.3"/>
</g>
<!-- MaterialModule -->
<g id="node15" class="node">
<title>MaterialModule</title>
<polygon fill="#8dd3c7" stroke="black" points="130.47,-84.8 127.47,-88.8 106.47,-88.8 103.47,-84.8 23.53,-84.8 23.53,-48.8 130.47,-48.8 130.47,-84.8"/>
<text text-anchor="middle" x="77" y="-62.6" font-family="Times,serif" font-size="14.00">MaterialModule</text>
</g>
<!-- MaterialModule&#45;&gt;AppModule -->
<g id="edge14" class="edge">
<title>MaterialModule&#45;&gt;AppModule</title>
<path fill="none" stroke="black" d="M77,-84.89C77,-107.93 77,-144.8 77,-144.8 77,-144.8 940.31,-144.8 940.31,-144.8"/>
<polygon fill="black" stroke="black" points="940.31,-148.3 950.31,-144.8 940.31,-141.3 940.31,-148.3"/>
</g>
</g>
</svg>
