<?xml version="1.0" encoding="utf-8"?>
<!-- Generator: Adobe Illustrator 17.0.0, SVG Export Plug-In . SVG Version: 6.00 Build 0)  -->
<!DOCTYPE svg PUBLIC "-//W3C//DTD SVG 1.1//EN" "http://www.w3.org/Graphics/SVG/1.1/DTD/svg11.dtd">
<svg version="1.1" id="Calque_1" xmlns="http://www.w3.org/2000/svg" xmlns:xlink="http://www.w3.org/1999/xlink" x="0px" y="0px"
	 width="268.75px" height="117.188px" viewBox="0 0 268.75 117.188" enable-background="new 0 0 268.75 117.188"
	 xml:space="preserve">
<g>
	<path fill="#FFFFFF" d="M173.785,10.526c0,0.43-0.138,0.783-0.415,1.06c-0.46,0.522-0.707,0.799-0.737,0.829
		c-0.184,0.307-0.369,1.105-0.553,2.395c-0.768,6.265-1.152,12.453-1.152,18.563c0,3.439,0.614,5.375,1.843,5.804v1.244
		c-0.369,0.767-0.937,1.151-1.705,1.151c-1.566,0-2.749-1.366-3.546-4.1c-0.584-1.935-0.875-3.961-0.875-6.08
		c0-4.637,0.123-8.506,0.369-11.608c-0.919,3.593-1.854,7.202-2.803,10.825c-1.715,5.589-3.369,8.383-4.962,8.383
		c-1.807,0-3.4-1.642-4.777-4.929c-1.287-2.978-2.864-7.984-4.732-15.017c-0.184,2.089-0.276,4.223-0.276,6.403
		c0,4.514,0.119,7.785,0.356,9.812c0.03,0.369,0.2,0.96,0.512,1.773c0.312,0.814,0.468,1.451,0.468,1.912
		c0,1.013-0.845,1.52-2.533,1.52c-1.997,0-2.994-2.687-2.994-8.061c0-2.18,0.122-5.436,0.368-9.765
		c0.246-4.33,0.369-7.57,0.369-9.72c0-0.245-0.123-0.506-0.369-0.783c-0.246-0.276-0.368-0.537-0.368-0.783
		c0-1.719,1.535-2.58,4.606-2.58c0.706,0,1.55,0.446,2.534,1.336c0.092,0.952,0.246,2.395,0.46,4.33
		c0.307,2.703,1.029,6.28,2.165,10.732c1.504,5.743,2.81,8.614,3.916,8.614c0.245,0,0.568-0.476,0.967-1.428
		c0.767-1.843,1.52-4.438,2.257-7.785c0.553-2.672,1.106-5.343,1.659-8.015c0.245-1.259,0.691-3.07,1.335-5.436
		c0.645-1.75,1.996-2.625,4.054-2.625c0.737,0,1.627,0.169,2.672,0.507C173.156,9.437,173.785,9.943,173.785,10.526z"/>
	<path fill="#FFFFFF" d="M190.837,23.879c0,0.95-0.115,2.382-0.346,4.297c-0.23,1.915-0.346,3.362-0.346,4.343
		c0,0.858,0.039,2.138,0.115,3.837c0.076,1.7,0.115,2.964,0.115,3.791c0,0.705-0.598,1.057-1.795,1.057
		c-1.23,0-2.012-0.583-2.35-1.75c-1.168,0.768-2.303,1.151-3.41,1.151c-0.891,0-1.904-0.238-3.039-0.714
		c-1.137-0.476-1.936-1.052-2.395-1.728c-0.892-1.29-1.337-3.362-1.337-6.218c0-0.982,0.031-2.702,0.093-5.159
		c0.093-2.18,0.124-3.884,0.093-5.113c0.93-0.675,1.705-1.014,2.326-1.014c1.488,0,2.232,0.722,2.232,2.165
		c0,0.492-0.078,1.229-0.23,2.211c-0.154,0.983-0.23,1.72-0.23,2.211v6.495c0,0.737,0.199,1.505,0.6,2.303
		c0.49,0.921,1.074,1.382,1.75,1.382c1.32,0,2.303-0.844,2.947-2.534c0.43-1.167,0.645-2.58,0.645-4.238v-5.527
		c0-0.706-0.184-1.582-0.553-2.625c0.768-0.706,1.504-1.06,2.211-1.06c0.738,0,1.406,0.23,2.004,0.689
		C190.538,22.593,190.837,23.175,190.837,23.879z"/>
	<path fill="#FFFFFF" d="M207.614,35.677c0,1.444-0.614,2.703-1.843,3.777c-1.352,1.167-3.163,1.75-5.435,1.75
		c-0.983,0.03-2.043-0.169-3.179-0.599c-3.686-1.382-5.527-2.502-5.527-3.363c0-1.351,0.967-2.026,2.901-2.026
		c0.276,0,0.568,0.016,0.876,0.046c0.092,0.921,0.829,1.658,2.211,2.211c1.197,0.492,2.349,0.691,3.454,0.599
		c0.891-0.061,1.336-0.383,1.336-0.967c0-0.092-0.022-0.23-0.069-0.415c-0.046-0.184-0.068-0.33-0.068-0.438
		c0-0.107-0.584-0.345-1.751-0.714c-1.32-0.399-2.058-0.629-2.211-0.691c-3.501-2.088-5.251-4.606-5.251-7.554
		c0-1.781,0.507-3.424,1.52-4.929c1.136-1.659,2.549-2.488,4.238-2.488c1.259,0,2.694,0.492,4.307,1.474
		c1.612,0.983,2.603,2.042,2.972,3.178c0.245,0.799,0.368,1.459,0.368,1.981c0,0.553-0.077,1.013-0.23,1.382
		c-0.185,0.46-0.368,0.921-0.553,1.382c-0.584,0.399-1.167,0.599-1.75,0.599c-0.308,0-0.822-0.191-1.543-0.576
		c-0.723-0.383-1.083-0.714-1.083-0.99c0-0.123,0.185-0.522,0.553-1.198c0.215-0.398,0.322-0.737,0.322-1.013
		c0-1.843-0.722-2.764-2.165-2.764c-0.859,0-1.52,0.553-1.98,1.658c-0.338,0.86-0.507,1.781-0.507,2.764
		c0,1.229,0.875,2.334,2.626,3.316c1.597,0.707,3.208,1.428,4.837,2.165C206.739,34.034,207.614,34.848,207.614,35.677z"/>
	<path fill="#FFFFFF" d="M214.578,22.595c0,0.553-0.123,1.336-0.368,2.349c-0.246,1.014-0.368,1.797-0.368,2.35v9.489
		c0,0.583,0.184,1.505,0.553,2.764c-0.465,0.707-0.977,1.06-1.535,1.06c-1.954,0-3.023-0.967-3.21-2.902
		c-0.307-3.593-0.46-6.295-0.46-8.107c0-3.04,0.122-5.588,0.368-7.646c0-0.153,0-0.307,0-0.461c0-0.553,0.426-0.829,1.278-0.829
		c0.76,0,1.521,0.154,2.282,0.46C214.09,21.459,214.578,21.95,214.578,22.595z M214.993,16.146c0,0.676-0.23,1.229-0.691,1.658
		c-0.46,0.431-1.029,0.645-1.704,0.645c-0.799,0-1.543-0.276-2.234-0.829c-0.69-0.553-1.036-1.228-1.036-2.027
		c0-0.675,0.237-1.228,0.714-1.658c0.476-0.43,1.067-0.645,1.773-0.645c0.829,0,1.566,0.269,2.211,0.806
		C214.67,14.634,214.993,15.317,214.993,16.146z"/>
	<path fill="#FFFFFF" d="M232.044,35.124c0,0.952-0.722,2.073-2.165,3.363c-1.289,1.197-2.449,1.95-3.478,2.257
		c-1.029,0.307-2.004,0.46-2.925,0.46c-2.426,0-4.322-0.768-5.688-2.303c-1.367-1.536-2.05-3.516-2.05-5.942
		c0-2.364,0.629-5.005,1.889-7.923c1.504-3.501,3.254-5.251,5.251-5.251c1.105,0,2.441,0.43,4.007,1.29
		c1.659,0.952,2.626,1.904,2.902,2.856c0.245,0.829,0.368,1.766,0.368,2.81c0,0.952-0.199,2.026-0.599,3.224
		c-0.491,1.536-1.105,2.303-1.842,2.303c-0.523,0-1.014-0.152-1.475-0.458c-0.553-0.335-0.829-0.748-0.829-1.237
		c0-0.03,0.139-0.381,0.415-1.054c0.153-0.305,0.229-1.146,0.229-2.521c0-1.13-0.046-1.863-0.138-2.199
		c-0.185-0.947-0.614-1.421-1.29-1.421c-1.505,0-2.672,1.301-3.501,3.903c-0.614,1.929-0.921,3.872-0.921,5.831
		c0,3.276,1.044,4.914,3.133,4.914c0.829,0,1.78-0.43,2.855-1.29c0.982-0.798,1.673-1.612,2.073-2.441
		c0.49-0.982,1.089-1.474,1.796-1.474c0.461,0,0.905,0.269,1.336,0.806C231.83,34.165,232.044,34.664,232.044,35.124z"/>
	<path fill="#FFFFFF" stroke="#FFFFFF" stroke-width="2.8346" stroke-miterlimit="10" d="M69.777,24.562
		c0,6.78-1.075,15.874-3.224,27.283c-1.572,8.021-4.507,17.858-8.805,29.516C52.042,96.574,47.122,104.18,42.99,104.18
		c-4.135,0-7.36-0.62-9.673-1.86c-5.044-2.729-9.425-13.394-13.146-31.996c-2.067-12.566-4.176-25.132-6.325-37.701
		c-0.167-0.909-0.539-2.19-1.116-3.845c-0.415-0.413-0.806-0.868-1.178-1.364c-0.372-0.496-0.558-1.116-0.558-1.86
		c0-1.653,1.033-3.141,3.1-4.465c1.818-1.24,3.637-1.86,5.457-1.86c2.065,0,3.926,0.765,5.581,2.294
		c1.653,1.531,2.48,3.329,2.48,5.395c0,1.488-0.104,3.763-0.31,6.821c-0.208,3.06-0.31,5.333-0.31,6.821
		c0,6.78,1.033,14.924,3.1,24.431c3.802,17.693,6.902,26.539,9.301,26.539c1.569,0,3.101-1.281,4.588-3.844
		c3.885-6.53,7.398-16.452,10.542-29.764c3.058-12.731,4.588-23.232,4.588-31.5c0-1.901-0.601-3.327-1.798-4.279
		c-1.2-0.949-1.798-1.507-1.798-1.674c0-0.909,1.033-2.108,3.101-3.596c2.065-1.488,3.596-2.232,4.588-2.232
		c1.736,0,3.265,1.178,4.588,3.535C69.114,20.531,69.777,22.661,69.777,24.562z"/>
	<path fill="#FFFFFF" d="M89.991,54.945c0,1.488-0.332,3.597-0.992,6.325c-0.663,2.729-0.992,4.837-0.992,6.325v25.547
		c0,1.572,0.496,4.052,1.488,7.441c-1.252,1.903-2.629,2.853-4.133,2.853c-5.259,0-8.141-2.604-8.64-7.813
		c-0.828-9.673-1.24-16.948-1.24-21.827c0-8.185,0.329-15.047,0.992-20.587c0-0.413,0-0.825,0-1.24c0-1.488,1.147-2.232,3.441-2.232
		c2.046,0,4.094,0.415,6.145,1.24C88.679,51.888,89.991,53.209,89.991,54.945z M91.107,37.583c0,1.82-0.62,3.308-1.86,4.465
		c-1.24,1.159-2.771,1.736-4.588,1.736c-2.151,0-4.155-0.744-6.015-2.232c-1.86-1.488-2.79-3.306-2.79-5.457
		c0-1.817,0.639-3.306,1.922-4.464c1.281-1.157,2.872-1.736,4.775-1.736c2.232,0,4.216,0.725,5.953,2.17
		C90.239,33.512,91.107,35.351,91.107,37.583z"/>
	<path fill="#FFFFFF" d="M136.991,27.29c0,1.819-0.248,4.176-0.744,7.069c-0.663,3.887-1.075,6.201-1.24,6.945
		c-0.248,2.563-0.641,10.128-1.178,22.695c-0.539,12.568-0.806,19.513-0.806,20.834c0,7.937,0.868,13.89,2.604,17.858
		c-1.407,2.313-3.019,3.473-4.836,3.473c-1.903,0-3.597-0.725-5.084-2.17c-1.488-1.446-2.316-3.12-2.48-5.023
		c-3.887,3.556-7.855,5.333-11.906,5.333c-6.036,0-10.708-2.108-14.014-6.325c-3.06-3.802-4.588-8.805-4.588-15.006
		c0-7.274,1.488-14.675,4.464-22.199c3.802-9.506,8.763-14.262,14.882-14.262c3.637,0,7.358,1.612,11.162,4.837
		c0.413-3.885,0.62-13.807,0.62-29.764c0-1.488,1.116-2.232,3.348-2.232c2.645,0,4.939,0.663,6.883,1.984
		C136.018,22.661,136.991,24.645,136.991,27.29z M122.605,69.331c0-2.81-0.62-5.373-1.86-7.689c-1.571-2.81-3.639-4.216-6.201-4.216
		c-3.721,0-6.573,3.68-8.557,11.037c-1.488,5.292-2.232,10.501-2.232,15.626c0,7.689,2.232,11.534,6.697,11.534
		c4.629,0,7.978-3.43,10.045-10.293C121.902,80.7,122.605,75.367,122.605,69.331z"/>
	<path fill="#FFFFFF" d="M181.14,91.778c0,4.135-2.812,7.36-8.433,9.673c-4.383,1.818-8.972,2.729-13.766,2.729
		c-12.733,0-19.098-7.234-19.098-21.703c0-5.953,1.445-12.566,4.34-19.843c3.554-8.929,7.854-13.394,12.898-13.394
		c4.546,0,9.444,2.027,14.696,6.077c5.249,4.052,7.875,8.269,7.875,12.649c0,5.457-2.439,9.797-7.317,13.022
		c-4.3,2.895-9.425,4.34-15.378,4.34c-1.159,0-3.019-0.701-5.581-2.108c0.33,7.856,2.645,11.782,6.945,11.782
		c3.637,0,7.212-1.033,10.728-3.101c3.513-2.065,5.767-3.1,6.759-3.1C179.361,88.802,181.14,89.794,181.14,91.778z M167.622,68.339
		c0-2.065-0.601-4.03-1.798-5.891c-1.199-1.86-2.79-2.791-4.774-2.791c-2.729,0-4.836,1.2-6.325,3.597
		c-1.24,2.067-1.86,4.507-1.86,7.317c0,1.572,0.537,2.853,1.612,3.845c1.073,0.992,2.438,1.488,4.092,1.488
		C164.603,75.904,167.622,73.383,167.622,68.339z"/>
</g>
<g>
	<path fill="#FFFFFF" d="M259.33,103.317c0.522,0,1.036,0.46,1.543,1.382s0.76,1.689,0.76,2.303c0,0.676-0.261,1.397-0.782,2.165
		c-0.522,0.768-1.136,1.151-1.843,1.151c-0.614,0-1.159-0.314-1.636-0.944c-0.476-0.629-0.714-1.282-0.714-1.958
		c0-0.829,0.246-1.688,0.737-2.58C257.979,103.824,258.624,103.317,259.33,103.317z"/>
	<path fill="#FFFFFF" d="M255.968,86.117c0.952,0,2.072,0.722,3.362,2.165c1.197,1.29,1.95,2.449,2.257,3.478
		s0.461,2.003,0.461,2.925c0,2.426-0.768,4.323-2.303,5.689c-1.536,1.367-3.517,2.05-5.942,2.05c-2.364,0-5.005-0.629-7.923-1.889
		c-3.501-1.504-5.251-3.255-5.251-5.251c0-1.105,0.43-2.441,1.29-4.007c0.952-1.658,1.904-2.625,2.856-2.902
		c0.829-0.246,1.766-0.369,2.81-0.369c0.952,0,2.026,0.2,3.225,0.599c1.536,0.491,2.303,1.105,2.303,1.842
		c0,0.522-0.152,1.013-0.458,1.474c-0.336,0.553-0.748,0.829-1.237,0.829c-0.03,0-0.382-0.138-1.054-0.415
		c-0.306-0.153-1.146-0.23-2.521-0.23c-1.13,0-1.863,0.046-2.2,0.138c-0.947,0.184-1.421,0.615-1.421,1.29
		c0,1.505,1.301,2.671,3.904,3.5c1.929,0.615,3.872,0.921,5.831,0.921c3.276,0,4.913-1.043,4.913-3.132
		c0-0.829-0.43-1.781-1.289-2.856c-0.799-0.982-1.612-1.673-2.441-2.073c-0.982-0.491-1.475-1.09-1.475-1.796
		c0-0.461,0.27-0.906,0.807-1.336C255.008,86.333,255.507,86.117,255.968,86.117z"/>
	<path fill="#FFFFFF" d="M257.119,69.425c1.536,0,2.733,1.044,3.593,3.132c0.675,1.628,1.014,3.333,1.014,5.113
		c0,4.729-2.687,7.094-8.062,7.094c-2.211,0-4.667-0.537-7.37-1.612c-3.316-1.32-4.975-2.917-4.975-4.791
		c0-1.688,0.753-3.508,2.257-5.458c1.505-1.95,3.071-2.925,4.699-2.925c2.026,0,3.639,0.906,4.836,2.718
		c1.075,1.597,1.612,3.501,1.612,5.712c0,0.431-0.261,1.122-0.783,2.073c2.918-0.122,4.376-0.982,4.376-2.58
		c0-1.351-0.384-2.679-1.151-3.984c-0.768-1.305-1.151-2.142-1.151-2.51C256.014,70.086,256.382,69.425,257.119,69.425z
		 M248.413,74.446c-0.768,0-1.497,0.223-2.188,0.668c-0.691,0.445-1.037,1.037-1.037,1.773c0,1.013,0.445,1.796,1.336,2.349
		c0.769,0.461,1.674,0.691,2.718,0.691c0.584,0,1.06-0.199,1.428-0.599c0.369-0.399,0.553-0.905,0.553-1.52
		C251.223,75.567,250.287,74.446,248.413,74.446z"/>
	<path fill="#FFFFFF" d="M260.851,51.166c0.706,0.461,1.059,1.029,1.059,1.705c0,0.521-0.307,1.381-0.921,2.578h-0.553
		c-0.675,0-1.673-0.014-2.994-0.045c-1.32-0.031-2.287-0.047-2.902-0.047c-6.57,0-9.857,0.979-9.857,2.932
		c0,0.551,0.431,1.176,1.29,1.877c2.642,2.168,5.82,3.252,9.535,3.252c0.522,0,1.298-0.098,2.326-0.299
		c1.029-0.199,1.805-0.299,2.326-0.299c0.431,0,0.783,0.199,1.06,0.598c0.276,0.4,0.414,0.83,0.414,1.291
		c0,1.842-1.166,2.763-3.5,2.763h-9.628c-0.245,0-0.605-0.03-1.082-0.092c-0.476-0.062-0.836-0.092-1.083-0.092
		c-0.368,0-0.905,0.054-1.612,0.161c-0.706,0.108-1.228,0.161-1.566,0.161c-0.491,0-0.959-0.284-1.405-0.852
		c-0.445-0.568-0.668-1.083-0.668-1.543c0-0.674,0.384-1.365,1.151-2.072l1.843,0.139c-1.812-1.137-2.718-2.533-2.718-4.193
		c0-1.074,0.369-2.211,1.105-3.408c0.737-1.197,1.566-2.072,2.487-2.625c2.335-1.26,5.405-1.889,9.213-1.889H260.851z"/>
	<path fill="#FFFFFF" d="M244.682,39.448c0.829,0,1.413,1.259,1.751,3.778c0.676,0.061,2.211,0.091,4.606,0.091h3.04
		c0.614,0,1.52-0.093,2.718-0.276c1.197-0.185,2.089-0.276,2.672-0.276c0.491,0,0.929,0.246,1.312,0.736
		c0.384,0.492,0.575,0.983,0.575,1.475c0,0.768-0.659,1.412-1.98,1.935c-1.014,0.399-1.996,0.599-2.948,0.599h-9.765
		c-0.215,1.413-0.353,2.227-0.415,2.441c-0.245,0.799-0.599,1.197-1.06,1.197c-0.123,0-0.261-0.03-0.415-0.092
		c-1.136-0.798-1.704-1.688-1.704-2.672c0-0.061,0-0.153,0-0.276c0.031-0.122,0.046-0.214,0.046-0.276
		c0-0.645-0.752-0.951-2.257-0.921h-3.362c-0.338,0.154-0.629,0.23-0.875,0.23c-0.398,0-0.76-0.235-1.083-0.707
		c-0.322-0.472-0.483-0.92-0.483-1.346c0-0.639,0.299-1.247,0.898-1.825c0.599-0.577,1.237-0.867,1.912-0.867
		c0.737,0,1.467,0.115,2.188,0.346c0.722,0.23,1.467,0.33,2.234,0.3h0.184C242.717,40.646,243.454,39.448,244.682,39.448z"/>
	<path fill="#FFFFFF" d="M257.119,24.044c1.536,0,2.733,1.045,3.593,3.133c0.675,1.628,1.014,3.332,1.014,5.112
		c0,4.729-2.687,7.094-8.062,7.094c-2.211,0-4.667-0.537-7.37-1.612c-3.316-1.319-4.975-2.917-4.975-4.79
		c0-1.688,0.753-3.508,2.257-5.459c1.505-1.949,3.071-2.925,4.699-2.925c2.026,0,3.639,0.906,4.836,2.718
		c1.075,1.598,1.612,3.501,1.612,5.712c0,0.431-0.261,1.121-0.783,2.073c2.918-0.123,4.376-0.982,4.376-2.58
		c0-1.351-0.384-2.679-1.151-3.984c-0.768-1.305-1.151-2.142-1.151-2.511C256.014,24.705,256.382,24.044,257.119,24.044z
		 M248.413,29.065c-0.768,0-1.497,0.223-2.188,0.668c-0.691,0.445-1.037,1.036-1.037,1.772c0,1.014,0.445,1.797,1.336,2.35
		c0.769,0.461,1.674,0.691,2.718,0.691c0.584,0,1.06-0.2,1.428-0.6c0.369-0.398,0.553-0.905,0.553-1.52
		C251.223,30.187,250.287,29.065,248.413,29.065z"/>
	<path fill="#FFFFFF" d="M245.327,10.391c0.215,0,0.553,0.031,1.013,0.093c0.922,0.645,1.383,1.32,1.383,2.026
		c0,0.584-0.338,1.105-1.014,1.566c-1.382,0.062-2.073,0.553-2.073,1.474c0,0.553,1.459,1.229,4.376,2.027
		c1.29,0.368,3.087,0.553,5.39,0.553c2.181,0,3.501-0.101,3.961-0.301c0.584-0.229,0.983-0.345,1.198-0.345
		c0.522,0,0.944,0.236,1.267,0.708c0.322,0.471,0.483,0.996,0.483,1.573c0,1.643-0.767,2.464-2.303,2.464
		c-0.153,0-0.369-0.038-0.646-0.115c-0.276-0.076-0.476-0.115-0.599-0.115c-1.565,0-3.892,0.077-6.979,0.23
		c-3.086,0.153-5.396,0.229-6.933,0.229c-1.382,0-2.073-0.829-2.073-2.487c0-0.982,0.292-1.658,0.875-2.026
		c-0.952-0.859-1.428-1.827-1.428-2.902c0-0.736,0.2-1.442,0.599-2.118c0.247-0.461,0.776-0.998,1.589-1.612
		C244.229,10.698,244.866,10.391,245.327,10.391z"/>
</g>
<g>
	<path fill="#FA0F0C" d="M230.101,80.407c0,7.441-1.86,13.809-5.581,19.099c-4.3,6.034-10.004,9.053-17.114,9.053
		c-7.275,0-12.773-2.48-16.493-7.441c-3.392-4.381-5.085-10.334-5.085-17.858c0-7.441,1.86-14.467,5.58-21.083
		c4.299-7.854,9.879-11.781,16.742-11.781c2.149,0,4.837,0.951,8.062,2.853C225.47,58.788,230.101,67.841,230.101,80.407z"/>
</g>
<polygon id="polygon9_1_" fill="#FFFFFF" points="219.052,79.469 200.463,68.763 200.463,90.175 "/>
<g>
</g>
<g>
</g>
<g>
</g>
<g>
</g>
<g>
</g>
<g>
</g>
</svg>
