<?xml version="1.0" encoding="utf-8"?>
<!-- Generator: Adobe Illustrator 25.0.1, SVG Export Plug-In . SVG Version: 6.00 Build 0)  -->
<svg version="1.1" id="Layer_1" xmlns="http://www.w3.org/2000/svg" xmlns:xlink="http://www.w3.org/1999/xlink" x="0px" y="0px"
	 viewBox="0 0 4000 4000" style="enable-background:new 0 0 4000 4000;" xml:space="preserve">
<style type="text/css">
	.st0{fill:#807A84;}
	.st1{fill:#371A45;}
	.st2{opacity:0.55;}
	.st3{fill:#FFFFFF;}
	.st4{opacity:0.3;}
	.st5{fill:#FFBE06;}
	.st6{opacity:0.4;}
	.st7{fill:#262F6A;}
	.st8{fill:#00BAE5;}
	.st9{fill:#F43F08;}
</style>
<g>
	<g>
		<g>
			<g>
				<path class="st0" d="M3041.11,1918.63H1787.77c-35.59,0-64.45-28.86-64.45-64.45v-450.69c0-35.59,28.86-64.45,64.45-64.45
					h1253.34c35.59,0,64.45,28.86,64.45,64.45v450.69C3105.56,1889.78,3076.7,1918.63,3041.11,1918.63z"/>
				<path class="st1" d="M3041.11,1921.13H1787.77c-36.92,0-66.95-30.03-66.95-66.95v-450.69c0-36.92,30.03-66.95,66.95-66.95
					h1253.34c36.91,0,66.95,30.03,66.95,66.95v450.69C3108.06,1891.1,3078.02,1921.13,3041.11,1921.13z M1787.77,1341.54
					c-34.16,0-61.95,27.79-61.95,61.95v450.69c0,34.16,27.79,61.95,61.95,61.95h1253.34c34.16,0,61.95-27.79,61.95-61.95v-450.69
					c0-34.16-27.79-61.95-61.95-61.95H1787.77z"/>
			</g>
			<g class="st2">
				<path class="st3" d="M3099.23,1375.67c-7.95-3.57-16.84-5.54-26.11-5.54H1819.78c-35.6,0-64.45,28.85-64.45,64.45v450.71
					c0,9.93,2.25,19.42,6.31,27.81c-22.6-9.98-38.34-32.64-38.34-58.91v-450.71c0-35.6,28.85-64.45,64.45-64.45h1253.34
					C3066.7,1339.02,3088.86,1354,3099.23,1375.67z"/>
			</g>
			<g>
				<path class="st1" d="M3041.11,1936.24H1787.77c-45.25,0-82.07-36.81-82.07-82.06v-450.69c0-45.25,36.82-82.06,82.07-82.06
					h1253.34c45.25,0,82.06,36.81,82.06,82.06v450.69C3123.17,1899.43,3086.36,1936.24,3041.11,1936.24z M1787.77,1356.65
					c-25.83,0-46.84,21.01-46.84,46.84v450.69c0,25.83,21.01,46.84,46.84,46.84h1253.34c25.83,0,46.84-21.01,46.84-46.84v-450.69
					c0-25.83-21.01-46.84-46.84-46.84H1787.77z"/>
			</g>
			<g>
				<path class="st0" d="M3118.81,1453.77h-132.1v-132.1h43.68c48.83,0,88.42,39.59,88.42,88.42V1453.77z"/>
				<path class="st1" d="M3121.31,1456.27h-137.1v-137.1h46.18c50.14,0,90.92,40.79,90.92,90.92V1456.27z M2989.21,1451.27h127.1
					v-41.18c0-47.38-38.54-85.92-85.92-85.92h-41.18V1451.27z"/>
			</g>
			<g class="st2">
				<path class="st3" d="M3103.73,1360.64c-13.05-7.62-28.3-12.01-44.54-12.01h-43.66v105.15h-28.8v-132.08h43.66
					C3060.89,1321.69,3087.82,1337.16,3103.73,1360.64z"/>
			</g>
			<g>
				<path class="st1" d="M3118.81,1471.38h-132.1c-9.73,0-17.61-7.88-17.61-17.61v-132.1c0-9.73,7.89-17.61,17.61-17.61h43.68
					c58.47,0,106.04,47.57,106.04,106.03v43.68C3136.43,1463.5,3128.54,1471.38,3118.81,1471.38z M3004.33,1436.16h96.88v-26.07
					c0-39.05-31.76-70.81-70.81-70.81h-26.06V1436.16z"/>
			</g>
			<g>
				<circle class="st1" cx="3042.94" cy="1397.09" r="14.17"/>
			</g>
			<g>
				<path class="st0" d="M1700.46,1453.77h132.1v-132.1h-43.68c-48.83,0-88.42,39.59-88.42,88.42V1453.77z"/>
				<path class="st1" d="M1835.06,1456.27h-137.1v-46.18c0-50.13,40.79-90.92,90.92-90.92h46.18V1456.27z M1702.96,1451.27h127.1
					v-127.1h-41.18c-47.37,0-85.92,38.54-85.92,85.92V1451.27z"/>
			</g>
			<g class="st2">
				<path class="st3" d="M1832.56,1321.69v23.53h-19.69c-48.82,0-88.42,39.6-88.42,88.42v20.13h-23.97v-43.66
					c0-48.87,39.55-88.42,88.42-88.42H1832.56z"/>
			</g>
			<g>
				<path class="st1" d="M1832.56,1471.38h-132.1c-9.73,0-17.61-7.88-17.61-17.61v-43.68c0-58.47,47.57-106.03,106.03-106.03h43.68
					c9.73,0,17.61,7.88,17.61,17.61v132.1C1850.18,1463.5,1842.29,1471.38,1832.56,1471.38z M1718.08,1436.16h96.88v-96.88h-26.07
					c-39.04,0-70.81,31.77-70.81,70.81V1436.16z"/>
			</g>
			<g>
				<circle class="st1" cx="1776.34" cy="1397.09" r="14.17"/>
			</g>
			<g>
				<path class="st0" d="M3118.81,1804.36h-132.1v132.1h43.68c48.83,0,88.42-39.59,88.42-88.42V1804.36z"/>
				<path class="st1" d="M3030.39,1938.96h-46.18v-137.1h137.1v46.18C3121.31,1898.17,3080.53,1938.96,3030.39,1938.96z
					 M2989.21,1933.96h41.18c47.38,0,85.92-38.54,85.92-85.92v-41.18h-127.1V1933.96z"/>
			</g>
			<g class="st2">
				<polygon class="st3" points="3118.81,1804.38 3118.81,1833.83 3014.16,1833.83 3014.16,1936.46 2986.73,1936.46 
					2986.73,1804.38 				"/>
			</g>
			<g>
				<path class="st1" d="M3030.39,1954.07h-43.68c-9.73,0-17.61-7.88-17.61-17.61v-132.1c0-9.73,7.89-17.61,17.61-17.61h132.1
					c9.73,0,17.61,7.88,17.61,17.61v43.68C3136.43,1906.5,3088.86,1954.07,3030.39,1954.07z M3004.33,1918.85h26.06
					c39.05,0,70.81-31.77,70.81-70.81v-26.07h-96.88V1918.85z"/>
			</g>
			<g>
				<circle class="st1" cx="3042.94" cy="1861.04" r="14.17"/>
			</g>
			<g>
				<path class="st0" d="M1700.46,1804.36h132.1v132.1h-43.68c-48.83,0-88.42-39.59-88.42-88.42V1804.36z"/>
				<path class="st1" d="M1835.06,1938.96h-46.18c-50.13,0-90.92-40.79-90.92-90.92v-46.18h137.1V1938.96z M1702.96,1806.86v41.18
					c0,47.38,38.55,85.92,85.92,85.92h41.18v-127.1H1702.96z"/>
			</g>
			<g class="st2">
				<path class="st3" d="M1727.91,1833.18v43.66c0,16.46,4.5,31.87,12.29,45.03c-23.91-15.85-39.71-43-39.71-73.83v-43.66h132.08
					v28.8H1727.91z"/>
			</g>
			<g>
				<path class="st1" d="M1832.56,1954.07h-43.68c-58.46,0-106.03-47.57-106.03-106.03v-43.68c0-9.73,7.89-17.61,17.61-17.61h132.1
					c9.73,0,17.61,7.88,17.61,17.61v132.1C1850.18,1946.19,1842.29,1954.07,1832.56,1954.07z M1718.08,1821.97v26.07
					c0,39.05,31.76,70.81,70.81,70.81h26.07v-96.88H1718.08z"/>
			</g>
			<g>
				<circle class="st1" cx="1776.34" cy="1861.04" r="14.17"/>
			</g>
			<g>
				<path class="st0" d="M3041.11,3359.74H1787.77c-35.59,0-64.45-28.85-64.45-64.45V2028.71c0-35.59,28.86-64.45,64.45-64.45
					h1253.34c35.59,0,64.45,28.86,64.45,64.45v1266.58C3105.56,3330.89,3076.7,3359.74,3041.11,3359.74z"/>
				<path class="st1" d="M3041.11,3362.24H1787.77c-36.92,0-66.95-30.03-66.95-66.95V2028.71c0-36.92,30.03-66.95,66.95-66.95
					h1253.34c36.91,0,66.95,30.03,66.95,66.95v1266.58C3108.06,3332.21,3078.02,3362.24,3041.11,3362.24z M1787.77,1966.76
					c-34.16,0-61.95,27.79-61.95,61.95v1266.58c0,34.16,27.79,61.95,61.95,61.95h1253.34c34.16,0,61.95-27.79,61.95-61.95V2028.71
					c0-34.16-27.79-61.95-61.95-61.95H1787.77z"/>
			</g>
			<g class="st2">
				<path class="st3" d="M3099.23,2000.89c-7.95-3.57-16.84-5.54-26.11-5.54H1819.78c-35.6,0-64.45,28.85-64.45,64.45v1266.6
					c0,9.93,2.25,19.42,6.31,27.81c-22.6-9.98-38.34-32.64-38.34-58.91v-1266.6c0-35.6,28.85-64.45,64.45-64.45h1253.34
					C3066.7,1964.25,3088.86,1979.22,3099.23,2000.89z"/>
			</g>
			<g>
				<path class="st1" d="M3041.11,3377.35H1787.77c-45.25,0-82.07-36.81-82.07-82.06V2028.71c0-45.25,36.82-82.06,82.07-82.06
					h1253.34c45.25,0,82.06,36.81,82.06,82.06v1266.58C3123.17,3340.54,3086.36,3377.35,3041.11,3377.35z M1787.77,1981.87
					c-25.83,0-46.84,21.01-46.84,46.84v1266.58c0,25.83,21.01,46.84,46.84,46.84h1253.34c25.83,0,46.84-21.01,46.84-46.84V2028.71
					c0-25.83-21.01-46.84-46.84-46.84H1787.77z"/>
			</g>
			<g>
				<path class="st0" d="M3118.81,2078.99h-132.1v-132.1h43.68c48.83,0,88.42,39.59,88.42,88.42V2078.99z"/>
				<path class="st1" d="M3121.31,2081.49h-137.1v-137.1h46.18c50.14,0,90.92,40.79,90.92,90.92V2081.49z M2989.21,2076.49h127.1
					v-41.18c0-47.38-38.54-85.92-85.92-85.92h-41.18V2076.49z"/>
			</g>
			<g class="st2">
				<path class="st3" d="M3103.73,1985.86c-13.05-7.62-28.3-12.01-44.54-12.01h-43.66v105.15h-28.8v-132.08h43.66
					C3060.89,1946.91,3087.82,1962.38,3103.73,1985.86z"/>
			</g>
			<g>
				<path class="st1" d="M3118.81,2096.6h-112.24c-20.66,0-37.47-16.81-37.47-37.47V1946.9c0-9.73,7.89-17.61,17.61-17.61h43.68
					c58.47,0,106.04,47.56,106.04,106.03v43.68C3136.43,2088.72,3128.54,2096.6,3118.81,2096.6z M3004.33,1964.5v94.63
					c0,1.24,1.01,2.25,2.25,2.25h94.63v-26.07c0-39.05-31.76-70.81-70.81-70.81H3004.33z"/>
			</g>
			<g>
				<circle class="st1" cx="3042.94" cy="2022.31" r="14.17"/>
			</g>
			<g>
				<path class="st0" d="M1700.46,2078.99h132.1v-132.1h-43.68c-48.83,0-88.42,39.59-88.42,88.42V2078.99z"/>
				<path class="st1" d="M1835.06,2081.49h-137.1v-46.18c0-50.13,40.79-90.92,90.92-90.92h46.18V2081.49z M1702.96,2076.49h127.1
					v-127.1h-41.18c-47.37,0-85.92,38.54-85.92,85.92V2076.49z"/>
			</g>
			<g class="st2">
				<path class="st3" d="M1832.56,1946.91v23.53h-19.69c-48.82,0-88.42,39.6-88.42,88.42v20.13h-23.97v-43.66
					c0-48.87,39.55-88.42,88.42-88.42H1832.56z"/>
			</g>
			<g>
				<path class="st1" d="M1812.7,2096.6h-112.24c-9.73,0-17.61-7.88-17.61-17.61v-43.68c0-58.47,47.57-106.03,106.03-106.03h43.68
					c9.73,0,17.61,7.88,17.61,17.61v112.24C1850.18,2079.8,1833.36,2096.6,1812.7,2096.6z M1718.08,2061.38h94.63
					c1.24,0,2.25-1.01,2.25-2.25v-94.63h-26.07c-39.04,0-70.81,31.77-70.81,70.81V2061.38z"/>
			</g>
			<g>
				<circle class="st1" cx="1776.34" cy="2022.31" r="14.17"/>
			</g>
			<g>
				<path class="st0" d="M3118.81,3245.47h-132.1v132.1h43.68c48.83,0,88.42-39.59,88.42-88.42V3245.47z"/>
				<path class="st1" d="M3030.39,3380.07h-46.18v-137.1h137.1v46.18C3121.31,3339.28,3080.53,3380.07,3030.39,3380.07z
					 M2989.21,3375.07h41.18c47.38,0,85.92-38.54,85.92-85.92v-41.18h-127.1V3375.07z"/>
			</g>
			<g class="st2">
				<polygon class="st3" points="3118.81,3245.49 3118.81,3274.94 3014.16,3274.94 3014.16,3377.57 2986.73,3377.57 
					2986.73,3245.49 				"/>
			</g>
			<g>
				<path class="st1" d="M3030.39,3395.18h-43.68c-9.73,0-17.61-7.89-17.61-17.61v-108.65c0-22.64,18.42-41.06,41.06-41.06h108.65
					c9.73,0,17.61,7.89,17.61,17.61v43.68C3136.43,3347.61,3088.86,3395.18,3030.39,3395.18z M3004.33,3359.96h26.06
					c39.05,0,70.81-31.76,70.81-70.81v-26.07h-91.04c-3.22,0-5.84,2.62-5.84,5.84V3359.96z"/>
			</g>
			<g>
				<circle class="st1" cx="3042.94" cy="3302.15" r="14.17"/>
			</g>
			<g>
				<path class="st0" d="M1700.46,3245.47h132.1v132.1h-43.68c-48.83,0-88.42-39.59-88.42-88.42V3245.47z"/>
				<path class="st1" d="M1835.06,3380.07h-46.18c-50.13,0-90.92-40.79-90.92-90.92v-46.18h137.1V3380.07z M1702.96,3247.97v41.18
					c0,47.37,38.55,85.92,85.92,85.92h41.18v-127.1H1702.96z"/>
			</g>
			<g class="st2">
				<path class="st3" d="M1727.91,3274.29v43.66c0,16.46,4.5,31.87,12.29,45.03c-23.91-15.85-39.71-43-39.71-73.83v-43.66h132.08
					v28.8H1727.91z"/>
			</g>
			<g>
				<path class="st1" d="M1832.56,3395.18h-43.68c-58.46,0-106.03-47.57-106.03-106.03v-43.68c0-9.73,7.89-17.61,17.61-17.61h108.65
					c22.64,0,41.06,18.42,41.06,41.06v108.65C1850.18,3387.3,1842.29,3395.18,1832.56,3395.18z M1718.08,3263.08v26.07
					c0,39.04,31.76,70.81,70.81,70.81h26.07v-91.04c0-3.22-2.62-5.84-5.84-5.84H1718.08z"/>
			</g>
			<g>
				<circle class="st1" cx="1776.34" cy="3302.15" r="14.17"/>
			</g>
			<g>
				<rect x="1829.82" y="1921.87" class="st1" width="1159.64" height="46.61"/>
			</g>
			<g class="st2">
				<path class="st3" d="M2984.68,2272.32v875.36c0,55.45-44.98,100.43-100.43,100.43h-875.36c-40.48,0-75.36-23.97-91.22-58.47
					c16.78,12.56,37.57,19.97,60.12,19.97h875.36c55.45,0,100.43-44.92,100.43-100.43v-875.31c0-15.03-3.29-29.24-9.21-42.02
					C2968.83,2210.18,2984.68,2239.41,2984.68,2272.32z"/>
			</g>
			<g>
				<path class="st1" d="M2849.04,3232.05h-875.35c-65.09,0-118.04-52.95-118.04-118.04v-875.35c0-65.09,52.95-118.04,118.04-118.04
					h875.35c65.09,0,118.04,52.95,118.04,118.04V3114C2967.08,3179.09,2914.13,3232.05,2849.04,3232.05z M1973.69,2155.84
					c-45.67,0-82.82,37.15-82.82,82.82V3114c0,45.67,37.15,82.82,82.82,82.82h875.35c45.67,0,82.82-37.15,82.82-82.82v-875.35
					c0-45.67-37.15-82.82-82.82-82.82H1973.69z"/>
			</g>
			<g class="st4">
				<path class="st1" d="M2849.04,3214.43h-875.35c-55.46,0-100.43-44.96-100.43-100.43v-875.35c0-55.46,44.96-100.43,100.43-100.43
					h875.35c55.46,0,100.43,44.96,100.43,100.43v875.35C2949.47,3169.47,2904.51,3214.43,2849.04,3214.43z"/>
			</g>
			<g>
				<path class="st1" d="M1958.85,3222.66c-4.55,0-8.23-3.68-8.23-8.23V2138.23c0-4.54,3.68-8.23,8.23-8.23s8.23,3.68,8.23,8.23
					v1076.21C1967.07,3218.98,1963.39,3222.66,1958.85,3222.66z"/>
			</g>
			<g>
				<path class="st1" d="M2041.12,3222.66c-4.55,0-8.23-3.68-8.23-8.23V2138.23c0-4.54,3.68-8.23,8.23-8.23s8.23,3.68,8.23,8.23
					v1076.21C2049.35,3218.98,2045.67,3222.66,2041.12,3222.66z"/>
			</g>
			<g>
				<path class="st1" d="M2123.4,3222.66c-4.55,0-8.23-3.68-8.23-8.23V2138.23c0-4.54,3.68-8.23,8.23-8.23s8.23,3.68,8.23,8.23
					v1076.21C2131.63,3218.98,2127.94,3222.66,2123.4,3222.66z"/>
			</g>
			<g>
				<path class="st1" d="M2205.68,3222.66c-4.55,0-8.23-3.68-8.23-8.23V2138.23c0-4.54,3.68-8.23,8.23-8.23s8.23,3.68,8.23,8.23
					v1076.21C2213.91,3218.98,2210.22,3222.66,2205.68,3222.66z"/>
			</g>
			<g>
				<path class="st1" d="M2287.95,3222.66c-4.55,0-8.23-3.68-8.23-8.23V2138.23c0-4.54,3.68-8.23,8.23-8.23s8.23,3.68,8.23,8.23
					v1076.21C2296.18,3218.98,2292.5,3222.66,2287.95,3222.66z"/>
			</g>
			<g>
				<path class="st1" d="M2370.23,3222.66c-4.55,0-8.23-3.68-8.23-8.23V2138.23c0-4.54,3.68-8.23,8.23-8.23s8.23,3.68,8.23,8.23
					v1076.21C2378.46,3218.98,2374.77,3222.66,2370.23,3222.66z"/>
			</g>
			<g>
				<path class="st1" d="M2452.5,3222.66c-4.55,0-8.23-3.68-8.23-8.23V2138.23c0-4.54,3.68-8.23,8.23-8.23s8.23,3.68,8.23,8.23
					v1076.21C2460.73,3218.98,2457.05,3222.66,2452.5,3222.66z"/>
			</g>
			<g>
				<path class="st1" d="M2534.78,3222.66c-4.55,0-8.23-3.68-8.23-8.23V2138.23c0-4.54,3.68-8.23,8.23-8.23s8.23,3.68,8.23,8.23
					v1076.21C2543.01,3218.98,2539.33,3222.66,2534.78,3222.66z"/>
			</g>
			<g>
				<path class="st1" d="M2617.06,3222.66c-4.55,0-8.23-3.68-8.23-8.23V2138.23c0-4.54,3.68-8.23,8.23-8.23s8.23,3.68,8.23,8.23
					v1076.21C2625.28,3218.98,2621.6,3222.66,2617.06,3222.66z"/>
			</g>
			<g>
				<path class="st1" d="M2699.34,3222.66c-4.55,0-8.23-3.68-8.23-8.23V2138.23c0-4.54,3.68-8.23,8.23-8.23s8.23,3.68,8.23,8.23
					v1076.21C2707.56,3218.98,2703.88,3222.66,2699.34,3222.66z"/>
			</g>
			<g>
				<path class="st1" d="M2781.61,3222.66c-4.55,0-8.23-3.68-8.23-8.23V2138.23c0-4.54,3.68-8.23,8.23-8.23s8.23,3.68,8.23,8.23
					v1076.21C2789.84,3218.98,2786.16,3222.66,2781.61,3222.66z"/>
			</g>
			<g>
				<path class="st1" d="M2863.89,3222.66c-4.55,0-8.23-3.68-8.23-8.23V2138.23c0-4.54,3.68-8.23,8.23-8.23s8.23,3.68,8.23,8.23
					v1076.21C2872.11,3218.98,2868.43,3222.66,2863.89,3222.66z"/>
			</g>
			<g>
				<path class="st1" d="M2949.47,2232.04H1873.26c-4.55,0-8.23-3.68-8.23-8.23s3.68-8.23,8.23-8.23h1076.21
					c4.55,0,8.23,3.68,8.23,8.23S2954.02,2232.04,2949.47,2232.04z"/>
			</g>
			<g>
				<path class="st1" d="M2949.47,2314.31H1873.26c-4.55,0-8.23-3.68-8.23-8.23s3.68-8.23,8.23-8.23h1076.21
					c4.55,0,8.23,3.68,8.23,8.23S2954.02,2314.31,2949.47,2314.31z"/>
			</g>
			<g>
				<path class="st1" d="M2949.47,2396.59H1873.26c-4.55,0-8.23-3.68-8.23-8.23s3.68-8.23,8.23-8.23h1076.21
					c4.55,0,8.23,3.68,8.23,8.23S2954.02,2396.59,2949.47,2396.59z"/>
			</g>
			<g>
				<path class="st1" d="M2949.47,2478.87H1873.26c-4.55,0-8.23-3.68-8.23-8.23s3.68-8.23,8.23-8.23h1076.21
					c4.55,0,8.23,3.68,8.23,8.23S2954.02,2478.87,2949.47,2478.87z"/>
			</g>
			<g>
				<path class="st1" d="M2949.47,2561.14H1873.26c-4.55,0-8.23-3.68-8.23-8.23s3.68-8.23,8.23-8.23h1076.21
					c4.55,0,8.23,3.68,8.23,8.23S2954.02,2561.14,2949.47,2561.14z"/>
			</g>
			<g>
				<path class="st1" d="M2949.47,2643.42H1873.26c-4.55,0-8.23-3.68-8.23-8.23s3.68-8.23,8.23-8.23h1076.21
					c4.55,0,8.23,3.68,8.23,8.23S2954.02,2643.42,2949.47,2643.42z"/>
			</g>
			<g>
				<path class="st1" d="M2949.47,2725.7H1873.26c-4.55,0-8.23-3.68-8.23-8.23s3.68-8.23,8.23-8.23h1076.21
					c4.55,0,8.23,3.68,8.23,8.23S2954.02,2725.7,2949.47,2725.7z"/>
			</g>
			<g>
				<path class="st1" d="M2949.47,2807.97H1873.26c-4.55,0-8.23-3.68-8.23-8.23s3.68-8.23,8.23-8.23h1076.21
					c4.55,0,8.23,3.68,8.23,8.23S2954.02,2807.97,2949.47,2807.97z"/>
			</g>
			<g>
				<path class="st1" d="M2949.47,2890.25H1873.26c-4.55,0-8.23-3.68-8.23-8.23s3.68-8.23,8.23-8.23h1076.21
					c4.55,0,8.23,3.68,8.23,8.23S2954.02,2890.25,2949.47,2890.25z"/>
			</g>
			<g>
				<path class="st1" d="M2949.47,2972.52H1873.26c-4.55,0-8.23-3.68-8.23-8.23s3.68-8.23,8.23-8.23h1076.21
					c4.55,0,8.23,3.68,8.23,8.23S2954.02,2972.52,2949.47,2972.52z"/>
			</g>
			<g>
				<path class="st1" d="M2949.47,3054.8H1873.26c-4.55,0-8.23-3.68-8.23-8.23s3.68-8.23,8.23-8.23h1076.21
					c4.55,0,8.23,3.68,8.23,8.23S2954.02,3054.8,2949.47,3054.8z"/>
			</g>
			<g>
				<path class="st1" d="M2949.47,3137.08H1873.26c-4.55,0-8.23-3.68-8.23-8.23s3.68-8.23,8.23-8.23h1076.21
					c4.55,0,8.23,3.68,8.23,8.23S2954.02,3137.08,2949.47,3137.08z"/>
			</g>
			<g>
				<path class="st5" d="M2908.99,1759.58h-998.71c-21.4,0-38.75-17.35-38.75-38.75v-195.98c0-21.4,17.35-38.75,38.75-38.75h998.71
					c21.4,0,38.75,17.35,38.75,38.75v195.98C2947.74,1742.23,2930.39,1759.58,2908.99,1759.58z"/>
			</g>
			<g class="st6">
				<path class="st7" d="M2947.6,1522.71c-0.49-0.11-1.04-0.11-1.59-0.11h-998.72c-21.39,0-38.72,17.33-38.72,38.78v195.93
					c0,0.71,0,1.43,0.11,2.14c-20.68-0.77-37.13-17.77-37.13-38.62v-195.98c0-21.39,17.33-38.72,38.72-38.72h998.72
					C2929.67,1486.13,2946.56,1502.31,2947.6,1522.71z"/>
				<path class="st1" d="M1911.62,1762.06l-3.04-0.11c-22.17-0.82-39.54-18.88-39.54-41.11v-195.98c0-22.73,18.5-41.22,41.23-41.22
					h998.72c21.94,0,40,17.11,41.11,38.96l0.17,3.28l-3.21-0.72c-0.22-0.05-0.66-0.05-1.05-0.05h-998.73
					c-19.98,0-36.23,16.27-36.23,36.28v195.93c0,0.58-0.01,1.17,0.08,1.75L1911.62,1762.06z M1910.27,1488.63
					c-19.98,0-36.23,16.25-36.23,36.22v195.98c0,18.62,13.86,33.9,32.02,35.92v-195.37c0-22.76,18.5-41.28,41.23-41.28h997.58
					c-2.28-17.86-17.53-31.47-35.88-31.47H1910.27z"/>
			</g>
			<g class="st2">
				<path class="st3" d="M2975.14,1560.5v195.98c0,21.39-17.33,38.72-38.72,38.72h-998.72c-20.95,0-37.96-16.56-38.67-37.35
					c3.57,1.1,7.35,1.7,11.24,1.7h998.72c21.39,0,38.72-17.33,38.72-38.72v-195.98c0-0.44,0-0.93-0.05-1.37
					C2963.57,1528.25,2975.14,1543.01,2975.14,1560.5z"/>
			</g>
			<g>
				<path class="st1" d="M2908.99,1777.19h-998.71c-31.08,0-56.36-25.28-56.36-56.36v-195.98c0-31.08,25.28-56.36,56.36-56.36
					h998.71c31.07,0,56.36,25.28,56.36,56.36v195.98C2965.35,1751.91,2940.07,1777.19,2908.99,1777.19z M1910.28,1503.72
					c-11.66,0-21.14,9.48-21.14,21.14v195.98c0,11.66,9.48,21.14,21.14,21.14h998.71c11.66,0,21.13-9.48,21.13-21.14v-195.98
					c0-11.66-9.48-21.14-21.13-21.14H1910.28z"/>
			</g>
			<g class="st6">
				
					<ellipse transform="matrix(0.1602 -0.9871 0.9871 0.1602 70.0817 3401.0591)" class="st1" cx="2033.77" cy="1659.34" rx="53.87" ry="53.87"/>
			</g>
			<g class="st6">
				
					<ellipse transform="matrix(0.7071 -0.7071 0.7071 0.7071 -531.3328 2035.9371)" class="st1" cx="2191.93" cy="1659.34" rx="53.87" ry="53.87"/>
			</g>
			<g class="st6">
				
					<ellipse transform="matrix(0.2298 -0.9732 0.9732 0.2298 190.9625 3559.9795)" class="st1" cx="2344.6" cy="1659.34" rx="53.87" ry="53.87"/>
			</g>
			<g class="st6">
				
					<ellipse transform="matrix(0.7071 -0.7071 0.7071 0.7071 -413.2518 2321.0098)" class="st1" cx="2595.08" cy="1659.34" rx="53.87" ry="53.87"/>
			</g>
			<g>
				
					<ellipse transform="matrix(0.1602 -0.9871 0.9871 0.1602 94.3331 3356.5603)" class="st8" cx="2019.75" cy="1622.84" rx="39.85" ry="39.85"/>
			</g>
			<g>
				<path class="st1" d="M2019.75,1676.4c-29.54,0-53.56-24.03-53.56-53.56s24.02-53.56,53.56-53.56
					c29.53,0,53.55,24.03,53.55,53.56S2049.28,1676.4,2019.75,1676.4z M2019.75,1596.71c-14.41,0-26.14,11.72-26.14,26.13
					c0,14.41,11.73,26.14,26.14,26.14c14.41,0,26.13-11.72,26.13-26.14C2045.88,1608.43,2034.16,1596.71,2019.75,1596.71z"/>
			</g>
			<g>
				
					<ellipse transform="matrix(0.1602 -0.9871 0.9871 0.1602 222.1627 3506.8059)" class="st8" cx="2171.96" cy="1622.84" rx="39.85" ry="39.85"/>
			</g>
			<g>
				<path class="st1" d="M2171.96,1676.4c-29.53,0-53.55-24.03-53.55-53.56s24.02-53.56,53.55-53.56
					c29.54,0,53.56,24.03,53.56,53.56S2201.49,1676.4,2171.96,1676.4z M2171.96,1596.71c-14.41,0-26.13,11.72-26.13,26.13
					c0,14.41,11.72,26.14,26.13,26.14s26.14-11.72,26.14-26.14C2198.1,1608.43,2186.37,1596.71,2171.96,1596.71z"/>
			</g>
			<g>
				
					<ellipse transform="matrix(0.2298 -0.9732 0.9732 0.2298 209.6992 3510.6514)" class="st8" cx="2322.8" cy="1622.84" rx="39.85" ry="39.85"/>
			</g>
			<g>
				<path class="st1" d="M2322.8,1676.4c-29.53,0-53.55-24.03-53.55-53.56s24.02-53.56,53.55-53.56c29.54,0,53.56,24.03,53.56,53.56
					S2352.33,1676.4,2322.8,1676.4z M2322.8,1596.71c-14.41,0-26.13,11.72-26.13,26.13c0,14.41,11.72,26.14,26.13,26.14
					s26.14-11.72,26.14-26.14C2348.94,1608.43,2337.21,1596.71,2322.8,1596.71z"/>
			</g>
			<g>
				
					<ellipse transform="matrix(0.1602 -0.9871 0.9871 0.1602 560.3311 3904.2751)" class="st9" cx="2574.63" cy="1622.84" rx="39.85" ry="39.85"/>
			</g>
			<g>
				<path class="st1" d="M2574.63,1676.4c-29.54,0-53.56-24.03-53.56-53.56s24.02-53.56,53.56-53.56s53.56,24.03,53.56,53.56
					S2604.16,1676.4,2574.63,1676.4z M2574.63,1596.71c-14.41,0-26.14,11.72-26.14,26.13c0,14.41,11.73,26.14,26.14,26.14
					s26.14-11.72,26.14-26.14C2600.77,1608.43,2589.04,1596.71,2574.63,1596.71z"/>
			</g>
			<g>
				<path class="st9" d="M2466.33,1599.61h-29.25c-7.83,0-14.17-6.34-14.17-14.17v-8.68c0-7.83,6.34-14.17,14.17-14.17h29.25
					c7.83,0,14.17,6.34,14.17,14.17v8.68C2480.5,1593.27,2474.15,1599.61,2466.33,1599.61z"/>
			</g>
			<g>
				<path class="st1" d="M2466.33,1663.08h-29.25c-7.83,0-14.17-6.34-14.17-14.17v-8.68c0-7.83,6.34-14.17,14.17-14.17h29.25
					c7.83,0,14.17,6.34,14.17,14.17v8.68C2480.5,1656.74,2474.15,1663.08,2466.33,1663.08z"/>
			</g>
			<g>
				<circle class="st1" cx="2788.35" cy="1680.17" r="17.48"/>
			</g>
			<g>
				<circle class="st1" cx="2856.91" cy="1680.17" r="17.48"/>
			</g>
		</g>
	</g>
</g>
</svg>
