<?xml version="1.0" encoding="utf-8"?>
<!-- Generator: Adobe Illustrator 17.0.0, SVG Export Plug-In . SVG Version: 6.00 Build 0)  -->
<!DOCTYPE svg PUBLIC "-//W3C//DTD SVG 1.1//EN" "http://www.w3.org/Graphics/SVG/1.1/DTD/svg11.dtd">
<svg version="1.1" id="Calque_1" xmlns="http://www.w3.org/2000/svg" xmlns:xlink="http://www.w3.org/1999/xlink" x="0px" y="0px"
	 width="253px" height="62px" viewBox="0 0 253 62" enable-background="new 0 0 253 62" xml:space="preserve">
<g>
	<path fill="#FFFFFF" d="M40.344,10.071c0,5.103-0.811,10.214-1.722,15.221c-0.965,5.308-2.542,10.482-4.316,15.571
		c-1.688,4.841-3.431,10.04-6.435,14.257c-0.71,0.996-1.596,2.111-2.778,2.563c-0.706,0.27-1.51,0.164-2.244,0.115
		c-1.262-0.083-2.542-0.282-3.72-0.762c-2.825-1.151-4.204-4.485-5.218-7.132c-2.002-5.229-3.063-10.771-3.974-16.275
		c-0.539-3.251-1.081-6.501-1.629-9.75c-0.525-3.118-0.865-6.351-1.621-9.421c-0.155-0.629-0.358-1.245-0.571-1.856
		c-0.452-0.449-0.931-0.957-1.021-1.614c-0.181-1.324,0.81-2.341,1.839-3c2.393-1.633,5.475-1.435,7.273,0.979
		c1.468,1.971,0.744,5.101,0.602,7.369c-0.15,2.393-0.167,4.763,0.026,7.155c0.472,5.864,1.76,11.673,3.216,17.363
		c0.515,2.014,1.066,4.03,1.791,5.98c0.381,1.023,0.795,2.205,1.556,3.019c2.253,2.411,5.388-5.654,5.933-7.011
		c1.755-4.373,2.969-8.946,4.044-13.526c1.088-4.634,1.999-9.336,2.392-14.084c0.14-1.686,0.604-4.075-0.143-5.656
		c-0.384-0.811-1.18-1.168-1.749-1.816c-0.421-0.481,0.663-1.408,0.958-1.664c1.225-1.061,3.181-2.661,4.838-1.587
		C39.305,5.566,40.344,8.182,40.344,10.071z"/>
	<path fill="#FFFFFF" d="M47.71,28.301c0,2.668-1.19,5.181-1.19,7.856c0,1.583,0,3.165,0,4.748c0,3.438,0,6.876,0,10.314
		c0,0.914,0.208,1.834,0.422,2.718c0.142,0.586,0.301,1.168,0.471,1.746c-0.343,0.522-0.76,1.025-1.296,1.358
		c-1.434,0.892-3.871,0.17-4.995-0.961c-1.545-1.554-1.433-4.014-1.591-6.035c-0.187-2.399-0.352-4.8-0.451-7.204
		c-0.19-4.624-0.086-9.295,0.342-13.903c0.044-0.47,0.092-0.94,0.146-1.408c0.058-0.504-0.077-1.088,0.142-1.562
		c0.429-0.926,1.869-0.829,2.692-0.763C44.06,25.34,47.71,26.05,47.71,28.301z M48.38,17.884c0,5.836-9.491,4.07-9.143-1.186
		C39.597,11.254,48.38,12.906,48.38,17.884z"/>
	<path fill="#FFFFFF" d="M71.148,11.708c0,3.625-1.143,7.149-1.358,10.763c-0.301,5.08-0.496,10.167-0.709,15.251
		c-0.139,3.33-0.38,6.68-0.297,10.015c0.063,2.512,0.257,5.073,0.942,7.501c0.125,0.445,0.269,0.885,0.438,1.315
		c0.233,0.592-0.171,0.963-0.589,1.417c-0.824,0.894-1.865,1.229-3.054,0.966c-1.928-0.426-3.464-2.271-3.633-4.219
		c-1.965,1.798-4.414,3.2-7.143,3.2c-2.374,0-4.756-0.586-6.661-2.052c-4.265-3.282-4.834-8.968-4.342-13.945
		c0.304-3.084,1.043-6.115,2.103-9.024c0.892-2.447,2.011-4.92,3.757-6.887c1.241-1.398,2.852-2.478,4.738-2.714
		c2.548-0.32,4.988,0.839,6.954,2.366c0.202,0.157,0.4,0.318,0.594,0.483c0.434-4.079,0.33-8.252,0.356-12.346
		c0.011-1.705,0.015-3.41,0.016-5.115c0-1.308,0.736-1.736,2.009-1.736C68.184,6.946,71.148,8.483,71.148,11.708z M62.517,36.933
		c0-2.403-0.84-5.586-3.178-6.761c-1.633-0.821-3.362-0.242-4.48,1.103c-1.607,1.933-2.253,4.644-2.795,7.036
		c-0.666,2.94-1.041,6.046-0.797,9.061c0.137,1.701,0.523,3.847,2.091,4.837c1.384,0.874,3.332,0.546,4.624-0.34
		c1.85-1.269,2.759-3.567,3.359-5.637c0.801-2.766,1.121-5.657,1.17-8.53C62.514,37.446,62.517,37.189,62.517,36.933z"/>
	<path fill="#FFFFFF" d="M92.875,50.401c0,5.158-7.183,6.95-11.185,7.339c-3.823,0.371-8.144-0.146-10.794-3.228
		c-2.703-3.144-3.058-7.87-2.701-11.82c0.258-2.852,0.989-5.648,1.959-8.336c0.89-2.467,1.952-5.003,3.673-7.017
		c0.916-1.073,2.077-2,3.475-2.328c1.767-0.415,3.753,0.105,5.387,0.781c3.733,1.544,8.341,4.824,9.17,9.06
		c0.792,4.049-1.696,7.612-5.056,9.572c-1.842,1.075-3.907,1.711-6.019,1.967c-0.929,0.113-1.997,0.275-2.924,0.084
		c-1.003-0.207-1.954-0.718-2.843-1.207c0.081,1.944,0.289,4.28,1.572,5.854c1.31,1.607,3.524,1.324,5.332,0.885
		c2.552-0.619,4.538-2.319,6.964-3.205C90.159,48.336,92.875,48.602,92.875,50.401z M84.765,36.338c0-2.693-1.776-5.648-4.776-5.142
		c-2.832,0.478-3.992,3.574-4.073,6.123c-0.103,3.218,2.933,3.961,5.563,3.333C83.621,40.141,84.765,38.508,84.765,36.338z"/>
	<path fill="#FFFFFF" d="M116.761,42.29c0,5.19-1.688,10.674-5.767,14.119c-3.669,3.1-9.258,3.614-13.599,1.656
		c-4.446-2.006-6.583-6.714-7.064-11.337c-0.601-5.78,0.799-11.612,3.889-16.527c1.557-2.478,3.731-4.686,6.605-5.53
		c3.208-0.942,6.087,0.202,8.734,2.058C114.684,30.321,116.761,36.208,116.761,42.29z M110.212,42.141
		c0-3.31-0.004-8.897-3.361-10.84c-1.387-0.803-3.231-0.682-4.629,0.027c-2.081,1.055-3.211,3.338-3.908,5.457
		c-0.886,2.694-1.146,5.562-1.022,8.386c0.091,2.064,0.366,4.294,1.441,6.104c1.99,3.351,6.75,3.136,9.013,0.172
		C109.717,48.869,110.212,45.292,110.212,42.141z"/>
	<path fill="#FFFFFF" d="M151.211,44.733c0,5.132-4.325,9.513-8.654,11.575c-4.76,2.268-10.668,2.804-15.686,1.06
		c-10.381-3.607-12.615-15.882-11.803-25.505c0.48-5.686,1.997-11.467,4.874-16.427c2.545-4.387,6.615-8.725,11.744-9.861
		c4.828-1.07,9.504,1.027,12.01,5.24c2.574,4.289,3.278,9.975,2.256,14.832c-0.554,2.636-1.342,5.513-2.779,7.817
		c-0.952,1.527-2.35,2.43-4.124,1.543c-0.957-0.478-1.618-1.377-2.081-2.316c-0.14-0.285-0.387-0.503-0.094-0.718
		c0.206-0.152,0.407-0.31,0.606-0.471c0.523-0.425,1.135-0.85,1.533-1.398c1.356-1.87,1.292-4.688,1.253-6.877
		c-0.066-3.649-0.483-11.385-5.424-11.869c-2.51-0.246-4.605,1.817-6.128,3.542c-1.813,2.053-3.22,4.406-4.235,6.946
		c-2.021,5.056-2.666,10.63-2.58,16.044c0.062,3.943,0.645,8.401,3.331,11.494c2.46,2.834,6.329,3.618,9.929,3.241
		c2.28-0.239,4.754-1.087,6.331-2.835c1.543-1.71,2.557-3.839,3.767-5.776c0.65-1.04,1.631-2.244,2.977-2.244
		C149.782,41.769,151.211,43.178,151.211,44.733z"/>
	<path fill="#FFFFFF" d="M174.204,50.401c0,5.158-7.183,6.95-11.185,7.339c-3.823,0.371-8.144-0.146-10.794-3.228
		c-2.703-3.144-3.058-7.87-2.701-11.82c0.258-2.852,0.989-5.648,1.959-8.336c0.89-2.467,1.952-5.003,3.673-7.017
		c0.916-1.073,2.077-2,3.475-2.328c1.767-0.415,3.753,0.105,5.387,0.781c3.733,1.544,8.341,4.824,9.17,9.06
		c0.792,4.049-1.696,7.612-5.056,9.572c-1.842,1.075-3.907,1.711-6.019,1.967c-0.929,0.113-1.997,0.275-2.924,0.084
		c-1.003-0.207-1.954-0.718-2.843-1.207c0.081,1.944,0.289,4.28,1.572,5.854c1.31,1.607,3.524,1.324,5.332,0.885
		c2.552-0.619,4.538-2.319,6.964-3.205C171.487,48.336,174.204,48.602,174.204,50.401z M166.093,36.338
		c0-2.693-1.776-5.648-4.776-5.142c-2.832,0.478-3.992,3.574-4.073,6.123c-0.103,3.218,2.933,3.961,5.563,3.333
		C164.949,40.141,166.093,38.508,166.093,36.338z"/>
	<path fill="#FFFFFF" d="M198.46,56.428c-0.904,1.385-2.258,1.98-3.851,1.526c-0.833-0.237-1.632-0.596-2.41-0.973
		c-0.758-0.367-0.66-0.44-0.66-1.222c0-5.108,0.34-10.214-0.045-15.317c-0.156-2.065-0.398-4.159-0.99-6.15
		c-0.354-1.192-0.856-2.499-1.829-3.329c-3.286-2.804-6.803,4.084-7.847,6.355c-1.087,2.365-1.741,4.911-2.01,7.497
		c-0.284,2.723,0.078,5.148,0.529,7.826c0.347,2.062,0.696,4.24-1.835,4.93c-1.517,0.414-3.381-0.09-4.337-1.368
		c-1.309-1.751-1.057-4.19-1.057-6.266c0-4.483,0-8.966,0-13.449c0-1.019,0.217-2.024,0.281-3.038
		c0.065-1.023-0.091-2.055-0.244-3.064c-0.135-0.881-0.352-1.871-0.247-2.767c0.128-1.094,1.092-1.905,1.962-2.459
		c0.807-0.513,1.705-0.8,2.653-0.554c0.461,0.12,0.891,0.339,1.283,0.605c0.234,0.159,1.326,0.882,1.305,1.172
		c-0.074,0.987-0.148,1.973-0.222,2.96c1.212-1.933,2.924-3.68,5.214-4.214c2.583-0.603,5.211,0.417,7.364,1.799
		c2.076,1.333,3.648,3.006,4.642,5.268c0.997,2.268,1.591,4.699,1.938,7.147C198.842,44.942,198.46,50.785,198.46,56.428z"/>
	<path fill="#FFFFFF" d="M212.152,30.31c0,1.54-2.382,2.092-3.504,2.361c-0.622,0.149-1.252,0.265-1.883,0.363
		c-0.627,0.097-0.719,0.016-0.754,0.614c-0.052,0.893-0.068,1.788-0.083,2.683c-0.048,3.052-0.028,6.106-0.028,9.159
		c0,2.465,0.604,4.89,0.821,7.337c0.089,0.997,0.199,2-0.458,2.841c-0.751,0.962-2.173,1.778-3.427,1.543
		c-2.295-0.43-3.2-4.034-3.53-5.922c-0.18-1.027-0.178-2.048-0.178-3.083c0-4.899,0-9.798,0-14.697
		c-1.351-0.205-5.575-0.269-5.865-2.199c-0.178-1.187,1.395-2.445,2.295-2.987c0.507-0.305,1.071-0.514,1.66-0.587
		c0.553-0.069,1.16,0.144,1.685,0.007c1.585-0.413,1.192-3.312,1.192-4.573c0-1.49,0-2.979,0-4.469
		c-0.509-1.116-0.508-2.151,0.502-2.964c1.006-0.81,2.295-1.23,3.548-0.788c1.203,0.425,2.264,1.487,2.826,2.617
		c0.644,1.294,0.446,2.85,0.144,4.213c-0.322,1.453-0.786,2.777-0.777,4.29c0.004,0.705-0.04,0.65,0.691,0.749
		c0.603,0.082,1.203,0.191,1.791,0.348C210.373,27.582,212.152,28.467,212.152,30.31z"/>
	<path fill="#FFFFFF" d="M231.795,50.401c0,5.158-7.181,6.95-11.184,7.339c-3.823,0.371-8.144-0.146-10.795-3.228
		c-2.703-3.143-3.058-7.87-2.701-11.82c0.258-2.852,0.989-5.648,1.959-8.336c0.89-2.467,1.952-5.003,3.673-7.017
		c0.916-1.073,2.077-2,3.475-2.328c1.767-0.415,3.754,0.105,5.388,0.781c3.733,1.544,8.341,4.823,9.169,9.06
		c0.792,4.05-1.696,7.612-5.057,9.572c-1.842,1.075-3.906,1.711-6.018,1.967c-0.929,0.113-1.997,0.275-2.924,0.084
		c-1.003-0.207-1.954-0.719-2.843-1.207c0.081,1.944,0.288,4.28,1.571,5.854c1.31,1.607,3.524,1.324,5.333,0.885
		c2.552-0.619,4.537-2.319,6.964-3.205C229.079,48.335,231.795,48.602,231.795,50.401z M223.686,36.338
		c0-2.693-1.777-5.647-4.776-5.142c-2.831,0.477-3.992,3.575-4.074,6.123c-0.104,3.218,2.934,3.961,5.563,3.333
		C222.541,40.141,223.686,38.508,223.686,36.338z"/>
	<path fill="#FFFFFF" d="M248.611,31.352c0,0.547-0.077,1.096-0.148,1.637c-0.366,0.523-0.781,1.021-1.274,1.429
		c-0.835,0.689-1.955,1.059-2.989,0.587c-0.54-0.246-0.978-0.671-1.335-1.137c-0.349-0.455-0.254-1.133-0.395-1.689
		c-0.215-0.848-0.697-1.653-1.597-1.875c-1.417-0.35-1.977,1.385-2.398,2.431c-0.9,2.234-1.629,4.631-1.98,7.017
		c-0.409,2.773-0.429,5.604-0.36,8.401c0.025,1.017,0.061,2.04,0.192,3.05c0.11,0.852,0.451,1.577,0.687,2.398
		c0.749,2.605-2.243,3.765-4.353,3.528c-2.056-0.23-3.172-1.643-3.172-3.678c0-0.63,0.286-1.217,0.36-1.837
		c0.066-0.552,0.008-1.141-0.001-1.695c-0.023-1.474-0.069-2.947-0.124-4.42c-0.137-3.655-0.35-7.306-0.484-10.961
		c-0.049-1.356-0.091-2.712-0.112-4.069c-0.017-1.111-0.164-2.362,0.434-3.359c1.244-2.073,5.573-2.09,6.845-0.074
		c1.961-2.17,4.808-2.943,7.511-1.659c1.235,0.587,2.143,1.525,2.977,2.591C247.614,28.886,248.611,30.113,248.611,31.352z"/>
</g>
<g>
</g>
<g>
</g>
<g>
</g>
<g>
</g>
<g>
</g>
<g>
</g>
</svg>
