<?xml version="1.0" encoding="UTF-8" standalone="no"?>
<!DOCTYPE svg PUBLIC "-//W3C//DTD SVG 1.1//EN"
 "http://www.w3.org/Graphics/SVG/1.1/DTD/svg11.dtd">
<!-- Generated by graphviz version 3.0.0 (20220226.1711)
 -->
<!-- Title: dependencies Pages: 1 -->
<svg width="2125pt" height="247pt"
 viewBox="0.00 0.00 2125.00 246.80" xmlns="http://www.w3.org/2000/svg" xmlns:xlink="http://www.w3.org/1999/xlink">
<g id="graph0" class="graph" transform="scale(1 1) rotate(0) translate(4 242.8)">
<title>dependencies</title>
<polygon fill="white" stroke="transparent" points="-4,4 -4,-242.8 2121,-242.8 2121,4 -4,4"/>
<text text-anchor="middle" x="1058.5" y="-8.2" font-family="sans-serif" font-size="14.00">dependencies</text>
<g id="clust1" class="cluster">
<title>cluster_AppModule</title>
<polygon fill="none" stroke="black" stroke-dasharray="1,5" points="8,-32.8 8,-230.8 2109,-230.8 2109,-32.8 8,-32.8"/>
</g>
<g id="clust14" class="cluster">
<title>cluster_AppModule_imports</title>
<polygon fill="none" stroke="black" points="1701,-40.8 1701,-92.8 2101,-92.8 2101,-40.8 1701,-40.8"/>
</g>
<g id="clust16" class="cluster">
<title>cluster_AppModule_bootstrap</title>
<polygon fill="none" stroke="black" points="993,-170.8 993,-222.8 1117,-222.8 1117,-170.8 993,-170.8"/>
</g>
<g id="clust2" class="cluster">
<title>cluster_AppModule_declarations</title>
<polygon fill="none" stroke="black" points="16,-40.8 16,-92.8 1693,-92.8 1693,-40.8 16,-40.8"/>
</g>
<!-- AppComponent -->
<g id="node1" class="node">
<title>AppComponent</title>
<polygon fill="#ffffb3" stroke="black" points="1684.94,-84.8 1579.06,-84.8 1579.06,-48.8 1684.94,-48.8 1684.94,-84.8"/>
<text text-anchor="middle" x="1632" y="-62.6" font-family="Times,serif" font-size="14.00">AppComponent</text>
</g>
<!-- AppModule -->
<g id="node12" class="node">
<title>AppModule</title>
<polygon fill="#8dd3c7" stroke="black" points="1096.66,-149.8 1093.66,-153.8 1072.66,-153.8 1069.66,-149.8 1013.34,-149.8 1013.34,-113.8 1096.66,-113.8 1096.66,-149.8"/>
<text text-anchor="middle" x="1055" y="-127.6" font-family="Times,serif" font-size="14.00">AppModule</text>
</g>
<!-- AppComponent&#45;&gt;AppModule -->
<g id="edge1" class="edge">
<title>AppComponent&#45;&gt;AppModule</title>
<path fill="none" stroke="black" d="M1632,-85.02C1632,-103.63 1632,-129.8 1632,-129.8 1632,-129.8 1106.96,-129.8 1106.96,-129.8"/>
<polygon fill="black" stroke="black" points="1106.96,-126.3 1096.96,-129.8 1106.96,-133.3 1106.96,-126.3"/>
</g>
<!-- AudioElementComponent -->
<g id="node2" class="node">
<title>AudioElementComponent</title>
<polygon fill="#ffffb3" stroke="black" points="1561.48,-84.8 1398.52,-84.8 1398.52,-48.8 1561.48,-48.8 1561.48,-84.8"/>
<text text-anchor="middle" x="1480" y="-62.6" font-family="Times,serif" font-size="14.00">AudioElementComponent</text>
</g>
<!-- AudioElementComponent&#45;&gt;AppModule -->
<g id="edge2" class="edge">
<title>AudioElementComponent&#45;&gt;AppModule</title>
<path fill="none" stroke="black" d="M1480,-84.83C1480,-101.86 1480,-124.8 1480,-124.8 1480,-124.8 1106.91,-124.8 1106.91,-124.8"/>
<polygon fill="black" stroke="black" points="1106.91,-121.3 1096.91,-124.8 1106.91,-128.3 1106.91,-121.3"/>
</g>
<!-- BottomSheetComponent -->
<g id="node3" class="node">
<title>BottomSheetComponent</title>
<polygon fill="#ffffb3" stroke="black" points="1380.44,-84.8 1225.56,-84.8 1225.56,-48.8 1380.44,-48.8 1380.44,-84.8"/>
<text text-anchor="middle" x="1303" y="-62.6" font-family="Times,serif" font-size="14.00">BottomSheetComponent</text>
</g>
<!-- BottomSheetComponent&#45;&gt;AppModule -->
<g id="edge3" class="edge">
<title>BottomSheetComponent&#45;&gt;AppModule</title>
<path fill="none" stroke="black" d="M1303,-85.04C1303,-100.37 1303,-119.8 1303,-119.8 1303,-119.8 1106.79,-119.8 1106.79,-119.8"/>
<polygon fill="black" stroke="black" points="1106.79,-116.3 1096.79,-119.8 1106.79,-123.3 1106.79,-116.3"/>
</g>
<!-- PreferenceComponent -->
<g id="node4" class="node">
<title>PreferenceComponent</title>
<polygon fill="#ffffb3" stroke="black" points="1207.67,-84.8 1066.33,-84.8 1066.33,-48.8 1207.67,-48.8 1207.67,-84.8"/>
<text text-anchor="middle" x="1137" y="-62.6" font-family="Times,serif" font-size="14.00">PreferenceComponent</text>
</g>
<!-- PreferenceComponent&#45;&gt;AppModule -->
<g id="edge4" class="edge">
<title>PreferenceComponent&#45;&gt;AppModule</title>
<path fill="none" stroke="black" d="M1081.62,-84.91C1081.62,-84.91 1081.62,-103.79 1081.62,-103.79"/>
<polygon fill="black" stroke="black" points="1078.12,-103.79 1081.62,-113.79 1085.12,-103.79 1078.12,-103.79"/>
</g>
<!-- RadioPlayerComponent -->
<g id="node5" class="node">
<title>RadioPlayerComponent</title>
<polygon fill="#ffffb3" stroke="black" points="1048.04,-84.8 897.96,-84.8 897.96,-48.8 1048.04,-48.8 1048.04,-84.8"/>
<text text-anchor="middle" x="973" y="-62.6" font-family="Times,serif" font-size="14.00">RadioPlayerComponent</text>
</g>
<!-- RadioPlayerComponent&#45;&gt;AppModule -->
<g id="edge5" class="edge">
<title>RadioPlayerComponent&#45;&gt;AppModule</title>
<path fill="none" stroke="black" d="M1030.72,-84.91C1030.72,-84.91 1030.72,-103.79 1030.72,-103.79"/>
<polygon fill="black" stroke="black" points="1027.22,-103.79 1030.72,-113.79 1034.22,-103.79 1027.22,-103.79"/>
</g>
<!-- RssFluxComponent -->
<g id="node6" class="node">
<title>RssFluxComponent</title>
<polygon fill="#ffffb3" stroke="black" points="879.74,-84.8 752.26,-84.8 752.26,-48.8 879.74,-48.8 879.74,-84.8"/>
<text text-anchor="middle" x="816" y="-62.6" font-family="Times,serif" font-size="14.00">RssFluxComponent</text>
</g>
<!-- RssFluxComponent&#45;&gt;AppModule -->
<g id="edge6" class="edge">
<title>RssFluxComponent&#45;&gt;AppModule</title>
<path fill="none" stroke="black" d="M816,-85.04C816,-100.37 816,-119.8 816,-119.8 816,-119.8 1003.1,-119.8 1003.1,-119.8"/>
<polygon fill="black" stroke="black" points="1003.1,-123.3 1013.1,-119.8 1003.1,-116.3 1003.1,-123.3"/>
</g>
<!-- SearchListComponent -->
<g id="node7" class="node">
<title>SearchListComponent</title>
<polygon fill="#ffffb3" stroke="black" points="734.7,-84.8 593.3,-84.8 593.3,-48.8 734.7,-48.8 734.7,-84.8"/>
<text text-anchor="middle" x="664" y="-62.6" font-family="Times,serif" font-size="14.00">SearchListComponent</text>
</g>
<!-- SearchListComponent&#45;&gt;AppModule -->
<g id="edge7" class="edge">
<title>SearchListComponent&#45;&gt;AppModule</title>
<path fill="none" stroke="black" d="M664,-84.83C664,-101.86 664,-124.8 664,-124.8 664,-124.8 1003.16,-124.8 1003.16,-124.8"/>
<polygon fill="black" stroke="black" points="1003.16,-128.3 1013.16,-124.8 1003.16,-121.3 1003.16,-128.3"/>
</g>
<!-- StarRatingComponent -->
<g id="node8" class="node">
<title>StarRatingComponent</title>
<polygon fill="#ffffb3" stroke="black" points="575.71,-84.8 434.29,-84.8 434.29,-48.8 575.71,-48.8 575.71,-84.8"/>
<text text-anchor="middle" x="505" y="-62.6" font-family="Times,serif" font-size="14.00">StarRatingComponent</text>
</g>
<!-- StarRatingComponent&#45;&gt;AppModule -->
<g id="edge8" class="edge">
<title>StarRatingComponent&#45;&gt;AppModule</title>
<path fill="none" stroke="black" d="M505,-85.02C505,-103.63 505,-129.8 505,-129.8 505,-129.8 1003.21,-129.8 1003.21,-129.8"/>
<polygon fill="black" stroke="black" points="1003.21,-133.3 1013.21,-129.8 1003.21,-126.3 1003.21,-133.3"/>
</g>
<!-- TableComponent -->
<g id="node9" class="node">
<title>TableComponent</title>
<polygon fill="#ffffb3" stroke="black" points="416.7,-84.8 303.3,-84.8 303.3,-48.8 416.7,-48.8 416.7,-84.8"/>
<text text-anchor="middle" x="360" y="-62.6" font-family="Times,serif" font-size="14.00">TableComponent</text>
</g>
<!-- TableComponent&#45;&gt;AppModule -->
<g id="edge9" class="edge">
<title>TableComponent&#45;&gt;AppModule</title>
<path fill="none" stroke="black" d="M360,-85.02C360,-105.17 360,-134.8 360,-134.8 360,-134.8 1003.09,-134.8 1003.09,-134.8"/>
<polygon fill="black" stroke="black" points="1003.09,-138.3 1013.09,-134.8 1003.09,-131.3 1003.09,-138.3"/>
</g>
<!-- ToolbarComponent -->
<g id="node10" class="node">
<title>ToolbarComponent</title>
<polygon fill="#ffffb3" stroke="black" points="285.65,-84.8 160.35,-84.8 160.35,-48.8 285.65,-48.8 285.65,-84.8"/>
<text text-anchor="middle" x="223" y="-62.6" font-family="Times,serif" font-size="14.00">ToolbarComponent</text>
</g>
<!-- ToolbarComponent&#45;&gt;AppModule -->
<g id="edge10" class="edge">
<title>ToolbarComponent&#45;&gt;AppModule</title>
<path fill="none" stroke="black" d="M223,-84.84C223,-106.46 223,-139.8 223,-139.8 223,-139.8 1003.17,-139.8 1003.17,-139.8"/>
<polygon fill="black" stroke="black" points="1003.17,-143.3 1013.17,-139.8 1003.17,-136.3 1003.17,-143.3"/>
</g>
<!-- WatchComponent -->
<g id="node11" class="node">
<title>WatchComponent</title>
<polygon fill="#ffffb3" stroke="black" points="141.86,-84.8 24.14,-84.8 24.14,-48.8 141.86,-48.8 141.86,-84.8"/>
<text text-anchor="middle" x="83" y="-62.6" font-family="Times,serif" font-size="14.00">WatchComponent</text>
</g>
<!-- WatchComponent&#45;&gt;AppModule -->
<g id="edge11" class="edge">
<title>WatchComponent&#45;&gt;AppModule</title>
<path fill="none" stroke="black" d="M83,-84.89C83,-107.93 83,-144.8 83,-144.8 83,-144.8 1003.23,-144.8 1003.23,-144.8"/>
<polygon fill="black" stroke="black" points="1003.23,-148.3 1013.23,-144.8 1003.23,-141.3 1003.23,-148.3"/>
</g>
<!-- AppComponent  -->
<g id="node16" class="node">
<title>AppComponent </title>
<polygon fill="#80b1d3" stroke="black" points="1109.44,-214.8 1000.56,-214.8 1000.56,-178.8 1109.44,-178.8 1109.44,-214.8"/>
<text text-anchor="middle" x="1055" y="-192.6" font-family="Times,serif" font-size="14.00">AppComponent </text>
</g>
<!-- AppModule&#45;&gt;AppComponent  -->
<g id="edge15" class="edge">
<title>AppModule&#45;&gt;AppComponent </title>
<path fill="none" stroke="black" stroke-dasharray="1,5" d="M1055,-149.91C1055,-149.91 1055,-168.79 1055,-168.79"/>
<polygon fill="black" stroke="black" points="1051.5,-168.79 1055,-178.79 1058.5,-168.79 1051.5,-168.79"/>
</g>
<!-- AppRoutingModule -->
<g id="node13" class="node">
<title>AppRoutingModule</title>
<polygon fill="#8dd3c7" stroke="black" points="2093.28,-84.8 2090.28,-88.8 2069.28,-88.8 2066.28,-84.8 1964.72,-84.8 1964.72,-48.8 2093.28,-48.8 2093.28,-84.8"/>
<text text-anchor="middle" x="2029" y="-62.6" font-family="Times,serif" font-size="14.00">AppRoutingModule</text>
</g>
<!-- AppRoutingModule&#45;&gt;AppModule -->
<g id="edge12" class="edge">
<title>AppRoutingModule&#45;&gt;AppModule</title>
<path fill="none" stroke="black" d="M2029,-84.89C2029,-107.93 2029,-144.8 2029,-144.8 2029,-144.8 1106.85,-144.8 1106.85,-144.8"/>
<polygon fill="black" stroke="black" points="1106.85,-141.3 1096.85,-144.8 1106.85,-148.3 1106.85,-141.3"/>
</g>
<!-- GraphQLModule -->
<g id="node14" class="node">
<title>GraphQLModule</title>
<polygon fill="#8dd3c7" stroke="black" points="1946.7,-84.8 1943.7,-88.8 1922.7,-88.8 1919.7,-84.8 1833.3,-84.8 1833.3,-48.8 1946.7,-48.8 1946.7,-84.8"/>
<text text-anchor="middle" x="1890" y="-62.6" font-family="Times,serif" font-size="14.00">GraphQLModule</text>
</g>
<!-- GraphQLModule&#45;&gt;AppModule -->
<g id="edge13" class="edge">
<title>GraphQLModule&#45;&gt;AppModule</title>
<path fill="none" stroke="black" d="M1890,-84.84C1890,-106.46 1890,-139.8 1890,-139.8 1890,-139.8 1106.69,-139.8 1106.69,-139.8"/>
<polygon fill="black" stroke="black" points="1106.69,-136.3 1096.69,-139.8 1106.69,-143.3 1106.69,-136.3"/>
</g>
<!-- MaterialModule -->
<g id="node15" class="node">
<title>MaterialModule</title>
<polygon fill="#8dd3c7" stroke="black" points="1815.47,-84.8 1812.47,-88.8 1791.47,-88.8 1788.47,-84.8 1708.53,-84.8 1708.53,-48.8 1815.47,-48.8 1815.47,-84.8"/>
<text text-anchor="middle" x="1762" y="-62.6" font-family="Times,serif" font-size="14.00">MaterialModule</text>
</g>
<!-- MaterialModule&#45;&gt;AppModule -->
<g id="edge14" class="edge">
<title>MaterialModule&#45;&gt;AppModule</title>
<path fill="none" stroke="black" d="M1762,-85.02C1762,-105.17 1762,-134.8 1762,-134.8 1762,-134.8 1106.85,-134.8 1106.85,-134.8"/>
<polygon fill="black" stroke="black" points="1106.85,-131.3 1096.85,-134.8 1106.85,-138.3 1106.85,-131.3"/>
</g>
</g>
</svg>
